<svg xmlns="http://www.w3.org/2000/svg" viewBox="0 0 64 64"><defs><style>.cls-1{fill:none;stroke:#999;stroke-linecap:round;stroke-linejoin:round;stroke-width:2px}.cls-5{fill:#54596e}</style></defs><g id="airbaloon"><path class="cls-1" d="M23 45l2 8M37 45l-2 8"/><path d="M41.92 45C47.41 39 51 29.82 51 22.49A21.25 21.25 0 0 0 30 1 21.25 21.25 0 0 0 9 22.49C9 29.82 12.59 39 18.08 45z" stroke="#54596e" fill="#ffd578" stroke-linecap="round" stroke-linejoin="round" stroke-width="2"/><path d="M41.92 40H18.08a36.86 36.86 0 0 1-8.94-19.94A22.14 22.14 0 0 0 9 22.49C9 29.82 12.59 39 18.08 45h23.84C47.41 39 51 29.82 51 22.49a22.14 22.14 0 0 0-.14-2.43A36.86 36.86 0 0 1 41.92 40z" opacity=".15" fill="#54596e"/><path d="M36.25 45C39.12 39 41 29.82 41 22.49 41 10.62 36.08 1 30 1s-11 9.62-11 21.49C19 29.82 20.88 39 23.75 45z" fill="#f4a14e" stroke="#54596e" stroke-linecap="round" stroke-linejoin="round" stroke-width="2"/><ellipse class="cls-5" cx="30" cy="33" rx="3" ry="5"/><circle class="cls-5" cx="14" cy="22" r="2"/><circle class="cls-5" cx="46" cy="22" r="2"/><path fill="#a1b7ff" stroke="#54596e" stroke-linecap="round" stroke-linejoin="round" stroke-width="2" d="M35 62H25l-1-9h12l-1 9z"/><path stroke="#54596e" stroke-linecap="round" stroke-linejoin="round" stroke-width="2" fill="none" d="M22 53h16"/></g></svg>