<?xml version="1.0" encoding="UTF-8" standalone="no"?> <svg xmlns="http://www.w3.org/2000/svg" viewBox="0 0 64 64"><defs><style>.cls-1{fill:#ededed;}.cls-1,.cls-2{stroke:#54596e;stroke-linecap:round;stroke-linejoin:round;stroke-width:2px;}.cls-2{fill:#fff;}.cls-3{fill:#54596e;}.cls-4{fill:#f99;}.cls-5{fill:#fff35f;}</style></defs><title>candle</title><g id="candle"><path class="cls-1" d="M39,29V57c0,2.21,4.92,4,11,4s11-1.79,11-4V29Z"/><path class="cls-2" d="M61,29c0-2.21-4.92-4-11-4s-11,1.79-11,4c0,1.83,3.39,3.37,8,3.85V41.5a2.5,2.5,0,0,0,5,0v-6a2.5,2.5,0,0,0,5,0V32.09C59.44,31.35,61,30.24,61,29Z"/><path class="cls-1" d="M7,11V57c0,2.21,4.92,4,11,4s11-1.79,11-4V11Z"/><ellipse class="cls-2" cx="18" cy="11" rx="11" ry="4"/><circle class="cls-3" cx="14.5" cy="23.5" r="1.5"/><circle class="cls-3" cx="24.5" cy="23.5" r="1.5"/><ellipse class="cls-3" cx="20" cy="31" rx="3" ry="4"/><path class="cls-4" d="M55,25c0-2.76-2.24-9-5-9s-5,6.24-5,9a5,5,0,0,0,10,0Z"/><path class="cls-5" d="M52,20.36c0-2.56-.9-8.36-2-8.36s-2,5.79-2,8.36S48.9,25,50,25,52,22.92,52,20.36Z"/><path class="cls-2" d="M18,11s0-4,1-6"/></g></svg>