<svg xmlns="http://www.w3.org/2000/svg" viewBox="0 0 64 64"><defs><style>.cls-1,.cls-2{fill:#ededed;stroke:#54596e;stroke-linecap:round;stroke-linejoin:round;stroke-width:2px}.cls-2{fill:#fff}.cls-3{fill:#54596e}</style></defs><g id="candle"><path class="cls-1" d="M39 29v28c0 2.21 4.92 4 11 4s11-1.79 11-4V29z"/><path class="cls-2" d="M61 29c0-2.21-4.92-4-11-4s-11 1.79-11 4c0 1.83 3.39 3.37 8 3.85v8.65a2.5 2.5 0 0 0 5 0v-6a2.5 2.5 0 0 0 5 0v-3.41c2.44-.74 4-1.85 4-3.09z"/><path class="cls-1" d="M7 11v46c0 2.21 4.92 4 11 4s11-1.79 11-4V11z"/><ellipse class="cls-2" cx="18" cy="11" rx="11" ry="4"/><circle class="cls-3" cx="14.5" cy="23.5" r="1.5"/><circle class="cls-3" cx="24.5" cy="23.5" r="1.5"/><ellipse class="cls-3" cx="20" cy="31" rx="3" ry="4"/><path d="M55 25c0-2.76-2.24-9-5-9s-5 6.24-5 9a5 5 0 0 0 10 0z" fill="#f99"/><path d="M52 20.36c0-2.56-.9-8.36-2-8.36s-2 5.79-2 8.36.9 4.64 2 4.64 2-2.08 2-4.64z" fill="#fff35f"/><path class="cls-2" d="M18 11s0-4 1-6"/></g></svg>