<svg width="60" height="57" fill="none" xmlns="http://www.w3.org/2000/svg"><path d="M22.63 23H16.5v-5h-5v5H5.87C3.46 23 1 24.68 1 26.74V30h26v-3.68c0-1.84-2.23-3.32-4.37-3.32z" fill="#FFF35F" stroke="#54596E" stroke-width="2" stroke-linecap="round" stroke-linejoin="round"/><path d="M23 14.5l.5-6.1A7.18 7.18 0 0 0 16.56 1h-5.12A7.18 7.18 0 0 0 4.5 8.4l.5 6.1" fill="#BFAD88"/><path d="M23 14.5l.5-6.1A7.18 7.18 0 0 0 16.56 1h-5.12A7.18 7.18 0 0 0 4.5 8.4l.5 6.1" stroke="#54596E" stroke-width="2" stroke-linecap="round" stroke-linejoin="round"/><path d="M10.68 9.94c-5 0-5.68-4.33-5.68.48v4a11.86 11.86 0 0 0 2.76 7A8.21 8.21 0 0 0 14 24a8.21 8.21 0 0 0 6.24-2.5 11.86 11.86 0 0 0 2.76-7v-4c0-4.89-7.35-.56-12.32-.56z" fill="#FFD578" stroke="#54596E" stroke-width="2" stroke-linecap="round" stroke-linejoin="round"/><path d="M57.74 27H14.26A1.26 1.26 0 0 0 13 28.26v26.48c0 .696.564 1.26 1.26 1.26h43.48A1.26 1.26 0 0 0 59 54.74V28.26A1.26 1.26 0 0 0 57.74 27z" fill="#A1B7FF" stroke="#54596E" stroke-width="2" stroke-linecap="round" stroke-linejoin="round"/><path d="M51.57 46.14A3.41 3.41 0 0 0 49 47.33a3.43 3.43 0 1 0 0 4.49 3.42 3.42 0 1 0 2.57-5.67v-.01z" fill="#DFDFDF"/><path d="M20.92 31h-1.84A2.08 2.08 0 0 0 17 33.08v1.84A2.08 2.08 0 0 0 19.08 37h1.84A2.08 2.08 0 0 0 23 34.92v-1.84A2.08 2.08 0 0 0 20.92 31z" fill="#FFD578"/><path d="M18 47h11M18 42h6M27 42h6M36 42h6M45 42h6M18 50h18" stroke="#54596E" stroke-width="2" stroke-linejoin="round"/></svg>