<?xml version="1.0" encoding="UTF-8" standalone="no"?> <svg xmlns="http://www.w3.org/2000/svg" viewBox="0 0 64 64"><defs><style>.cls-1{fill:#55a6ff;}.cls-1,.cls-3,.cls-4,.cls-5{stroke:#54596e;stroke-linecap:round;stroke-linejoin:round;stroke-width:2px;}.cls-2,.cls-4{fill:#54596e;}.cls-2{opacity:0.2;}.cls-3{fill:none;}.cls-5{fill:#9af43b;}</style></defs><title>cloud-upload</title><g id="cloud-upload"><path class="cls-1" d="M51.46,23.1c0-.28,0-.56,0-.85a15.24,15.24,0,0,0-30-3.63A7,7,0,0,0,9.09,24.06,12,12,0,0,0,14,47H50a12,12,0,0,0,1.46-23.9Z"/><path class="cls-2" d="M50,41H14A12,12,0,0,1,2.39,32,12,12,0,0,0,14,47H50A12,12,0,0,0,61.61,32,12,12,0,0,1,50,41Z"/><path class="cls-3" d="M36,23.58a3,3,0,0,1-5.48.14"/><path class="cls-3" d="M20,23.58a3,3,0,0,1-5.48.14"/><path class="cls-4" d="M33.94,30.22A1.21,1.21,0,0,1,34.87,32a10.3,10.3,0,0,1-9.18,6.28,10.29,10.29,0,0,1-9.16-6.23,1.22,1.22,0,0,1,.93-1.79Z"/><path class="cls-5" d="M55.73,37.8a2.6,2.6,0,0,1-3.45,0L50,35.89V51.5A2.5,2.5,0,0,1,47.5,54h0A2.5,2.5,0,0,1,45,51.5V35.89l-2.28,1.93a2.6,2.6,0,0,1-3.45,0,2.5,2.5,0,0,1,.12-3.71l6.5-5.5a2.5,2.5,0,0,1,3.23,0l6.5,5.5A2.5,2.5,0,0,1,55.73,37.8Z"/></g></svg>