<svg id="Layer_1" data-name="Layer 1" xmlns="http://www.w3.org/2000/svg" viewBox="0 0 100 100"><defs><style>.cls-2{fill:#f0f0f0}.cls-3{fill:#bdbec0}.cls-4{fill:none;stroke:#45413c;stroke-linejoin:round}.cls-6{fill:#00dfeb}.cls-8{fill:#fff}.cls-10{fill:#6dd627}.cls-13{fill:#ffe500}.cls-14{fill:#ebcb00}</style></defs><circle cx="50" cy="50" r="40" fill="#e8f4fa" id="_Group_" data-name="&lt;Group&gt;"/><path class="cls-2" d="M72.07 51.53H45.9V66.2a2 2 0 0 1-2 2h28.17a2 2 0 0 0 2-2V53.54a2 2 0 0 0-2-2.01z"/><path class="cls-3" d="M72.61 51.62a1.91 1.91 0 0 0-.54-.09H45.9V66.2a2 2 0 0 1-2 2h.77l27.17-15.77a2.06 2.06 0 0 0 .77-.81z"/><path class="cls-4" d="M72.07 51.53H45.9V66.2a2 2 0 0 1-2 2h28.17a2 2 0 0 0 2-2V53.54a2 2 0 0 0-2-2.01z"/><rect x="59.7" y="54.98" width="10.35" height="9.77" rx="1.15" ry="1.15" fill="#4aeff7"/><path class="cls-6" d="M59.7 56.13v3.35L67.45 55h-6.6a1.16 1.16 0 0 0-1.15 1.13z"/><rect class="cls-4" x="59.7" y="54.98" width="10.35" height="9.77" rx="1.15" ry="1.15"/><path class="cls-6" d="M45.9 55v9.78h8.63a1.16 1.16 0 0 0 1.15-1.15v-7.5A1.16 1.16 0 0 0 54.53 55z"/><path d="M55.68 61.82v-5.69A1.16 1.16 0 0 0 54.53 55H45.9v9.78h4.71z" fill="#00c9d4"/><path class="cls-4" d="M45.9 55v9.78h8.63a1.16 1.16 0 0 0 1.15-1.15v-7.5A1.16 1.16 0 0 0 54.53 55z"/><path class="cls-2" d="M71.84 50.13a2 2 0 0 0 .73-2.74l-6.35-11a2 2 0 0 0-2.74-.72L45.9 45.89v19.27z"/><path class="cls-8" d="M71.84 50.13a2 2 0 0 0 .73-2.74l-6.35-11a2 2 0 0 0-2.74-.72l-.33.18a2 2 0 0 1 .77.75l7 12.07a2 2 0 0 1 0 1.92z"/><path class="cls-3" d="M63.48 35.71L45.9 45.89v19.27l.9-.52 16.83-29z"/><path class="cls-4" d="M71.84 50.13a2 2 0 0 0 .73-2.74l-6.35-11a2 2 0 0 0-2.74-.72L45.9 45.89v19.27z"/><rect x="56.26" y="41.64" width="10.35" height="9.78" rx="1.15" ry="1.15" transform="rotate(-30.1 61.426 46.526)" fill="#9ceb60"/><path class="cls-10" d="M55.08 45.89l1.3 2.24 3.79-6.52-4.67 2.7a1.16 1.16 0 0 0-.42 1.58z"/><rect class="cls-4" x="56.26" y="41.64" width="10.35" height="9.78" rx="1.15" ry="1.15" transform="rotate(-30.1 61.426 46.526)"/><path class="cls-10" d="M50 47.49l-4.1 2.39v8.84l.49.84A1.15 1.15 0 0 0 48 60l7-4a1.14 1.14 0 0 0 .42-1.57l-3.82-6.52a1.15 1.15 0 0 0-1.6-.42z"/><path d="M50.29 58.63l3.77-6.49-2.46-4.23a1.15 1.15 0 0 0-1.6-.42l-4.1 2.39v8.84l.49.84A1.15 1.15 0 0 0 48 60z" fill="#46b000"/><path class="cls-4" d="M50 47.49l-4.1 2.39v8.84l.49.84A1.15 1.15 0 0 0 48 60l7-4a1.14 1.14 0 0 0 .42-1.57l-3.82-6.52a1.15 1.15 0 0 0-1.6-.42z"/><path class="cls-2" d="M62.28 34.19a2 2 0 0 0-.73-2.74l-11-6.34a2 2 0 0 0-2.74.73l-1.91 3.35V62.5z"/><path class="cls-3" d="M47.63 26.21L45.9 29.2v33.3l1.73-2.98V26.21z"/><path class="cls-8" d="M49.46 26.8l12 6.91a2 2 0 0 1 .71.71l.14-.23a2 2 0 0 0-.73-2.74l-11-6.34a2 2 0 0 0-2.74.73L47.17 27a2 2 0 0 1 2.29-.2zM45.9 62.39v.11l.77-1.34-.77 1.23z"/><path class="cls-4" d="M62.28 34.19a2 2 0 0 0-.73-2.74l-11-6.34a2 2 0 0 0-2.74.73l-1.91 3.35V62.5z"/><path d="M45.9 36.08V39l6.2 3.58a1.14 1.14 0 0 0 1.57-.42l4-7a1.14 1.14 0 0 0-.42-1.57l-6.47-3.75a1.15 1.15 0 0 0-1.57.42z" fill="#fff48c"/><path class="cls-13" d="M47.63 33.1l-1.73 2.99v2.92l1.73 1V33.1z"/><path class="cls-13" d="M47.63 33.1l-1.73 2.99v1.64l1.73-.46V33.1zM45.9 55.61l4.61-8a1.16 1.16 0 0 0-.42-1.57l-4.19-2.38z"/><path class="cls-14" d="M47.63 44.66l-1.73-1v11.95l1.73-2.98v-7.97z"/><path class="cls-14" d="M47.63 44.66l-1.73-1v4.59l1.73-.46v-3.13z"/><path class="cls-4" d="M45.9 55.61l4.61-8a1.16 1.16 0 0 0-.42-1.57l-4.19-2.38zM45.9 36.08V39l6.2 3.58a1.14 1.14 0 0 0 1.57-.42l4-7a1.14 1.14 0 0 0-.42-1.57l-6.47-3.75a1.15 1.15 0 0 0-1.57.42z"/><rect class="cls-2" x="29.23" y="23.36" width="16.68" height="44.85" rx="2" ry="2"/><path class="cls-8" d="M43.9 23.36H31.23a2 2 0 0 0-2 2v1.73a2 2 0 0 1 2-2H43.9a2 2 0 0 1 2 2v-1.73a2 2 0 0 0-2-2z"/><rect class="cls-4" x="29.23" y="23.36" width="16.68" height="44.85" rx="2" ry="2"/><rect x="32.68" y="27.38" width="9.78" height="10.35" rx="1.15" ry="1.15" fill="#ff866e"/><rect class="cls-4" x="32.68" y="27.38" width="9.78" height="10.35" rx="1.15" ry="1.15"/><rect x="32.68" y="41.76" width="9.78" height="10.35" rx="1.15" ry="1.15" fill="#ff6242"/><rect class="cls-4" x="32.68" y="41.76" width="9.78" height="10.35" rx="1.15" ry="1.15"/><circle cx="37.57" cy="62.46" r="1.72" stroke="#45413c" stroke-linejoin="round" fill="#bdbec0"/><ellipse cx="51.65" cy="75.58" rx="23" ry="1.73" fill="#020202" opacity=".15"/></svg>