<svg width="60" height="62" fill="none" xmlns="http://www.w3.org/2000/svg"><path d="M59 50l-7.37-10H58l-8.87-10H55l-6.75-10H52L41.5 1 31 20h3.75L28 30h5.87L25 40h6.37L24 50h35z" fill="#9AF43B" stroke="#54596E" stroke-width="2" stroke-linecap="round" stroke-linejoin="round"/><path d="M44 50h-5v11h5V50z" fill="#BFAD88" stroke="#54596E" stroke-width="2" stroke-linecap="round" stroke-linejoin="round"/><path d="M18 61c8.837 0 16-7.163 16-16s-7.163-16-16-16S2 36.163 2 45s7.163 16 16 16z" fill="#FFF35F" stroke="#54596E" stroke-width="2" stroke-linecap="round" stroke-linejoin="round"/><path opacity=".15" d="M18 55A16 16 0 0 1 2.29 42a16 16 0 1 0 31.42 0A16 16 0 0 1 18 55z" fill="#54596E"/><path d="M12.86 48.07A7 7 0 0 0 18 50a7 7 0 0 0 5.1-1.9" stroke="#54596E" stroke-width="2" stroke-linecap="round" stroke-linejoin="round"/><path d="M9 40a2 2 0 1 0 0-4 2 2 0 0 0 0 4zM27 40a2 2 0 1 0 0-4 2 2 0 0 0 0 4z" fill="#54596E"/><path d="M27 46a2 2 0 1 0 0-4 2 2 0 0 0 0 4zM9 46a2 2 0 1 0 0-4 2 2 0 0 0 0 4z" fill="#FF927D"/><path d="M40 61h19" stroke="#54596E" stroke-width="2" stroke-linecap="round" stroke-linejoin="round"/><path d="M13 20a7 7 0 1 0 0-14 7 7 0 0 0 0 14z" fill="#F4A14E" stroke="#54596E" stroke-width="2" stroke-linecap="round" stroke-linejoin="round"/><path d="M13 1v2M13 23v2M1 13h2M23 13h2M4.51 4.51l1.42 1.42M20.07 20.07l1.42 1.42M21.49 4.51l-1.42 1.42M5.93 20.07l-1.42 1.42" stroke="#54596E" stroke-width="2" stroke-linecap="round" stroke-linejoin="round"/></svg>