<svg width="2486" height="1788" viewBox="0 0 2486 1788" fill="none" xmlns="http://www.w3.org/2000/svg">
<g clip-path="url(#clip0)">
<rect width="2485.32" height="1787.67" fill="url(#paint0_linear)"/>
<path d="M1821.49 541.38C1850.15 553.103 1976.57 586.191 2036.2 601.269L2080.27 689.862L2012.89 743.812L1948.48 802.139L1685.54 768.14L1715.86 635.269C1739.13 599.087 1792.83 529.656 1821.49 541.38Z" fill="#81AAA4"/>
<path d="M536.945 1525.59C562.916 1515.44 637.92 1537.06 672.175 1549.13L568.549 1786.16C387.632 1793.4 28.5081 1801.38 39.3438 1775.41C52.8883 1742.95 189.839 1715.86 210.586 1715.86C227.183 1715.86 279.992 1744.09 304.323 1758.21C306.723 1757.32 321.629 1737.49 362.048 1665.34C412.571 1575.15 504.481 1538.27 536.945 1525.59Z" fill="#EB8553"/>
<g filter="url(#filter0_d)">
<ellipse cx="1083.24" cy="283.898" rx="189.946" ry="177.907" fill="white"/>
</g>
<path d="M1871.55 606.441C1847.92 635.753 1778.69 670.822 1747.03 684.693L1787.21 897.596L2109.28 865.013C2250.47 812.932 2547.56 727.404 2522.87 690.974C2498.18 654.544 2242.62 446.012 2127.5 362.264L2061.52 442.217C2058.55 454.43 2050.02 478.856 2039.7 478.856C2026.8 478.856 1981.97 495.344 1970.39 497.831C1958.82 500.317 1901.08 569.801 1871.55 606.441Z" fill="#81AAA4"/>
<path d="M2160.86 434.887C2169.16 410.496 2138.69 376.307 2122.41 362.262C2102.5 386.471 2062.55 436.301 2062.02 441.954C2061.49 447.607 2050.98 465.508 2045.79 473.752C1995.66 483.173 1966.28 498.265 1957.85 504.634L1868.46 610.104L1794.49 660.091C1792.01 673.176 1788.53 707.775 1794.49 741.483C1800.45 775.192 1891.52 775.855 1936.3 771.973C1940.74 771.973 1966.74 765.875 2035.28 741.483C2120.95 710.994 2212.61 609.188 2214.07 591.784C2215.24 577.861 2205.69 527.882 2200.77 504.634C2187.47 510.435 2158.49 521.462 2149.02 519.159C2137.18 516.28 2150.48 465.377 2160.86 434.887Z" fill="#AAD7CD"/>
<path d="M945.344 496.221C912.266 505.65 880.257 598.411 868.386 643.613V720.286C1032.14 848.034 1377.38 1109.44 1448.32 1133.06C1519.25 1156.68 1761.96 975.822 1874.45 882.441C1878.4 761.559 1879.78 515.079 1853.78 496.221C1821.28 472.647 1457.28 130.716 1427.64 130.716C1403.94 130.716 1294.48 339.978 1253.06 360.615C1211.63 381.251 1166.08 337.041 1149.45 337.041C1132.81 337.041 1105.07 366.568 1093.28 381.331C1057.75 415.698 978.421 486.791 945.344 496.221Z" fill="#A8D3C9"/>
<path d="M1004.49 504.001C992.23 504.001 941.476 539.124 917.631 556.685C904.681 566.039 880.084 624.529 878.897 638.614C877.948 649.882 978.7 720.506 1029.19 754.41L1056.17 731.079L941.152 654.956C962.264 640.513 1009.43 607.885 1029.19 592.919C1053.9 574.21 1246.39 378.743 1227.61 367.131C1208.84 355.519 1151.33 364.766 1133.74 367.131C1116.16 369.497 1125.44 411.536 1117.24 444.329C1109.04 477.122 1004.49 547.331 995.1 547.331C985.713 547.331 1019.81 504.001 1004.49 504.001Z" fill="#9EC9C1"/>
<path d="M756.491 478.359C705.676 478.359 398.522 776.447 395.825 795.044L1280.17 1037.34C1276.61 965.462 1264.14 816.371 1242.74 795.044C1215.98 768.385 807.306 478.359 756.491 478.359Z" fill="#ADDBD0"/>
<path d="M693.926 620.039C720.769 603.614 759.342 626.883 775.273 640.571C783.127 640.571 860.18 608.895 897.725 593.058L765.455 528.237C757.148 531.856 735.118 542.104 713.454 554.144C686.374 569.193 660.373 640.571 693.926 620.039Z" fill="#9EC9C1"/>
<path d="M2231.3 754.088L2612.59 571.667V931.045C2599.25 943.479 2558.67 974.196 2503.08 997.588C2433.6 1026.83 1626.8 1085.42 1573.39 1082.84C1530.67 1080.77 758.495 859.234 758.495 859.234L994.234 732.589L1594.75 859.234C1733.68 794.446 2014.73 663.795 2027.5 659.495C2040.28 655.195 2175.16 735.419 2231.3 754.088Z" fill="#86C5B6"/>
<path d="M308.953 567.213C287.633 569.895 177.857 623.672 125.634 650.226V703.332L545.571 809.546C540.008 771.906 524.224 691.316 505.596 670.074C482.311 643.52 335.603 563.86 308.953 567.213Z" fill="#BEE5DB"/>
<path d="M494.427 700.058C501.642 715.185 448.082 756.875 420.4 775.829C338.656 758.887 175.383 722.803 176.245 714.005C177.321 703.008 256.329 687.05 280.287 682.088C304.245 677.126 370.331 630.188 388.367 628.31C406.402 626.433 485.41 681.149 494.427 700.058Z" fill="#9EC9C1"/>
<path d="M335.872 573.816C316.598 571.026 190.285 659.466 129.538 704.034C122.943 704.034 124.289 654.817 125.5 650.257C126.711 645.698 139.498 648.111 154.573 635.774C169.647 623.436 309.626 565.501 311.241 566.708C312.856 567.915 359.965 577.303 335.872 573.816Z" fill="#B7C9C6"/>
<path d="M132.688 602.841C98.9839 578.632 -18.4619 528.668 -18.4619 528.668L-14.2543 648.096L194.183 701.307C185.265 682.675 166.392 627.049 132.688 602.841Z" fill="#C0D8D2"/>
<path d="M63.2084 588.651C75.9822 584.093 135.061 618.57 163.004 636.379L175.519 657.986L-12.7439 639.819L-18.4619 571.666H-12.7439L2.14452 582.953C27.0664 597.179 76.6727 624.146 75.7233 618.212C74.5365 610.795 47.2411 594.348 63.2084 588.651Z" fill="#A4BDB9"/>
<path d="M952.287 901.497C839.766 875.953 268.251 723.998 -3.44043 651.214V1505.81H2599.69V858.923C2425.4 916.584 2037.45 1031.39 1879.97 1029.33C1683.13 1026.75 1092.94 933.428 952.287 901.497Z" fill="#759B86"/>
<path d="M-1.50488 861.047L364.198 1026.91C333.705 1080.05 262.276 1181.76 220.506 1163.53C178.736 1145.3 55.0946 1051.81 -1.50488 1007.35V861.047Z" fill="#4B8694"/>
<path d="M56.6864 1045.94C65.4047 1002.59 253.172 1013.4 345.966 1024.22C359.993 1025.78 394.089 1033.58 509.218 1076.91C601.321 1111.58 910.426 1171.93 1053.46 1197.77C1040.48 1201.39 976.575 1216.07 824.825 1245.83C635.137 1283.03 453.218 1270.56 244.864 1208.63C36.5091 1146.69 45.7885 1100.13 56.6864 1045.94Z" fill="#26556D"/>
<path fill-rule="evenodd" clip-rule="evenodd" d="M60.397 1025.21L59.6371 1031.3C64.2053 1029.01 74.5512 1023.65 80.1471 1020.74L58.2184 1042.68L52.0967 1091.76L123.949 1135.2L119.671 1101.06L103.02 1077.8L117.994 1087.69L116.365 1074.69L100.322 1056.92L115.042 1064.14L106.331 994.648L93.2016 976.185L104.862 982.927L99.6686 941.497L88.6706 927.946L98.1855 929.665L85.218 826.218L61.6343 1015.29L72.3789 1012.81L60.397 1025.21Z" fill="#003653"/>
<path fill-rule="evenodd" clip-rule="evenodd" d="M136.285 993.046L158.15 1151.72L120.821 1133.74L123.465 1109.69L128.534 1102.61L123.908 1105.66L124.624 1099.15L129.708 1093.51L124.989 1095.83L128.43 1064.51L132.809 1058.36L128.856 1060.64L130.889 1042.14L134.782 1037.35L131.348 1037.97L136.285 993.046ZM138.494 1077.76C141.516 1079.33 147.721 1082.54 148.36 1082.82V1087.63L138.494 1077.76ZM147.562 1075.62L141.877 1074.31L147.562 1080.19V1075.62Z" fill="#003653"/>
<path fill-rule="evenodd" clip-rule="evenodd" d="M225.015 1077.24L241.401 1196.17L213.424 1182.69L215.406 1164.66L219.205 1159.36L215.738 1161.65L216.275 1156.76L220.084 1152.54L216.548 1154.27L219.127 1130.8L222.409 1126.19L219.446 1127.9L220.97 1114.04L223.888 1110.45L221.314 1110.91L225.015 1077.24ZM226.67 1140.73C228.935 1141.91 233.585 1144.32 234.064 1144.52V1148.13L226.67 1140.73ZM233.466 1139.13L229.205 1138.14L233.466 1142.55V1139.13Z" fill="#003653"/>
<path fill-rule="evenodd" clip-rule="evenodd" d="M283.93 1121.69L297.793 1222.3L274.124 1210.9L275.801 1195.64L279.014 1191.15L276.081 1193.09L276.535 1188.96L279.759 1185.39L276.767 1186.85L278.949 1167L281.725 1163.1L279.219 1164.54L280.508 1152.82L282.976 1149.77L280.799 1150.17L283.93 1121.69ZM285.33 1175.4C287.246 1176.39 291.181 1178.43 291.586 1178.6V1181.66L285.33 1175.4ZM291.079 1174.04L287.474 1173.21L291.079 1176.94V1174.04Z" fill="#003653"/>
<path fill-rule="evenodd" clip-rule="evenodd" d="M309.28 1117.22L325.42 1234.36L297.864 1221.08L299.816 1203.33L303.556 1198.1L300.142 1200.35L300.671 1195.54L304.424 1191.39L300.94 1193.09L303.481 1169.97L306.712 1165.43L303.795 1167.12L305.296 1153.46L308.169 1149.92L305.635 1150.38L309.28 1117.22ZM310.909 1179.75C313.14 1180.92 317.721 1183.29 318.192 1183.49V1187.04L310.909 1179.75ZM317.602 1178.17L313.406 1177.21L317.602 1181.55V1178.17Z" fill="#003653"/>
<path fill-rule="evenodd" clip-rule="evenodd" d="M414.038 1188.68L423.316 1256.02L407.476 1248.39L408.598 1238.18L410.749 1235.18L408.786 1236.47L409.09 1233.71L411.247 1231.32L409.244 1232.3L410.705 1219.01L412.563 1216.4L410.886 1217.37L411.748 1209.52L413.4 1207.48L411.943 1207.75L414.038 1188.68ZM414.975 1224.63C416.258 1225.3 418.891 1226.66 419.162 1226.78V1228.82L414.975 1224.63ZM418.823 1223.72L416.411 1223.17L418.823 1225.66V1223.72Z" fill="#003653"/>
<path fill-rule="evenodd" clip-rule="evenodd" d="M453.406 1173.94L465.639 1262.72L444.754 1252.66L446.234 1239.2L449.069 1235.24L446.481 1236.95L446.882 1233.3L449.726 1230.15L447.086 1231.45L449.012 1213.93L451.461 1210.48L449.25 1211.76L450.387 1201.41L452.564 1198.73L450.644 1199.08L453.406 1173.94ZM454.64 1221.34C456.331 1222.22 459.803 1224.02 460.16 1224.17V1226.86L454.64 1221.34ZM459.714 1220.14L456.534 1219.41L459.714 1222.7V1220.14Z" fill="#003653"/>
<path fill-rule="evenodd" clip-rule="evenodd" d="M829.552 1158.76L841.784 1247.53L820.9 1237.47L822.379 1224.01L825.214 1220.05L822.627 1221.76L823.028 1218.12L825.871 1214.97L823.232 1216.26L825.157 1198.74L827.606 1195.3L825.395 1196.57L826.533 1186.22L828.709 1183.54L826.79 1183.89L829.552 1158.76ZM830.785 1206.15C832.476 1207.03 835.948 1208.83 836.305 1208.98V1211.67L830.785 1206.15ZM835.859 1204.95L832.679 1204.22L835.859 1207.51V1204.95Z" fill="#003653"/>
<path fill-rule="evenodd" clip-rule="evenodd" d="M854.376 1136.2L837.946 1244.18L865.997 1231.95L864.01 1215.58L860.202 1210.76L863.677 1212.84L863.139 1208.4L859.32 1204.57L862.865 1206.14L860.279 1184.83L856.99 1180.64L859.959 1182.2L858.431 1169.61L855.508 1166.35L858.086 1166.77L854.376 1136.2ZM852.718 1193.85C850.447 1194.92 845.784 1197.11 845.304 1197.29V1200.57L852.718 1193.85ZM845.904 1192.39L850.176 1191.5L845.904 1195.5V1192.39Z" fill="#003653"/>
<path fill-rule="evenodd" clip-rule="evenodd" d="M888.984 1167.91L878.943 1233.91L896.087 1226.43L894.872 1216.43L892.545 1213.48L894.669 1214.75L894.34 1212.04L892.005 1209.7L894.173 1210.66L892.592 1197.64L890.581 1195.08L892.396 1196.03L891.463 1188.33L889.675 1186.34L891.252 1186.6L888.984 1167.91ZM887.971 1203.15C886.583 1203.8 883.733 1205.14 883.44 1205.25V1207.25L887.971 1203.15ZM883.806 1202.26L886.417 1201.71L883.806 1204.16V1202.26Z" fill="#003653"/>
<path fill-rule="evenodd" clip-rule="evenodd" d="M546.15 1135.31L528.04 1266.74H563.05L558.916 1234.59V1234.92L552.572 1226.06L558.306 1229.84L557.723 1225.31L551.599 1218.53L557.204 1221.27L554.006 1196.4L549.03 1189.4L553.433 1191.95L551.522 1177.09L547.397 1172L550.951 1172.64L546.15 1135.31ZM544.322 1205.47C541.819 1206.78 536.679 1209.44 536.15 1209.66V1213.65L544.322 1205.47ZM536.812 1203.7L541.52 1202.61L536.812 1207.49V1203.7Z" fill="#003653"/>
<path fill-rule="evenodd" clip-rule="evenodd" d="M685.163 1124.59L667.053 1256.02H702.063L697.929 1223.87V1224.2L691.586 1215.34L697.319 1219.12L696.735 1214.59L690.612 1207.8L696.217 1210.55L693.018 1185.68L688.043 1178.68L692.446 1181.23L690.534 1166.36L686.411 1161.28L689.964 1161.92L685.163 1124.59ZM683.336 1194.75C680.832 1196.06 675.693 1198.72 675.163 1198.94V1202.93L683.336 1194.75ZM675.824 1192.98L680.533 1191.89L675.824 1196.77V1192.98Z" fill="#003653"/>
<path fill-rule="evenodd" clip-rule="evenodd" d="M727.512 1037.27L758.541 1256.02H698.556L705.641 1202.49V1203.06L716.509 1188.31L706.684 1194.61L707.683 1187.06L718.177 1175.77L708.572 1180.35L714.052 1138.95L722.578 1127.3L715.033 1131.54L718.308 1106.8L725.376 1098.34L719.286 1099.41L727.512 1037.27ZM730.644 1154.05C734.933 1156.22 743.739 1160.65 744.646 1161.02V1167.66L730.644 1154.05ZM743.513 1151.1L735.445 1149.29L743.513 1157.4V1151.1Z" fill="#003653"/>
<path fill-rule="evenodd" clip-rule="evenodd" d="M586.339 1121.24L568.229 1262.72H603.239L599.103 1228.1V1228.46L592.76 1218.93L598.494 1223L597.911 1218.12L591.786 1210.82L597.392 1213.78L594.194 1187L589.219 1179.47L593.622 1182.21L591.711 1166.21L587.585 1160.74L591.139 1161.43L586.339 1121.24ZM584.51 1196.77C582.007 1198.17 576.867 1201.04 576.338 1201.28V1205.57L584.51 1196.77ZM577 1194.86L581.709 1193.69L577 1198.94V1194.86Z" fill="#003653"/>
<path fill-rule="evenodd" clip-rule="evenodd" d="M633.768 976.967L674.173 1262.72H596.063L605.287 1192.81V1193.54L619.44 1174.27L606.648 1182.5L607.949 1172.64L621.612 1157.89L609.107 1163.87L616.243 1109.79L627.341 1094.58L617.519 1100.11L621.784 1067.8L630.986 1056.75L623.057 1058.14L633.768 976.967ZM637.845 1129.52C643.431 1132.35 654.898 1138.14 656.079 1138.63V1147.3L637.845 1129.52ZM654.603 1125.67L644.097 1123.3L654.603 1133.9V1125.67Z" fill="#003653"/>
<path fill-rule="evenodd" clip-rule="evenodd" d="M789.014 932.077L832.767 1256.02H748.184L758.174 1176.76V1177.59L773.499 1155.75L759.645 1165.08L761.054 1153.9L775.851 1137.18L762.308 1143.96L770.035 1082.65L782.056 1065.41L771.418 1071.68L776.035 1035.05L786.002 1022.52L777.415 1024.1L789.014 932.077ZM793.43 1105.02C799.479 1108.23 811.896 1114.79 813.174 1115.34V1125.17L793.43 1105.02ZM811.577 1100.65L800.2 1097.97L811.577 1109.98V1100.65Z" fill="#003653"/>
<path fill-rule="evenodd" clip-rule="evenodd" d="M436.147 1154.52L451.057 1262.72L425.602 1250.46L427.405 1234.05L430.86 1229.23L427.706 1231.31L428.195 1226.87L431.661 1223.03L428.443 1224.6L430.791 1203.25L433.775 1199.05L431.081 1200.61L432.467 1187.99L435.12 1184.72L432.78 1185.15L436.147 1154.52ZM437.651 1212.28C439.712 1213.35 443.943 1215.54 444.379 1215.73V1219.01L437.651 1212.28ZM443.835 1210.82L439.958 1209.93L443.835 1213.94V1210.82Z" fill="#003653"/>
<path fill-rule="evenodd" clip-rule="evenodd" d="M1885.63 1056.91L1897.99 1148.44H1874.09L1876.92 1126.04V1126.28L1881.25 1120.11L1877.33 1122.75L1877.73 1119.59L1881.91 1114.86L1878.08 1116.78L1880.27 1099.45L1883.66 1094.58L1880.66 1096.35L1881.96 1086L1884.78 1082.46L1882.35 1082.91L1885.63 1056.91ZM1886.88 1105.77C1888.59 1106.68 1892.1 1108.53 1892.46 1108.69V1111.47L1886.88 1105.77ZM1892.01 1104.54L1888.79 1103.78L1892.01 1107.18V1104.54Z" fill="#3D6B4F"/>
<path fill-rule="evenodd" clip-rule="evenodd" d="M1917.23 1037.99L1929.6 1129.52H1905.7L1917.23 1037.99Z" fill="#3D6B4F"/>
<path fill-rule="evenodd" clip-rule="evenodd" d="M1948.84 1024.01L1961.2 1115.55H1937.3L1940.12 1093.15V1093.39L1944.45 1087.21L1940.54 1089.85L1940.94 1086.69L1945.12 1081.97L1941.29 1083.88L1943.48 1066.56L1946.87 1061.69L1943.87 1063.46L1945.17 1053.11L1947.99 1049.57L1945.56 1050.02L1948.84 1024.01ZM1950.09 1072.88C1951.79 1073.79 1955.3 1075.64 1955.66 1075.8V1078.57L1950.09 1072.88ZM1955.21 1071.65L1952 1070.89L1955.21 1074.28V1071.65Z" fill="#3D6B4F"/>
<path fill-rule="evenodd" clip-rule="evenodd" d="M2058.69 971.338L2073.11 1078.14H2045.23L2048.52 1052.01V1052.28L2053.57 1045.08L2049 1048.16L2049.47 1044.47L2054.35 1038.96L2049.88 1041.19L2052.43 1020.98L2056.39 1015.3L2052.89 1017.36L2054.41 1005.29L2057.69 1001.16L2054.86 1001.68L2058.69 971.338ZM2060.14 1028.35C2062.14 1029.41 2066.23 1031.58 2066.65 1031.76V1035L2060.14 1028.35ZM2066.13 1026.91L2062.38 1026.03L2066.13 1029.99V1026.91Z" fill="#3D6B4F"/>
<path fill-rule="evenodd" clip-rule="evenodd" d="M2201.87 949.624L2216.3 1056.42H2188.41L2191.7 1030.28V1030.57L2196.76 1023.37L2192.19 1026.44L2192.65 1022.76L2197.53 1017.24L2193.07 1019.48L2195.61 999.268L2199.58 993.581L2196.07 995.65L2197.59 983.573L2200.88 979.441L2198.05 979.963L2201.87 949.624ZM2203.33 1006.64C2205.32 1007.7 2209.42 1009.86 2209.84 1010.04V1013.28L2203.33 1006.64ZM2209.31 1005.2L2205.56 1004.32L2209.31 1008.28V1005.2Z" fill="#3D6B4F"/>
<path fill-rule="evenodd" clip-rule="evenodd" d="M2238.78 861.047L2262.8 1024.82H2216.36L2221.84 984.748V985.169L2230.26 974.128L2222.65 978.846L2223.43 973.194L2231.55 964.742L2224.11 968.166L2228.36 937.172L2234.96 928.454L2229.12 931.626L2231.65 913.105L2237.12 906.771L2232.41 907.572L2238.78 861.047ZM2241.2 948.48C2244.52 950.103 2251.34 953.419 2252.04 953.7V958.669L2241.2 948.48ZM2251.16 946.272L2244.92 944.917L2251.16 950.99V946.272Z" fill="#3D6B4F"/>
<path fill-rule="evenodd" clip-rule="evenodd" d="M2288.25 942.959L2299.63 1020.52H2277.63L2280.23 1001.54V1001.74L2284.22 996.512L2280.61 998.747L2280.98 996.071L2284.83 992.067L2281.31 993.689L2283.31 979.01L2286.44 974.882L2283.67 976.384L2284.87 967.612L2287.47 964.613L2285.23 964.992L2288.25 942.959ZM2289.4 984.366C2290.97 985.134 2294.2 986.705 2294.53 986.838V989.191L2289.4 984.366ZM2294.12 983.32L2291.16 982.678L2294.12 985.554V983.32Z" fill="#3D6B4F"/>
<path fill-rule="evenodd" clip-rule="evenodd" d="M2310.04 904.046L2325.61 1010.2H2295.51L2299.06 984.223V984.499L2304.52 977.342L2299.59 980.4L2300.09 976.738L2305.36 971.258L2300.54 973.478L2303.29 953.389L2307.56 947.737L2303.78 949.794L2305.42 937.788L2308.97 933.683L2305.91 934.201L2310.04 904.046ZM2311.61 960.718C2313.76 961.769 2318.18 963.919 2318.64 964.101V967.322L2311.61 960.718ZM2318.07 959.286L2314.02 958.408L2318.07 962.344V959.286Z" fill="#3D6B4F"/>
<path fill-rule="evenodd" clip-rule="evenodd" d="M2392.64 912.86L2405.82 1002.67H2380.35L2383.36 980.701V980.929L2387.97 974.874L2383.8 977.461L2384.23 974.362L2388.68 969.727L2384.6 971.604L2386.93 954.608L2390.55 949.826L2387.35 951.566L2388.74 941.408L2391.74 937.935L2389.15 938.374L2392.64 912.86ZM2393.97 960.809C2395.8 961.699 2399.53 963.517 2399.92 963.671V966.396L2393.97 960.809ZM2399.44 959.597L2396.01 958.854L2399.44 962.185V959.597Z" fill="#3D6B4F"/>
<path fill-rule="evenodd" clip-rule="evenodd" d="M2432.55 817.833L2451.35 981.605H2415.01L2419.3 941.538V941.955L2425.89 930.913L2419.94 935.631L2420.54 929.979L2426.9 921.526L2421.08 924.95L2424.4 893.958L2429.56 885.239L2424.99 888.412L2426.98 869.889L2431.26 863.557L2427.57 864.357L2432.55 817.833ZM2434.45 905.265C2437.05 906.888 2442.38 910.204 2442.93 910.485V915.454L2434.45 905.265ZM2442.24 903.056L2437.36 901.701L2442.24 907.774V903.056Z" fill="#3D6B4F"/>
<path fill-rule="evenodd" clip-rule="evenodd" d="M2478.99 764.73L2497.79 981.606H2461.45L2465.74 928.544V929.099L2472.33 914.477L2466.38 920.726L2466.98 913.239L2473.34 902.047L2467.52 906.581L2470.84 865.539L2476 853.994L2471.43 858.195L2473.42 833.668L2477.7 825.281L2474.01 826.341L2478.99 764.73ZM2480.89 880.513C2483.49 882.662 2488.82 887.053 2489.37 887.425V894.005L2480.89 880.513ZM2488.68 877.589L2483.8 875.794L2488.68 883.836V877.589Z" fill="#3D6B4F"/>
<path fill-rule="evenodd" clip-rule="evenodd" d="M2112.39 836.968L2080.91 1070.4H2141.76L2134.57 1013.28V1013.88L2123.55 998.145L2133.51 1004.87L2132.5 996.816L2121.86 984.767L2131.6 989.648L2126.04 945.471L2117.39 933.045L2125.04 937.567L2121.72 911.168L2114.55 902.14L2120.73 903.281L2112.39 836.968ZM2109.21 961.589C2104.86 963.902 2095.93 968.628 2095.01 969.029V976.111L2109.21 961.589ZM2096.16 958.441L2104.34 956.509L2096.16 965.166V958.441Z" fill="#3D6B4F"/>
<path d="M378.269 1228.21C241.991 1201.14 67.0134 1065.66 -3.44043 1001.31V1799.92H2490.91V930.705C2294.81 994.131 1900.33 1121.57 1891.22 1123.91C1882.1 1126.26 1619.35 1194.42 1489.11 1228.21C1390.66 1180.16 1153.8 1102.47 993.908 1176.06C794.048 1268.05 548.617 1262.04 378.269 1228.21Z" fill="#316748"/>
<path d="M1246.81 1429.69C1086.96 1463.39 761.415 1533.2 737.972 1542.85C705.836 1551.6 632.196 1542.85 420.317 1498.25C250.814 1462.58 67.1858 1368.76 -3.44043 1326.31V1746.39H2495.42V1365.95L2344.87 1326.31C2281.58 1302.25 2148.75 1257.03 2123.74 1268.6C2092.47 1283.06 1974.93 1408.13 1935.82 1429.69C1896.71 1451.25 1822.31 1400.9 1751.83 1343.19C1681.35 1285.47 1630.48 1302.21 1569.8 1304.62C1521.26 1306.55 1334.25 1388.8 1246.81 1429.69Z" fill="#376D52"/>
<path d="M59.3044 1281.72L51.7528 1200.95C51.7528 1200.95 37.3007 1236.96 29.991 1250.4C22.6812 1263.84 0.00220656 1301.03 0.00220656 1301.03L-3.44043 1427.34C12.181 1411.31 45.0896 1376.6 51.7528 1365.93C58.416 1355.26 59.5635 1332.09 59.3044 1321.83L0.00220656 1373.24L59.3044 1281.72Z" fill="#01627A"/>
<path d="M259.134 1540.79C132.072 1573.2 33.9665 1637.44 -3.44043 1662.32V1789.79C65.2801 1793.22 238.554 1798.01 381.887 1789.79C561.052 1779.52 847.112 1536.88 856.192 1499.26C865.271 1461.64 828.954 1414.18 795.542 1396.1C762.13 1378.01 608.628 1335.33 556.937 1322.02C505.245 1308.71 507.182 1295.4 514.203 1281.94C519.82 1271.18 579.494 1256.43 608.628 1250.4H560.931C536.922 1254.88 483.406 1265.79 461.422 1273.55C433.942 1283.24 439.147 1322.02 450.163 1337.21C461.18 1352.4 618.918 1399.28 616.376 1433.57C613.834 1467.86 417.962 1500.27 259.134 1540.79Z" fill="#7B9593"/>
<path d="M777.961 1466.73C824.871 1471.73 988.813 1519.38 1084.69 1551.59V1792.83C750.706 1793.95 83.2161 1795.53 85.1149 1792.83C87.4884 1789.46 143.59 1736.31 177.25 1720.84C204.179 1708.47 275.787 1740.4 308.225 1757.91C309.16 1750.3 326.674 1730.95 358.285 1675.2C397.941 1605.26 464.23 1557.42 519.253 1530.46C574.275 1503.5 688.204 1558.03 690.469 1556.81C692.735 1555.58 731.052 1461.74 777.961 1466.73Z" fill="#EC8754"/>
<path d="M763.396 1476.84C776.343 1469.18 817.124 1484.5 833.739 1481.28C827.697 1473.62 769.33 1457.23 756.923 1460.14C744.516 1463.05 719.702 1492 683.128 1536.42C653.869 1571.96 477.963 1723.18 393.667 1794.36H513.638L576.212 1747.49C602.753 1724.05 660.041 1673.32 676.871 1657.88C697.909 1638.58 727.794 1594.78 735.669 1576.4C743.545 1558.02 740.309 1522.18 740.309 1505.94C740.309 1489.71 750.45 1484.5 763.396 1476.84Z" fill="#FEA56B"/>
<path d="M-45.3807 1742.17C-52.0832 1742.17 -74.9645 1615.26 -85.5674 1551.8V1811.06H205.111L268.018 1762C228.589 1747.05 152.599 1715.91 164.073 1710.96C175.546 1706.01 248.943 1729.7 284.207 1742.17L331.067 1672.4C289.461 1668.98 206.02 1665.43 205.111 1657.67C204.203 1649.91 304.229 1654.44 354.356 1657.67C366.047 1643.05 387.215 1614.9 378.354 1619.29C367.278 1624.77 298.407 1614.37 303.377 1613.81C307.353 1613.36 368.083 1603.87 397.951 1599.18L460.148 1486.99C439.652 1488.3 396.814 1490.14 389.43 1486.99C380.2 1483.05 477.898 1446.5 485.85 1437.36C493.802 1428.22 531.291 1303.51 525.185 1298.03C519.078 1292.54 384.007 1302.69 372.248 1303.51C360.489 1304.33 335.896 1405.72 331.067 1394.19C327.205 1384.97 324.914 1335.99 324.251 1312.65C309.029 1310.17 201.561 1350.14 149.73 1370.43V1563.33C150.535 1565.58 149.816 1568.73 140.5 1563.33C131.185 1557.93 126.016 1441.01 124.596 1383.23L81.5693 1405.72L90.0895 1584.56H81.5693L57.0029 1423.44L15.8223 1452.54C20.9344 1499.22 29.6817 1592.8 23.7744 1593.7C17.8671 1594.6 9.00616 1508.5 5.3141 1465.34C5.3141 1465.34 -8.7869 1465.34 -8.7869 1472.15C-8.7869 1478.96 7.92694 1597.38 20.6503 1643.61C36.5546 1701.4 31.939 1715.18 20.6503 1723.45C9.36173 1731.73 -13.4775 1566.75 -22.2343 1486.99C-37.0026 1498.84 -66.1131 1524.67 -64.409 1533.1C-62.279 1543.65 -37.0026 1742.17 -45.3807 1742.17Z" fill="#0C7896"/>
<path d="M228.192 1399.56C216.111 1397.65 212.526 1409.08 212.243 1415.03C206.598 1430.5 223.535 1510.24 230.592 1505.6C236.237 1501.88 246.07 1450.8 245.129 1434.3C244.188 1417.8 240.274 1401.47 228.192 1399.56Z" fill="#41785B"/>
<path d="M1974.41 1537.84C1977.86 1572.5 2039.2 1651.79 2069.22 1685.33H2097.88C2094.75 1685.33 2107.79 1630.61 2107.79 1598.9C2107.79 1567.19 2103.16 1552.79 2097.88 1534.83C2093.66 1520.47 2004.51 1470.16 1964.18 1452.49L1966.33 1514.95C1979.09 1514.09 2011.65 1537.88 2024.72 1549.88L1974.41 1537.84Z" fill="#01627A"/>
<path d="M631.915 1742.64C621.645 1743.32 578.446 1761.05 558.129 1769.83V1794.55H225.986C216.925 1787.88 197.831 1773.61 193.947 1769.83C189.093 1765.1 259.75 1717.81 269.351 1713.83C277.032 1710.65 282.188 1749.84 283.806 1769.83H299.016C295.529 1747.97 288.553 1703.3 288.553 1699.43C288.553 1695.56 314.802 1691.44 327.927 1689.87L343.137 1769.83H357.592C354.104 1746.36 348.25 1695.93 352.738 1681.91C358.347 1664.39 490.924 1633.98 477.332 1641.93C463.74 1649.89 462.661 1742.64 474.743 1742.64C484.408 1742.64 487.832 1675.5 488.335 1641.93L545.292 1629.14C537.813 1652.57 527.192 1699.43 536.771 1699.43C548.745 1699.43 569.672 1639.57 572.909 1629.14C576.145 1618.72 631.915 1616.35 619.078 1622.69C608.808 1627.77 603.077 1654.69 601.495 1667.51L641.516 1616.35C668.52 1615.03 722.163 1613.17 724.148 1616.35C726.629 1620.33 700.091 1680.3 693.727 1681.91C688.635 1683.2 631.556 1702.33 606.134 1712.44C606.134 1712.44 630.082 1712.33 644.645 1708.57C659.208 1704.81 680.89 1699.43 680.89 1699.43C668.844 1713.55 642.185 1741.95 631.915 1742.64Z" fill="#0D7997"/>
<path d="M-5.58984 748.498L2495.53 1023.04L2495.53 1418.52L-5.58984 748.498Z" fill="url(#paint1_linear)"/>
<path d="M2396.78 1461.87C2383.53 1472.72 2337.01 1590.5 2315.41 1648.04L2615.22 1719.67L2659.96 1400.75C2644.18 1404.19 2609.94 1409.32 2599.18 1402.39C2588.43 1395.45 2637.88 1379.41 2663.96 1372.26L2669.27 1334.36C2659.85 1338.86 2639.9 1347 2635.44 1343.66C2630.98 1340.32 2657.69 1325.02 2671.6 1317.79L2682.9 1237.26L2634.43 1255.64C2623.62 1281.34 2601.28 1332.15 2598.34 1329.84C2595.4 1327.54 2610.43 1286.3 2618.32 1265.97C2607.6 1275.57 2585.08 1296.27 2580.7 1302.25C2575.23 1309.73 2548.6 1374.63 2544.9 1375.05C2541.94 1375.38 2542.72 1333.05 2544.25 1312.21C2538.47 1313.39 2465.54 1369.97 2465.54 1369.97C2465.54 1369.97 2463.92 1390.53 2462.15 1419.46C2459.94 1455.63 2457.45 1467.85 2450.56 1466.89C2445.04 1466.12 2436.13 1425.25 2433.55 1403.84L2412.1 1437.43C2414.05 1446.56 2418.87 1468.43 2422.47 1482.86C2426.96 1500.9 2427.02 1519.04 2419.89 1524.74C2414.18 1529.3 2400.91 1485.42 2396.78 1461.87Z" fill="#01627A"/>
<path d="M2128.95 1510.21C2114.59 1522.17 2063.97 1651.73 2040.46 1715.01L2364.59 1793L2413.78 1442.4C2396.7 1446.21 2359.64 1451.94 2348.03 1444.34C2336.41 1436.74 2389.95 1418.99 2418.17 1411.07L2424.01 1369.41C2413.81 1374.37 2392.21 1383.37 2387.39 1379.71C2382.58 1376.05 2411.5 1359.17 2426.57 1351.19L2438.99 1262.65L2386.52 1282.98C2374.77 1311.25 2350.47 1367.14 2347.3 1364.62C2344.13 1362.09 2360.49 1316.73 2369.07 1294.37C2357.45 1304.95 2333.03 1327.75 2328.28 1334.33C2322.34 1342.57 2293.38 1413.96 2289.37 1414.43C2286.17 1414.8 2287.12 1368.28 2288.84 1345.38C2282.57 1346.68 2203.55 1409.04 2203.55 1409.04C2203.55 1409.04 2201.75 1431.65 2199.76 1463.45C2197.28 1503.2 2194.55 1516.63 2187.1 1515.6C2181.14 1514.76 2171.6 1469.87 2168.86 1446.34L2145.57 1483.31C2147.67 1493.34 2152.82 1517.37 2156.67 1533.22C2161.49 1553.03 2161.51 1572.97 2153.78 1579.25C2147.6 1584.28 2133.35 1536.09 2128.95 1510.21Z" fill="#0D7997"/>
<g style="mix-blend-mode:luminosity">
<ellipse rx="44.2476" ry="11.7774" transform="matrix(0.994364 0.106317 -0.117243 0.993081 2345.84 1499.64)" fill="#01627A"/>
</g>
<g style="mix-blend-mode:luminosity">
<ellipse rx="44.2449" ry="13.1955" transform="matrix(0.986678 0.162533 -0.155802 0.987806 2333.23 1556.14)" fill="#01627A"/>
</g>
<g style="mix-blend-mode:luminosity">
<ellipse rx="59.6281" ry="10.1778" transform="matrix(0.949217 0.314062 -0.261247 0.965399 2300.38 1621.65)" fill="#01627A"/>
</g>
<path d="M1803.08 1500.46C1774.08 1491.39 1689.71 1524.94 1651.15 1542.84L1665.93 1753.39L2211.42 1761.22C2211.13 1755.25 2204.86 1733.69 2182.07 1695.19C2153.58 1647.07 2084.51 1616.89 2058.94 1624.96C2033.36 1633.04 2051.71 1639.44 2007.36 1632.2C1963.02 1624.97 1943.49 1604.22 1928.38 1588.19L1928.37 1588.17C1862.87 1521.86 1839.34 1511.79 1803.08 1500.46Z" fill="#F3824B"/>
<path d="M631.593 1761.25C600.198 1761.86 557.634 1783.7 540.276 1794.55H687.331L724.31 1773.64C706.485 1769.26 662.987 1760.65 631.593 1761.25Z" fill="#01627A"/>
<path d="M1835.47 1688.21C1860.5 1694.69 1997.3 1744.29 2064.73 1746.6C2127.85 1748.77 2189.07 1785.38 2203.9 1792.89C2104.07 1793.27 1897.4 1816.32 1901.39 1792.04C1905.38 1767.76 1846.94 1775.05 1828.13 1779.79C1829.97 1765.57 1839.14 1734.09 1835.47 1716.89C1831.8 1699.68 1808.1 1684.17 1794.47 1681.74C1800.73 1681.74 1810.44 1681.74 1835.47 1688.21Z" fill="#C54325"/>
<path d="M1673.1 1759.32C1686.46 1748.2 1757.54 1700.2 1794.15 1680.81C1818.75 1684.98 1834.82 1708.68 1836.98 1717.12C1838.71 1723.87 1833.92 1760.13 1830.72 1776.9C1842.48 1773.89 1868.16 1773.47 1885.85 1776.9C1903.55 1780.32 1920.27 1800.02 1903.33 1800.02H1651.2L1658.43 1776.9C1659.58 1777.82 1659.74 1770.44 1673.1 1759.32Z" fill="#EA6530"/>
<path d="M2130.09 1757.24L1747.56 1541.49C1743.01 1538.93 1741.65 1533 1744.63 1528.71C1747.22 1524.98 1752.2 1523.81 1756.18 1525.99L2141.31 1737.05C2148.39 1740.93 2149.41 1750.69 2143.29 1755.94C2139.6 1759.11 2134.32 1759.63 2130.09 1757.24Z" fill="#EF6F34"/>
<path d="M2148.13 1736.56C2121.59 1740.73 2069.48 1793.37 2064.19 1794.44H2484.84C2489.44 1757.99 2495.89 1681.72 2484.84 1668.23C2473.79 1654.73 2364.8 1640.18 2311.68 1634.59C2306 1636.69 2287.21 1646.36 2257.52 1668.23C2220.41 1695.56 2230.98 1707.2 2226.67 1718.73C2222.35 1730.26 2174.67 1732.4 2148.13 1736.56Z" fill="#FDA46A"/>
<path d="M2349.55 1675.05C2348.6 1664.63 2321.46 1644.95 2310.82 1635.02C2324.97 1630.07 2438.77 1651.6 2491.1 1664.38V1794.65C2469.02 1795.76 2431.11 1789.88 2424.86 1783.01C2418.6 1776.14 2405.08 1752.15 2395.19 1742.33C2390.05 1745.32 2377.9 1759.97 2370.16 1755.25C2362.41 1750.52 2330.99 1759.08 2333.58 1746.81C2336.17 1734.54 2350.74 1688.08 2349.55 1675.05Z" fill="#EB6933"/>
<path d="M787.035 1755.34C742.5 1747.66 702.731 1777.95 688.414 1794.05L1718.02 1804.87C1719.4 1795.11 1716.39 1753.55 1693.37 1665.29C1664.59 1554.97 1609.25 1484.12 1572.88 1434.6C1536.51 1385.07 1499.7 1392.24 1428.85 1385.07C1358.01 1377.91 1280.7 1396.96 1263.18 1401.07C1245.67 1405.19 1203.39 1437.03 1196.36 1441C1189.33 1444.96 1155.41 1437.8 1131.99 1448.16C1108.56 1458.52 1092.16 1477.72 1068.17 1494.63C1044.19 1511.54 1005.47 1572.95 1000.79 1587.43C997.04 1599.01 1002.35 1629.03 1005.47 1642.59C1000.19 1652.69 985.661 1676.44 969.775 1690.58C949.916 1708.26 920.018 1704.15 902.391 1708.11C888.289 1711.28 870.41 1740.92 863.232 1755.34C856.39 1758.54 831.571 1763.02 787.035 1755.34Z" fill="#FA9B61"/>
<path d="M1573.94 1549.07C1609.73 1530.51 1608 1489.79 1604.59 1481.3C1601.19 1472.81 1613.62 1483.86 1652.04 1552.56C1690.47 1621.25 1724.45 1800.94 1717.65 1800.94C1710.84 1800.94 1620.36 1802.92 1620.36 1802.92L1584.76 1769.86C1572.45 1769.61 1538.35 1764.37 1500.42 1745.44C1453 1721.79 1462.26 1705.41 1460.7 1689.19C1459.45 1676.21 1479.74 1664.06 1490.04 1659.62C1510.53 1647.23 1527.33 1622.46 1430.57 1622.46C1309.63 1622.46 1222.6 1615.19 1235.77 1608.06C1248.93 1600.93 1529.2 1572.27 1573.94 1549.07Z" fill="#D9552A"/>
<path d="M1354.41 1739.38C1387.08 1716.04 1522.79 1626.22 1503 1649.3C1483.22 1672.38 1465.75 1687.88 1475.57 1716.74C1483.42 1739.82 1555.97 1759.41 1591.26 1766.32L1624.62 1802.92C1486.09 1804.09 1218.24 1800.53 1244.74 1797.73C1277.62 1794.25 1313.02 1768.95 1353.46 1740.06L1354.41 1739.38Z" fill="#F07841"/>
<path d="M1374.86 620.212C1456.76 572.505 1509.89 464.201 1526.22 416.012C1565.01 445.064 1650.5 509.563 1682.14 535.14C1721.69 567.111 1405.13 684.016 1340.02 681.93L1339.78 681.923C1274.91 679.845 1272.61 679.772 1374.86 620.212Z" fill="#A2BAB7"/>
<path d="M1025.19 217.801C1015.95 215.974 1004.88 215.329 1000.58 214.684C1000.58 221.456 1025.19 228.229 1031.32 227.046C1037.45 225.864 1052.93 203.612 1049.81 204.257C1046.69 204.902 1034.44 219.629 1025.19 217.801Z" fill="#70B4C2"/>
<path d="M754.453 152.994C745.64 159.95 734.338 166.931 730.139 169.988C726.865 164.06 749.411 143.867 756.41 141.351C763.409 138.835 795.954 154.714 792.372 155.956C788.79 157.198 763.267 146.037 754.453 152.994Z" fill="#70B4C2"/>
<path d="M401.158 197.403C392.741 196.116 382.674 195.744 378.76 195.301C378.821 200.436 401.251 205.31 406.808 204.348C412.366 203.387 427.882 180.729 425.055 181.251C422.228 181.773 409.575 198.691 401.158 197.403Z" fill="#70B4C2"/>
<path d="M1469.98 327.495C1497.01 289.815 1450.63 245.266 1424.06 227.702C1427.12 226.77 1434.52 226.648 1439.6 233.617C1444.67 240.585 1523.26 312.154 1561.92 347.067C1561.13 370.366 1555.19 419.503 1537.77 429.654C1516.01 442.344 1334.61 484.713 1320.1 474.389C1305.59 464.066 1436.19 374.596 1469.98 327.495Z" fill="#8CB4AF"/>
<path d="M2468.23 1748.22C2456.53 1742.28 2415.12 1741.87 2395.88 1742.41L2409.53 1787.77H2433.5H2485.75V1762.83C2484.78 1760.43 2479.92 1754.15 2468.23 1748.22Z" fill="#C54325"/>
<path d="M1039.38 545.222L-49.0186 451.916V618.75L1039.38 545.222Z" fill="#EFF9F2" fill-opacity="0.6"/>
<path d="M177.584 445.143C194.697 443.853 64.0315 428.194 -3.44043 420.526V435.253C49.7703 439.087 160.47 446.433 177.584 445.143Z" fill="#EFF9F2"/>
<path d="M552.746 673.143L2550.46 624.77V882.546L552.746 673.143Z" fill="url(#paint2_linear)"/>
<path d="M1133.44 496.311L2524.34 560.809V365.058L1755.85 321.629L1737.89 416.226L1133.44 496.311Z" fill="url(#paint3_linear)"/>
<g style="mix-blend-mode:multiply" opacity="0.5">
<path d="M1464.32 243.598L2541 287.016V159.095L1464.32 243.598Z" fill="url(#paint4_linear)"/>
</g>
<path d="M1434.2 261.995V392.19V401.955H1687.97C1688.76 369.782 1689.23 313.222 1687.97 290.913C1686.71 268.605 1673.02 261.995 1666.16 261.995H1434.2Z" fill="#5D2E24"/>
<path d="M1532.13 1224.41C1540.67 1201.97 1560.56 1152.57 1566.63 1131.43C1562.66 1124.12 1524.98 1107.53 1505.93 1103.05L1472.08 1164.53L1455.91 1293.32L1498.93 1355.88L1505.93 1312.34C1511.11 1292.38 1523.59 1246.86 1532.13 1224.41Z" fill="#BB4A36"/>
<path d="M1806.46 617.27C1771.03 602.135 1763.49 577.604 1764.43 568.897L1701.71 592.468C1708.31 602.179 1724.97 625.72 1739.16 639.737C1756.9 657.259 1815.92 673.384 1852.04 681.016C1880.93 687.122 1921.19 683.56 1937.71 681.016L1948.03 649.627C1949.32 642.568 1951.9 627.246 1951.9 622.43C1951.9 616.41 1960.82 612.541 1963.72 607.166C1966.05 602.866 1964.69 595.986 1963.72 593.084C1963.72 593.084 1960.71 591.686 1957.7 593.084C1954.69 594.481 1946.74 604.908 1937.71 617.27C1930.49 627.16 1926.32 642.962 1925.13 649.627H1910.08C1879.34 647.154 1850.75 636.19 1806.46 617.27Z" fill="#F0875E"/>
<path d="M1345.51 689.938C1353.34 675.662 1362.53 627.268 1365.94 608.993L1428.93 617.27C1428.03 618.919 1425.92 624.365 1424.63 632.965C1423.34 641.565 1363.39 784.392 1333.58 854.73L1323.8 846.023C1317.85 848.388 1305.72 851.699 1304.77 846.023C1303.82 840.347 1331.54 739.601 1345.51 689.938Z" fill="#F0875E"/>
<path d="M1280.15 910.413C1278.69 895.45 1296.1 861.61 1304.99 846.561H1328.1C1331.21 849.212 1335.15 856.837 1341.86 866.125C1350.24 877.735 1349.81 900.631 1348.52 913.101C1347.23 925.57 1336.22 958.726 1328.1 953.949C1319.97 949.173 1338.11 942.804 1328.1 926.277C1318.09 909.75 1308.53 908.801 1308.53 913.101C1308.53 918.476 1298.77 934.79 1298.34 947.689C1297.91 960.589 1304.99 973.836 1308.53 979.641C1312.08 985.446 1308.53 992.946 1304.99 992.541C1301.44 992.136 1297.89 995.658 1289.51 973.836C1281.12 952.015 1281.98 929.118 1280.15 910.413Z" fill="#F0875E"/>
<path d="M1405.6 1268.7C1403.62 1264.31 1408.15 1259.85 1410.65 1258.16L1461.5 1268.7V1271.6C1460.39 1271.85 1458.17 1273.58 1458.17 1278.48V1297.08L1415.71 1300.63L1418.18 1332.44V1342.28C1419.13 1342.66 1419.33 1342.87 1418.18 1342.87V1342.28C1415.57 1341.23 1407.3 1338.94 1405.6 1336.42C1403.28 1332.98 1408 1326.25 1410.65 1323.2V1284.29C1410.65 1269.77 1408.07 1274.18 1405.6 1268.7Z" fill="white"/>
<path d="M1399.37 1319.22C1401.95 1312.86 1408.68 1313.13 1411.73 1314.06V1321.7C1409.69 1324.38 1405.67 1330.77 1405.92 1334.81C1406.25 1339.86 1411.73 1339.86 1415.71 1339.54C1418.89 1339.28 1417.03 1312.77 1415.71 1299.55L1457.52 1296.65L1502.13 1360.18H1504.28C1514.82 1358.67 1547.17 1360.61 1553.62 1364.16C1558.78 1366.99 1559.93 1375.3 1559.86 1379.1C1557.57 1377.16 1549.63 1372.78 1536.21 1370.71C1519.44 1368.13 1525.68 1375.12 1503.53 1375.55C1485.82 1375.89 1463.69 1377.31 1457.52 1379.1C1436.09 1379.56 1392.81 1379.79 1391.09 1376.95C1388.94 1373.4 1396.14 1327.18 1399.37 1319.22Z" fill="#2C5589"/>
<path d="M1445.81 1322.45L1429.57 1329.01C1427.42 1329.87 1429.57 1334.38 1431.72 1334.06C1433.87 1333.73 1452.79 1325.67 1456.34 1325.67H1480.31C1487.94 1325.67 1488.7 1325.67 1497.08 1322.45C1505.47 1319.22 1510.09 1316.32 1507.94 1311.91C1505.79 1307.51 1502.89 1306.11 1486.87 1303.96C1470.85 1301.81 1455.7 1319.87 1452.79 1318.47C1449.89 1317.07 1460.75 1303.21 1464.4 1295.57C1467.33 1289.47 1473.58 1290.16 1476.34 1291.27C1476.94 1289.55 1475.91 1286.41 1466.88 1287.62C1457.85 1288.82 1449.07 1311.34 1445.81 1322.45Z" fill="#4385F5"/>
<path d="M1486.12 1309.01C1480.01 1308.41 1469.1 1315.07 1464.4 1318.47C1464.4 1321.05 1477.09 1321.37 1486.12 1320.94C1495.15 1320.51 1501.38 1315.57 1501.38 1312.67C1501.38 1309.76 1493.75 1309.76 1486.12 1309.01Z" fill="#BB4A36"/>
<path d="M1467.31 1334.81C1464.47 1334.81 1446.27 1341.55 1437.53 1344.91C1433.23 1346.55 1437.53 1348.57 1441.83 1348.25C1446.13 1347.92 1447.31 1347.49 1449.89 1344.91C1452.47 1342.33 1467.31 1341.37 1477.09 1340.94C1484.91 1340.59 1489.16 1341.76 1491.28 1344.81C1493.39 1347.85 1488.35 1338.42 1485.69 1336.96C1482.36 1335.13 1470.85 1334.81 1467.31 1334.81Z" fill="#4385F5"/>
<path d="M1475.26 1349.64C1468.3 1350.25 1453.94 1355.99 1447.63 1358.78C1446.92 1359.86 1445.91 1362.37 1447.63 1363.83C1449.78 1365.66 1455.27 1363.08 1461.82 1358.78C1468.38 1354.48 1478.92 1354.8 1486.12 1354.37C1491.88 1354.03 1498.55 1356.63 1500.52 1358.24C1499.55 1355.2 1495.9 1349.64 1494.18 1349.64C1492.03 1349.64 1483.97 1348.89 1475.26 1349.64Z" fill="#4385F5"/>
<path d="M1390.66 1389.53V1378.45H1459.35C1461.5 1378.45 1514.39 1371.79 1529.01 1369.1C1540.7 1366.95 1554.02 1374.44 1559.21 1378.45V1395.33C1557.6 1394.29 1550.92 1391.68 1537.07 1389.53C1523.22 1387.38 1433.69 1388.63 1390.66 1389.53Z" fill="white"/>
<path d="M1384.32 488.92C1394.12 455.811 1432.33 408.835 1450.21 389.486C1484 371.857 1555.3 336.469 1570.18 335.953C1585.06 335.437 1602.89 346.344 1609.95 351.862C1621.85 344.767 1654.39 338.533 1689.39 370.352C1733.14 410.125 1784.74 541.271 1786.79 548.581C1788.42 554.429 1774.21 564.275 1766.9 568.468L1697.99 594.267L1689.39 575.025C1688.28 576.566 1685.14 590.418 1681.44 633.503C1676.82 687.359 1650.26 824.739 1638.44 855.913C1626.62 887.087 1625.76 890.419 1612.53 896.977C1599.31 903.534 1551.58 864.513 1503.96 824.739C1456.34 784.965 1458.17 780.451 1419.79 777.763C1389.09 775.613 1374.75 795.858 1371.42 806.25H1363.46C1364.15 804.243 1365.76 798.919 1366.8 793.673C1367.83 788.427 1373.39 786.184 1376.04 785.718C1374.07 783.496 1371.31 778 1376.04 773.786C1380.77 769.572 1415.35 687.251 1432.05 646.618H1434.2V633.503H1438.82L1437.96 627.806C1438.93 626.731 1440.95 624.108 1441.29 622.216C1441.64 620.324 1439.21 609.818 1437.96 604.801C1437.35 606.665 1435.1 611.617 1430.97 616.519C1425.81 622.646 1359.81 618.453 1356.05 610.391C1352.28 602.329 1372.06 530.306 1384.32 488.92Z" fill="#4370B3"/>
<circle cx="1561.47" cy="466.023" r="5.58982" fill="#0B3C6D"/>
<circle cx="1565.56" cy="493.758" r="5.58982" fill="#0B3C6D"/>
<path d="M1583.64 458.068C1583.64 458.068 1562.13 437.057 1553.95 429.957C1551.98 400.008 1552.12 339.374 1568.47 336.433C1588.91 332.757 1610 351.354 1610 351.354C1610 351.354 1613.98 353.444 1616.24 360.22C1618.5 366.995 1617.38 372.805 1612.9 398.602C1608.43 424.4 1583.64 458.068 1583.64 458.068Z" fill="#2C5589"/>
<path d="M1529.98 458.498C1507.1 447.835 1482.39 422.021 1476.12 413.242L1514.5 401.848C1529.8 410.842 1558.98 429.066 1553.3 430.012C1547.63 430.958 1541.33 451.619 1538.9 461.831L1529.98 458.498Z" fill="#2C5589"/>
<path d="M1575.11 826.352C1610.88 828.312 1647.26 709.002 1657.88 701.923C1668.5 694.843 1671.76 692.393 1670.95 701.923C1670.13 711.452 1651.45 818.129 1641 848.406C1627.93 886.252 1620.58 895.237 1611.05 896.598C1601.52 897.96 1508.67 826.882 1508.94 825.521C1509.22 824.16 1539.33 824.392 1575.11 826.352Z" fill="url(#paint5_linear)"/>
<path d="M1392.06 921.163C1369.01 868.791 1365.11 822.445 1366.04 805.819C1366.04 805.819 1392.06 757.983 1432.91 762.606C1471.19 766.938 1501.35 818.384 1504.99 824.829C1502.38 818.168 1573.38 870.738 1610.17 898.589C1611.57 928.616 1611.26 1002.88 1598.88 1059.73C1586.5 1116.57 1581.11 1142.53 1579.96 1148.41C1571.72 1139.99 1548.49 1121.45 1521.48 1114.66C1509.73 1111.7 1503.32 1110.33 1500.16 1109.87L1499.66 1111.11C1497.42 1110.18 1496.05 1109.26 1500.16 1109.87L1542.66 1002.75C1542.19 987.404 1540.55 956.629 1537.72 956.314C1535.14 955.383 1521.53 955.497 1487.73 963.409C1445.48 973.299 1431.51 1023.82 1432.91 1014.04C1434.3 1004.26 1420.87 986.628 1392.06 921.163Z" fill="#4C5346"/>
<path d="M1705.78 414.319C1705.51 413.417 1705.24 412.536 1704.98 411.678C1705.3 412.182 1705.56 413.081 1705.78 414.319C1716.69 449.789 1741.62 518.467 1760.52 529.301C1779.91 540.409 1786.3 547.089 1786.93 549.177C1787.57 551.264 1780.35 562.191 1767.06 568.236C1753.77 574.28 1698.17 594.102 1698.17 594.102C1698.17 594.102 1687.83 576.404 1689.46 570.414C1691.09 564.424 1704.98 524.019 1704.98 509.425C1704.98 492.589 1708.46 429.14 1705.78 414.319Z" fill="#27578D" fill-opacity="0.4"/>
<path d="M1638.12 382.944C1636.83 382.514 1613.47 352.22 1616.19 349.066C1618.91 345.913 1629.52 342.079 1655.64 349.066C1681.76 356.054 1688.96 369.384 1700.47 381.531C1711.97 393.678 1713.04 463.674 1709.82 501.943C1707.24 532.558 1694.37 564.418 1689.61 575.562C1688.93 559.079 1689.29 521.658 1685.42 511.51C1680.58 498.826 1671.12 484.421 1668.43 472.704C1666.28 463.33 1665.39 456.759 1665.21 454.645L1658.33 458.407L1661.01 463.674L1638.12 484.421L1622.21 468.942L1638.12 451.42V440.347C1631.24 428.2 1639.73 383.482 1638.12 382.944Z" fill="#673325"/>
<path d="M1401.08 566.875C1402.04 536.38 1423.21 483.741 1428.89 462.866C1430.39 467.586 1432.48 482.361 1428.89 496.084C1425.31 509.806 1440.11 582.848 1441.96 590.563C1443.81 598.277 1432.16 617.518 1427.81 618.335C1423.45 619.152 1422.98 619.152 1415.21 619.152H1401.15C1400.75 615.158 1400.12 597.37 1401.08 566.875Z" fill="#2C5589" fill-opacity="0.6"/>
<path d="M1664.54 433.882L1654.86 442.911C1653.14 442.911 1650.35 440.116 1648.09 424.529C1646.28 412.06 1648.84 404.284 1650.35 401.955L1664.54 433.882Z" fill="#4370B3"/>
<path d="M1455.05 395.72L1434.2 361.321L1433.12 395.72H1455.05Z" fill="#BB4A36"/>
<path d="M1433.12 411.845V395.935H1468.16L1472.03 411.845H1433.12Z" fill="#4C2623"/>
<path d="M1427.44 470.646C1434.63 417.822 1426.94 413.852 1434.09 408.19C1441.24 402.529 1454.53 395.721 1454.53 395.721L1482.69 419.585C1484.81 425.426 1489.04 439.128 1489.04 447.212C1489.04 455.295 1495.77 476.451 1499.14 486.018L1504.41 481.825L1526.77 497.197L1509.78 517.407L1489.04 504.077V497.197L1470.44 490.318L1470.43 490.498C1470.07 497.331 1469.68 504.94 1470.44 517.407C1471.21 529.984 1456.14 551.913 1448.08 567.823C1441.63 580.55 1441.16 605.733 1441.74 616.733C1438.91 612.649 1432.08 598.631 1427.44 575.24C1421.64 546.001 1420.25 523.47 1427.44 470.646Z" fill="#673325"/>
<path d="M1478.48 310.906C1471.95 303.424 1458.92 280.771 1453.22 270.379C1433.01 296.781 1418.43 303.094 1413.66 302.951C1414.06 305.602 1415.23 312.69 1416.78 319.828C1418.72 328.75 1429.79 356.807 1447.2 384.218C1464.62 411.63 1470.32 412.382 1485.69 416.575C1501.06 420.767 1514.07 398.945 1514.07 402.815C1514.07 405.911 1539.58 422.021 1552.33 429.689L1554.81 427.324C1557.85 422.021 1566.46 407.416 1576.52 391.42C1589.1 371.426 1596.52 360.784 1591.57 360.354C1586.63 359.924 1574.05 348.099 1563.94 329.932C1553.84 311.766 1547.82 302.091 1533.52 302.951C1519.23 303.811 1516.65 304.778 1514.07 310.906C1511.49 317.033 1509.95 325.597 1511.38 327.997H1507.08C1488.05 325.955 1486.65 320.258 1478.48 310.906Z" fill="#F0875E"/>
<circle cx="1531.91" cy="324.236" r="8.70721" fill="#BB4A36"/>
<path d="M1484.75 483.01L1473.03 479.14C1472.28 462.514 1471.23 429.348 1473.03 429.692C1474.84 430.036 1481.6 465.381 1484.75 483.01Z" fill="#4370B3"/>
<path d="M1986.03 628.846C1984.57 605.885 1979.33 602.151 1976.9 603.155C1973.89 602.163 1963.24 596.705 1963.24 594.448C1963.24 592.19 1965.93 591.975 1967.11 591.545C1968.3 591.115 1975.39 591.223 1979.91 594.448C1984.42 597.672 1989.47 609.39 1990.66 620.247C1991.84 631.104 1987.11 659.59 1986.03 664.535C1984.96 669.48 1974.75 691.409 1968.3 692.162C1963.14 692.764 1953.41 694.274 1951.36 694.453C1949.75 691.801 1948.31 685.402 1953.73 686.606C1959.15 687.81 1970.02 683.49 1972.81 680.982C1977.83 673.171 1987.5 651.808 1986.03 628.846Z" fill="#C05E4C"/>
<rect x="1958.51" y="591.364" width="19.1753" height="114.247" rx="9.58764" transform="rotate(14.0204 1958.51 591.364)" fill="#673325"/>
<path d="M1936.76 698.86L1944.84 700.781L1748.1 1528.44C1747.57 1530.67 1745.33 1532.05 1743.1 1531.52C1740.87 1530.99 1739.49 1528.75 1740.02 1526.52L1936.76 698.86Z" fill="#673325"/>
<path d="M1966.84 638.34C1969.08 637.91 1976.23 629.704 1979.53 625.655L1968.78 629.955C1967.2 632.929 1964.61 638.77 1966.84 638.34Z" fill="#BB4A36"/>
<path d="M1961.47 622.108C1962.33 618.668 1972 615.873 1976.73 614.905C1977.77 614.905 1980.34 615.249 1982.32 616.625C1984.3 618.001 1983.79 621.355 1983.29 622.86C1981.1 624.616 1975.18 628.428 1968.99 629.632C1961.25 631.137 1960.39 626.407 1961.47 622.108Z" fill="#F0875E"/>
<path d="M1983.72 632.319C1981.05 631.115 1963.83 639.342 1955.55 643.606C1955.55 645.935 1954.69 651.884 1951.25 657.043C1946.95 663.493 1950.39 668.976 1958.67 676.178C1966.95 683.38 1976.3 676.93 1976.3 672.093C1976.3 667.256 1971.57 664.568 1976.3 663.816C1981.03 663.063 1985.01 657.903 1985.01 654.249C1985.01 651.325 1979.2 649.375 1976.3 648.766C1981.71 647.906 1992.17 644.703 1990.7 638.769C1988.88 631.352 1987.05 633.824 1983.72 632.319Z" fill="#F0875E"/>
<path d="M1528.26 381.208C1528.77 393.334 1534.27 412.059 1536.96 419.907C1530.26 415.249 1516.28 405.588 1513.96 404.212C1511.64 402.836 1522.52 373.755 1528.26 359.386C1528.04 361.608 1527.74 369.082 1528.26 381.208Z" fill="#BB4A36"/>
<path d="M1453.65 271.885C1452.79 285.386 1428.89 310.655 1417.32 321.548L1415.38 312.519L1413.77 302.951C1427.32 286.97 1454.51 258.383 1453.65 271.885Z" fill="#BB4A36"/>
<path d="M1413.45 302.9C1401.37 304.832 1392.06 297.806 1382 292.274C1380.84 291.635 1380.95 290.081 1378.15 289.787C1375.35 289.494 1377.01 288.662 1378.15 288.662H1381.66C1382.74 288.662 1385.17 288.924 1386.39 289.07C1384.78 288.734 1383.85 287.509 1383.07 286.045C1381.76 283.558 1380.22 281.397 1378.62 279.083C1374.48 273.054 1372.59 266.742 1372.97 259.454C1373.02 258.441 1372.97 255.319 1374.96 261.757C1376.95 268.195 1375.05 263.062 1381.66 274.163C1388.27 285.263 1384.92 277.132 1386.42 279.502C1387.12 280.601 1387.39 281.219 1386.66 279.633C1385.76 277.677 1386.25 275.257 1385.93 273.168C1385.4 269.804 1385.36 265.904 1385.72 262.516C1385.99 259.895 1387.57 257.829 1388.15 255.319C1388.6 253.384 1390.54 250.632 1392.03 249.456C1394.9 247.176 1396.45 243.121 1399.8 241.447C1403.6 239.544 1409.44 238.052 1413.49 237.521C1410.43 233.596 1416.35 237.521 1417.96 240.819C1417.96 237.521 1420.18 239.211 1419.85 237.521C1419.64 236.482 1420.05 234.051 1418.9 233.543C1416.9 232.65 1415.05 229.349 1414.19 227.445C1412.02 222.615 1411.31 216.665 1411.65 211.375C1411.92 207.358 1412.29 203.265 1413.49 199.414C1413.97 197.851 1413.85 194.994 1414.9 193.761C1416.59 191.776 1416.65 188.755 1418.88 187.009C1422.44 184.218 1426 181.943 1431.02 180.57C1436.04 179.197 1436.31 177.933 1444.42 177.933C1452.53 177.933 1454.81 177.634 1457.3 177.933C1462.95 178.61 1465.16 178.675 1471.6 179.838C1478.05 181 1466.88 178.66 1482.14 183.093C1497.4 187.525 1490.74 187.009 1490.74 187.009C1490.74 187.009 1491.42 189.204 1493.36 190.228C1499.23 190.228 1502.03 190.228 1496.82 192.557C1503.53 193.761 1504.22 195.855 1508.75 195.855C1514.59 195.855 1521.43 196.834 1526.94 194.703C1530.9 193.175 1534.67 190.841 1537.86 188.056C1538.89 187.156 1546.21 187.009 1543.9 187.925C1541.6 188.841 1541.11 196.323 1538.51 198.917C1538.08 199.351 1536.27 200.441 1537.12 201.299C1538.5 202.672 1542.59 203.378 1544.45 203.864C1548.83 205.004 1552.03 207.365 1555.86 209.726C1564.31 214.926 1570.62 229.67 1570.94 236.474C1571.25 243.279 1569.01 240.574 1568.69 241.447V233.124C1567.33 228.243 1563.93 224.049 1560.52 220.431C1557.92 217.666 1553.69 217.047 1549.97 216.61C1547.9 216.366 1550.47 218.079 1551.02 218.756C1553.84 222.231 1555.62 226.335 1557.38 230.402C1559.47 235.239 1562.03 240.35 1563.19 245.53C1564.06 249.381 1563.37 254.3 1563.3 258.25L1563.29 258.626C1563.11 268.473 1562.93 278.441 1561.52 288.191C1560.53 295.003 1558.09 301.668 1557.67 308.605C1557.59 309.933 1557.91 312.061 1557.41 314.599C1556.9 317.137 1556.87 318.796 1555.44 316.588C1553.43 313.474 1551.82 310.766 1548.68 308.605C1546.73 307.268 1545.29 308.113 1543.2 307.035C1541.58 306.203 1538.71 303.274 1536.97 303.161C1534.04 302.973 1531.29 303.6 1528.36 304.026C1525.02 304.513 1521.58 307.461 1518.26 307.872C1514.33 308.359 1515.91 310.491 1514.5 314.599C1513.76 316.719 1512.35 319.118 1512.35 321.333C1512.35 323.212 1514.5 323.733 1510.79 323.733C1511.51 324.857 1512.21 327.311 1510.3 327.737C1509.69 327.872 1508.87 327.796 1508.26 327.737C1503.32 327.267 1499.31 329.509 1494.72 327.737C1491.93 326.661 1484.5 323.733 1484.5 318.734C1481.04 314.788 1476.22 311.35 1473.28 307.035C1469.06 300.855 1466.02 294.989 1462.9 288.191C1460.84 283.7 1454.84 279.083 1454.84 274.163C1450.98 269.152 1445.98 276.611 1444.09 279.083C1442.3 281.416 1448.45 275.603 1438.82 286.045C1429.19 296.486 1434.17 292.869 1433.01 293.921C1430.73 296.002 1432.07 297.115 1429.19 298.293C1426.13 299.545 1423.42 301.627 1420.55 302.9C1419.62 303.315 1413.45 306.713 1413.45 305.423V302.9Z" fill="#85402B"/>
<path d="M1448.39 1026.73C1452.34 1012.71 1448.64 996.698 1446.99 991.252C1448.85 987.991 1456.94 980.394 1468.81 969.645C1483.64 956.207 1535.57 951.477 1537.72 956.315C1539.87 961.153 1543.05 989.818 1542.66 1006.3C1542.27 1022.78 1492.35 1146.05 1480.74 1164.54C1469.13 1183.03 1459.46 1264.72 1458.06 1267.52C1456.94 1269.75 1425.92 1262.68 1410.65 1258.7C1410.65 1247.2 1410.33 1213.77 1410.33 1177.22C1410.33 1131.53 1424.41 1100.58 1425.17 1085.74C1425.92 1070.91 1443.44 1044.25 1448.39 1026.73Z" fill="#F0875E"/>
<path d="M379.136 1386.24C358.452 1398.14 14.0353 1775.18 -1.63428 1783.95L24.3772 1794.29L415.49 1407.22C410.267 1396.26 395.683 1376.72 379.136 1386.24Z" fill="url(#paint6_linear)"/>
<path d="M2320.34 1402.83C2311.81 1410.33 2159.63 1657.67 2153.18 1663.18L2162.48 1671.08L2332.97 1418.34C2331.6 1410.67 2327.17 1396.84 2320.34 1402.83Z" fill="url(#paint7_linear)"/>
<path d="M1484.17 751.476C1461.73 730.13 1438.15 673.697 1430.8 649.374L1428.62 655.091L1425.08 663.532C1432.89 682.046 1452.85 724.63 1468.1 745.759C1483.35 766.887 1524.37 787.961 1542.98 795.857C1532.72 789.958 1506.6 772.823 1484.17 751.476Z" fill="#3E6AAA" fill-opacity="0.8"/>
<path d="M1437.66 728.177C1428.54 719.5 1418.96 696.562 1415.97 686.675L1415.09 688.999L1413.65 692.43C1416.82 699.956 1424.94 717.265 1431.13 725.853C1437.33 734.441 1454 743.006 1461.57 746.216C1457.4 743.818 1446.78 736.853 1437.66 728.177Z" fill="#3E6AAA"/>
<ellipse rx="2.68852" ry="3.04355" transform="matrix(-1 0 0 1 714.709 1413.65)" fill="#2498D9"/>
<ellipse rx="2.68852" ry="3.04355" transform="matrix(-1 0 0 1 662.122 1413.65)" fill="#2498D9"/>
<path d="M687.9 1411.09L665.779 1411.09L672.789 1397.77C673.786 1395.88 675.311 1393.69 677.431 1393.4C679.401 1393.12 682.629 1392.92 687.9 1392.96C695.172 1393.02 698.801 1393.43 700.611 1393.83C701.904 1394.12 702.746 1395.31 703.363 1396.48L711.053 1411.09L687.9 1411.09Z" fill="#2498D9"/>
<path d="M688.284 1413.77L668.79 1413.77L672.392 1405.07L674.994 1399.85C675.87 1398.09 677.102 1396.04 679.038 1395.72C680.772 1395.44 683.621 1395.23 688.284 1395.27C692.593 1395.31 695.402 1395.45 697.232 1395.6C699.397 1395.79 701.27 1397.61 702.272 1399.54L704.009 1402.88L708.688 1413.77L688.284 1413.77Z" fill="#72B2D7"/>
<ellipse rx="3.54327" ry="4.01116" transform="matrix(-1 0 0 1 679.77 1407.95)" fill="#CAE3F1"/>
<path fill-rule="evenodd" clip-rule="evenodd" d="M679.203 1395.6C681.569 1395.08 695.353 1395.33 697.611 1395.69C698.851 1395.89 699.572 1396.35 699.97 1396.72C700.026 1396.76 700.085 1396.8 700.147 1396.85C701.545 1397.87 703.58 1402.15 703.58 1402.15L707.612 1411.51L705.95 1412.63L699.524 1397.27L698.686 1397.27V1408.78H697.288V1397.26L679.759 1397.16V1408.78H678.361V1397.16L677.611 1397.15L670.35 1413.71L668.605 1412.54L675.814 1398.25L676.883 1396.73L676.988 1396.67C677.28 1396.33 677.898 1395.89 679.203 1395.6Z" fill="#477793"/>
<rect width="6.66753" height="10.5915" rx="2.73741" transform="matrix(-1 0 0 1 668.252 1426.19)" fill="#171111"/>
<rect width="6.66753" height="10.5915" rx="2.73741" transform="matrix(-1 0 0 1 715.355 1426.19)" fill="#171111"/>
<rect width="54.5232" height="5.35664" transform="matrix(-1 0 0 1 715.462 1422.42)" fill="#2498D9"/>
<ellipse rx="1.23672" ry="1.21742" transform="matrix(-1 0 0 1 713.257 1422.42)" fill="#C4C4C4"/>
<ellipse rx="1.23672" ry="1.21742" transform="matrix(-1 0 0 1 663.896 1422.42)" fill="#C4C4C4"/>
<path fill-rule="evenodd" clip-rule="evenodd" d="M717.653 1426.92H716.103H707.759H668.9H659.007H659.006C659.006 1429 660.696 1430.69 662.78 1430.69H668.9V1429.6H707.759V1430.69H713.879C715.963 1430.69 717.653 1429 717.653 1426.92Z" fill="#666666"/>
<rect width="2.68852" height="0.865196" rx="0.432598" transform="matrix(-1 0 0 1 690.083 1405.25)" fill="white"/>
<path d="M688.792 1406.12H688.577V1407.34H688.792V1406.12Z" fill="black"/>
<path d="M711.269 1410.82C711.269 1410.82 706.68 1407.32 688.495 1407.2C670.31 1407.08 665.349 1410.82 665.349 1410.82V1418.76H711.269V1410.82Z" fill="#83CBF4"/>
<path d="M710.837 1412.4C710.837 1412.4 706.249 1408.91 688.064 1408.78C669.879 1408.66 664.917 1412.4 664.917 1412.4V1420.35H710.837V1412.4Z" fill="#2498D9"/>
<path fill-rule="evenodd" clip-rule="evenodd" d="M664.839 1409.63C667.171 1409.63 669.062 1411.52 669.062 1413.86V1414.96H707.553V1413.86C707.553 1411.53 709.444 1409.64 711.776 1409.64C714.109 1409.64 716 1411.53 716 1413.86V1422.94C716 1425.28 714.109 1427.17 711.776 1427.17C711.725 1427.17 711.674 1427.17 711.624 1427.16H664.839V1427.16C662.507 1427.16 660.616 1425.27 660.616 1422.94V1413.86C660.616 1411.52 662.507 1409.63 664.839 1409.63Z" fill="#2498D9"/>
<ellipse rx="2.47344" ry="2.43484" transform="matrix(-1 0 0 1 664.058 1416.82)" fill="#C4C4C4"/>
<ellipse rx="1.55934" ry="1.52177" transform="matrix(-1 0 0 1 664.111 1416.75)" fill="#E9EC5E"/>
<ellipse rx="2.47344" ry="2.43484" transform="matrix(-1 0 0 1 712.45 1416.94)" fill="#C4C4C4"/>
<ellipse rx="1.55934" ry="1.52177" transform="matrix(-1 0 0 1 712.504 1416.87)" fill="#E9EC5E"/>
<rect width="37.4098" height="1.82613" transform="matrix(-1 0 0 1 706.665 1425.22)" fill="#B9B9B9"/>
<path d="M688.063 1416.45C684.143 1416.45 680.074 1416.86 677.403 1417.19C675.786 1417.39 674.756 1418.99 675.356 1420.5C675.996 1422.12 676.848 1423.73 677.588 1423.33C678.99 1422.56 697.496 1422.56 699.801 1423.33C701.074 1423.75 701.913 1421.96 702.409 1420.27C702.834 1418.83 701.782 1417.44 700.284 1417.27C697.293 1416.93 692.332 1416.45 688.063 1416.45Z" fill="#477793"/>
<path d="M702.219 1420.54C702.277 1420.54 702.328 1420.5 702.346 1420.45C702.388 1420.31 702.465 1420.05 702.503 1419.8C702.54 1419.56 702.527 1419.28 702.515 1419.13C702.509 1419.06 702.451 1419.01 702.382 1419.01L675.256 1419.07C675.187 1419.07 675.128 1419.12 675.122 1419.19C675.08 1419.73 675.182 1420.08 675.421 1420.63C675.442 1420.68 675.492 1420.71 675.547 1420.71L702.219 1420.54Z" fill="white"/>
<path d="M687.932 1422.72H689.545V1416.51H687.932V1422.72Z" fill="white"/>
<ellipse rx="1.34426" ry="1.52177" transform="matrix(-1 0 0 1 688.738 1419.68)" fill="white"/>
<path fill-rule="evenodd" clip-rule="evenodd" d="M718.258 1427.04V1426.95C718.258 1425.59 717.155 1424.48 715.795 1424.48H706.647C705.286 1424.48 704.183 1425.59 704.183 1426.95V1427.04H718.258Z" fill="white"/>
<g style="mix-blend-mode:multiply">
<path d="M718.044 1425.73C717.936 1425.67 704.494 1425.73 704.386 1425.85C704.278 1425.97 704.171 1427.07 704.171 1427.07H718.259C718.259 1427.07 718.151 1425.79 718.044 1425.73Z" fill="#C4C4C4"/>
</g>
<path fill-rule="evenodd" clip-rule="evenodd" d="M672.445 1427.04V1426.95C672.445 1425.59 671.342 1424.48 669.982 1424.48H660.834C659.473 1424.48 658.37 1425.59 658.37 1426.95V1427.04H672.445Z" fill="white"/>
<g style="mix-blend-mode:multiply">
<path d="M672.231 1425.73C672.123 1425.67 658.681 1425.73 658.573 1425.85C658.465 1425.97 658.358 1427.07 658.358 1427.07H672.446C672.446 1427.07 672.338 1425.79 672.231 1425.73Z" fill="#C4C4C4"/>
</g>
</g>
<defs>
<filter id="filter0_d" x="872.657" y="85.3524" width="422.891" height="398.812" filterUnits="userSpaceOnUse" color-interpolation-filters="sRGB">
<feFlood flood-opacity="0" result="BackgroundImageFix"/>
<feColorMatrix in="SourceAlpha" type="matrix" values="0 0 0 0 0 0 0 0 0 0 0 0 0 0 0 0 0 0 127 0"/>
<feOffset dx="0.859972" dy="0.859972"/>
<feGaussianBlur stdDeviation="10.7496"/>
<feColorMatrix type="matrix" values="0 0 0 0 0.957695 0 0 0 0 0.988333 0 0 0 0 0.835142 0 0 0 1 0"/>
<feBlend mode="normal" in2="BackgroundImageFix" result="effect1_dropShadow"/>
<feBlend mode="normal" in="SourceGraphic" in2="effect1_dropShadow" result="shape"/>
</filter>
<linearGradient id="paint0_linear" x1="1242.66" y1="0" x2="1242.66" y2="607.677" gradientUnits="userSpaceOnUse">
<stop stop-color="#B1DCD7"/>
<stop offset="0.494432" stop-color="#D6EFDE"/>
<stop offset="1" stop-color="#ECF3D8"/>
</linearGradient>
<linearGradient id="paint1_linear" x1="113.193" y1="768.168" x2="2495.42" y2="1212.67" gradientUnits="userSpaceOnUse">
<stop stop-color="#D8F0EA" stop-opacity="0.51"/>
<stop offset="1" stop-color="#6B9391" stop-opacity="0.4"/>
</linearGradient>
<linearGradient id="paint2_linear" x1="622.619" y1="679.7" x2="2550.46" y2="753.765" gradientUnits="userSpaceOnUse">
<stop stop-color="#EAF2F1" stop-opacity="0.4"/>
<stop offset="1" stop-color="#ACC3C1" stop-opacity="0.7"/>
</linearGradient>
<linearGradient id="paint3_linear" x1="1189.56" y1="492.871" x2="2485.32" y2="496.204" gradientUnits="userSpaceOnUse">
<stop stop-color="#CAE3DD"/>
<stop offset="1" stop-color="#E9F6ED" stop-opacity="0.5"/>
</linearGradient>
<linearGradient id="paint4_linear" x1="1505.27" y1="223.004" x2="2541" y2="223.004" gradientUnits="userSpaceOnUse">
<stop stop-color="#8CB4AF" stop-opacity="0"/>
<stop offset="1" stop-color="#B3B3B3" stop-opacity="0.4"/>
</linearGradient>
<linearGradient id="paint5_linear" x1="1667.95" y1="701.922" x2="1531.27" y2="853.579" gradientUnits="userSpaceOnUse">
<stop stop-color="#3D69A8" stop-opacity="0.5"/>
<stop offset="1" stop-color="#2F598F" stop-opacity="0.5"/>
</linearGradient>
<linearGradient id="paint6_linear" x1="399.82" y1="1393.41" x2="-1.34123" y2="1794.86" gradientUnits="userSpaceOnUse">
<stop offset="0.00644202" stop-color="#23758F" stop-opacity="0.7"/>
<stop offset="1" stop-color="#01627A" stop-opacity="0.79"/>
</linearGradient>
<linearGradient id="paint7_linear" x1="2327.79" y1="1408.39" x2="2083.95" y2="1518.59" gradientUnits="userSpaceOnUse">
<stop offset="0.00644202" stop-color="#23758F" stop-opacity="0.7"/>
<stop offset="1" stop-color="#01627A" stop-opacity="0.79"/>
</linearGradient>
<clipPath id="clip0">
<rect width="2485.32" height="1787.67" fill="white"/>
</clipPath>
</defs>
</svg>
