<svg id="Layer_1" data-name="Layer 1" xmlns="http://www.w3.org/2000/svg" viewBox="0 0 100 100"><defs><style>.cls-14,.cls-2{fill:#fff}.cls-3{fill:none}.cls-14,.cls-20,.cls-24,.cls-3,.cls-36,.cls-37,.cls-38{stroke:#45413c;stroke-linecap:round;stroke-linejoin:round}.cls-6{fill:#525252}.cls-7{fill:#656769}.cls-8{fill:#e0e0e0}.cls-9{fill:#bdbec0}.cls-10{fill:#ff6196}.cls-11{fill:#ff87af}.cls-20{fill:#ffe500}.cls-15{fill:#00b8f0}.cls-16{fill:#4acfff}.cls-38{fill:#a86c4d}.cls-24,.cls-30{fill:#ffcebf}.cls-25{fill:#45413c}.cls-26{fill:#ffb59e}.cls-27{fill:#ffaa54}.cls-28{fill:#fc9}.cls-31{fill:#9f5ae5}.cls-32,.cls-37{fill:#ff8a14}.cls-36{fill:#00dfeb}</style></defs><path d="M90 50a40 40 0 1 0-76.44 16.5h72.88A39.85 39.85 0 0 0 90 50z" fill="#e8f4fa"/><path class="cls-2" d="M13.56 66.5a40 40 0 0 0 72.88 0z"/><path class="cls-3" d="M11 66.5h78M6.5 66.5H9M91 66.5h2.5"/><path d="M57 34.5h7a2 2 0 0 1 2 2V39H55v-2.5a2 2 0 0 1 2-2z" fill="#dea47a" stroke="#45413c" stroke-linecap="round" stroke-linejoin="round"/><path d="M52 34h1a2 2 0 0 1 2 2v3h-5v-3a2 2 0 0 1 2-2z" fill="#bf8df2" stroke="#45413c" stroke-linecap="round" stroke-linejoin="round"/><circle class="cls-6" cx="49.5" cy="62.5" r="4"/><path class="cls-7" d="M45.5 62.5a4 4 0 1 1 7.75 1.34l-1.15-.77a3.5 3.5 0 0 0-1.91-.57h-1.38a3.5 3.5 0 0 0-1.91.57l-1.15.77a4 4 0 0 1-.25-1.34z"/><circle class="cls-3" cx="49.5" cy="62.5" r="4"/><circle class="cls-8" cx="49.5" cy="62.5" r="2"/><path class="cls-9" d="M49.5 62a2 2 0 0 0-1.85 1.25 1.86 1.86 0 0 1-.15-.75 2 2 0 0 1 4 0 1.86 1.86 0 0 1-.15.75A2 2 0 0 0 49.5 62z"/><circle class="cls-3" cx="49.5" cy="62.5" r="2"/><path class="cls-2" d="M80 42H38.71a15.12 15.12 0 0 0-1.21 5.5V52H77a8.51 8.51 0 0 1 8.5 8.5v-9c0-1.84-2.79-6.32-5.5-9.5z"/><path class="cls-8" d="M38.71 42H80c.4.48.8 1 1.19 1.5H38.18c.06-.2.13-.39.19-.58s.22-.62.34-.91z"/><path class="cls-3" d="M80 42c2.67 3.18 5.46 7.66 5.46 9.5v9A8.51 8.51 0 0 0 77 52H37.5v-4.5a15.12 15.12 0 0 1 1.21-5.5z"/><path class="cls-7" d="M77.5 62.5l-2.11-4.21a3.21 3.21 0 0 0-2.89-1.79h-4a3.21 3.21 0 0 0-2.89 1.79L63.5 62.5z"/><path class="cls-6" d="M76 59.5a3.22 3.22 0 0 0-2.74-1.5h-5.52A3.21 3.21 0 0 0 65 59.5l.61-1.21a3.21 3.21 0 0 1 2.89-1.79h4a3.21 3.21 0 0 1 2.89 1.79L76 59.5z"/><path class="cls-3" d="M77.5 62.5l-2.11-4.21a3.21 3.21 0 0 0-2.89-1.79h-4a3.21 3.21 0 0 0-2.89 1.79L63.5 62.5z"/><circle class="cls-6" cx="70.5" cy="62.5" r="4"/><path class="cls-7" d="M70.5 60a4 4 0 0 0-3.92 3.25 3.67 3.67 0 0 1-.08-.75 4 4 0 0 1 8 0 3.67 3.67 0 0 1-.08.75A4 4 0 0 0 70.5 60z"/><circle class="cls-3" cx="70.5" cy="62.5" r="4"/><circle class="cls-8" cx="70.5" cy="62.5" r="2"/><path class="cls-9" d="M70.5 62a2 2 0 0 0-1.85 1.25 1.86 1.86 0 0 1-.15-.75 2 2 0 0 1 4 0 1.86 1.86 0 0 1-.15.75A2 2 0 0 0 70.5 62z"/><circle class="cls-3" cx="70.5" cy="62.5" r="2"/><path class="cls-10" d="M77.5 62.5l-2.11-4.23a3.23 3.23 0 0 0-2.87-1.77h-4a3.23 3.23 0 0 0-2.87 1.77L63.5 62.5h-10l-1.4-.93a3.5 3.5 0 0 0-1.91-.57h-1.38a3.5 3.5 0 0 0-1.91.57l-1.4.93h-8V52H77a8.51 8.51 0 0 1 8.5 8.5v2z"/><path class="cls-11" d="M77 52H37.5v1.5H77a8.51 8.51 0 0 1 8.5 8.5v-1.5A8.51 8.51 0 0 0 77 52z"/><path class="cls-3" d="M77.5 62.5l-2.11-4.23a3.23 3.23 0 0 0-2.87-1.77h-4a3.23 3.23 0 0 0-2.87 1.77L63.5 62.5h-10l-1.4-.93a3.5 3.5 0 0 0-1.91-.57h-1.38a3.5 3.5 0 0 0-1.91.57l-1.4.93h-8V52H77a8.51 8.51 0 0 1 8.5 8.5v2z"/><path class="cls-8" d="M37.5 60.5h5a1 1 0 0 1 0 2h-5a1 1 0 0 1 0-2z"/><path class="cls-2" d="M42.5 61.5h-5a1 1 0 0 0-.85.5 1 1 0 0 1-.15-.5 1 1 0 0 1 1-1h5a1 1 0 0 1 1 1 1 1 0 0 1-.15.5 1 1 0 0 0-.85-.5z"/><path class="cls-3" d="M37.5 60.5h5a1 1 0 0 1 0 2h-5a1 1 0 0 1 0-2z"/><path class="cls-8" d="M80.5 60.5h5a1 1 0 0 1 0 2h-5a1 1 0 0 1 0-2z"/><path class="cls-2" d="M85.5 61.5h-5a1 1 0 0 0-.85.5 1 1 0 0 1-.15-.5 1 1 0 0 1 1-1h5a1 1 0 0 1 1 1 1 1 0 0 1-.15.5 1 1 0 0 0-.85-.5z"/><path class="cls-3" d="M80.5 60.5h5a1 1 0 0 1 0 2h-5a1 1 0 0 1 0-2z"/><path d="M85.5 58h1a1 1 0 0 0 1-1v-1a1 1 0 0 0-1-1h-1z" fill="#ffe500"/><path d="M86.5 55a1 1 0 0 1 1 1v1a1 1 0 0 1 0 .25 1 1 0 0 0-1-.75h-1V55z" fill="#fff48c"/><path class="cls-3" d="M85.5 58h1a1 1 0 0 0 1-1v-1a1 1 0 0 0-1-1h-1z"/><path class="cls-14" d="M78.93 40.73L80 42H38.71c.79-2 2.29-3.5 9.29-3.5s29-.02 30.93 2.23z"/><path class="cls-15" d="M85.14 50H77a1 1 0 0 1-1-1v-4a1 1 0 0 1 1-1h4.61a28.91 28.91 0 0 1 3.53 6z"/><path class="cls-16" d="M81.5 44H77a1 1 0 0 0-1 1v4a1 1 0 0 0 .09.41z"/><rect class="cls-15" x="61" y="44" width="13" height="6" rx="1" ry="1"/><path class="cls-16" d="M62 50h2.5l6-6H62a1 1 0 0 0-1 1v4a1 1 0 0 0 1 1z"/><path class="cls-14" d="M44.5 44H41M44 46h-3.5M43.5 48H40M43 50h-3.5"/><path class="cls-15" d="M58 44a1 1 0 0 1 1 1v4a1 1 0 0 1-1 1H47a.7.7 0 0 1-.58-.3.69.69 0 0 1-.1-.65L47.68 45a1.64 1.64 0 0 1 .82-1z"/><path class="cls-16" d="M46.32 49.05a.69.69 0 0 0 .1.65.7.7 0 0 0 .58.3h2.5l6-6h-7a1.64 1.64 0 0 0-.82 1z"/><path class="cls-3" d="M58 44a1 1 0 0 1 1 1v4a1 1 0 0 1-1 1H47a.7.7 0 0 1-.58-.3.69.69 0 0 1-.1-.65L47.68 45a1.64 1.64 0 0 1 .82-1z"/><rect class="cls-3" x="61" y="44" width="13" height="6" rx="1" ry="1"/><path class="cls-3" d="M85.14 50H77a1 1 0 0 1-1-1v-4a1 1 0 0 1 1-1h4.61a28.91 28.91 0 0 1 3.53 6z"/><path d="M35.5 57a1.5 1.5 0 0 0 1.5 1.5h.5V54H37a1.5 1.5 0 0 0-1.5 1.5z" fill="#ff6242"/><path d="M37 54h.5v1.5H37a1.5 1.5 0 0 0-1.5 1.5v-1.5A1.5 1.5 0 0 1 37 54z" fill="#ff866e"/><path class="cls-3" d="M35.5 57a1.5 1.5 0 0 0 1.5 1.5h.5V54H37a1.5 1.5 0 0 0-1.5 1.5z"/><circle cx="58" cy="57.5" r="1.5" fill="#ff6242" stroke="#45413c" stroke-linecap="round" stroke-linejoin="round"/><ellipse class="cls-20" cx="58" cy="54.25" rx="1" ry="1.75"/><ellipse class="cls-20" cx="55.7" cy="55.2" rx="1" ry="1.75" transform="rotate(-45 55.707 55.205)"/><ellipse class="cls-20" cx="54.75" cy="57.5" rx="1.75" ry="1"/><ellipse class="cls-20" cx="55.7" cy="59.8" rx="1.75" ry="1" transform="rotate(-45 55.7 59.799)"/><ellipse class="cls-20" cx="58" cy="60.75" rx="1" ry="1.75"/><ellipse class="cls-20" cx="60.3" cy="59.8" rx="1" ry="1.75" transform="rotate(-45 60.297 59.794)"/><ellipse class="cls-20" cx="61.25" cy="57.5" rx="1.75" ry="1"/><ellipse class="cls-20" cx="60.3" cy="55.2" rx="1.75" ry="1" transform="rotate(-45 60.305 55.2)"/><path d="M61 39a1 1 0 0 1-2 0v-4.5a1 1 0 0 1 2 0z" fill="#f7e5c6" stroke="#45413c" stroke-linecap="round" stroke-linejoin="round"/><path class="cls-20" d="M82 56.55a3 3 0 1 1-2.4-3.5 3 3 0 0 1 2.4 3.5z"/><path class="cls-3" d="M79.55 53.05l-1.1 5.9M80.98 58.26l-1.89-2.75-2.75 1.88"/><path class="cls-20" d="M30.3 24.43a2.34 2.34 0 0 1-1.3-.38S26.85 36.5 27.42 40s2.88 4 4 3.45-1.12-19-1.12-19z"/><circle class="cls-20" cx="30.3" cy="22.13" r="2.3"/><path d="M48.12 41.1a2.29 2.29 0 0 0 1-.23 1.15 1.15 0 0 0 .62-.87 1.13 1.13 0 0 0-.35-1 3 3 0 0 1-.71-1.92V26.15a9.2 9.2 0 0 0-18.4 0v10.93a3 3 0 0 1-.69 1.92 1.13 1.13 0 0 0-.35 1 1.15 1.15 0 0 0 .62.87 2.28 2.28 0 0 0 1 .23z" fill="#a86c4d"/><path d="M39.5 19.83A9.19 9.19 0 0 1 48.7 29v-2.85a9.2 9.2 0 0 0-18.4 0V29a9.19 9.19 0 0 1 9.2-9.17z" fill="#de926a"/><path class="cls-3" d="M48.12 41.1a2.29 2.29 0 0 0 1-.23 1.15 1.15 0 0 0 .62-.87 1.13 1.13 0 0 0-.35-1 3 3 0 0 1-.71-1.92V26.15a9.2 9.2 0 0 0-18.4 0v10.93a3 3 0 0 1-.69 1.92 1.13 1.13 0 0 0-.35 1 1.15 1.15 0 0 0 .62.87 2.28 2.28 0 0 0 1 .23z"/><path class="cls-24" d="M46.4 27.07v-.92a7 7 0 0 0-.4-2.3H33a7 7 0 0 0-.4 2.3v.92a1.41 1.41 0 0 0 .14 2.79 6.91 6.91 0 0 0 13.52 0 1.41 1.41 0 0 0 .14-2.79z"/><path class="cls-25" d="M36.91 26.15a.87.87 0 1 0 .86.86.87.87 0 0 0-.86-.86zM42.09 26.15A.87.87 0 1 0 43 27a.87.87 0 0 0-.86-.86z"/><circle class="cls-26" cx="35.76" cy="29.31" r=".86"/><circle class="cls-26" cx="43.24" cy="29.31" r=".86"/><path class="cls-3" d="M37.77 31.38a3.13 3.13 0 0 0 3.45 0"/><path class="cls-20" d="M30.37 25h18.26a9.27 9.27 0 0 0-1.16-3.45H31.53A9.27 9.27 0 0 0 30.37 25z"/><circle class="cls-27" cx="36.05" cy="27.88" r="2.3"/><path class="cls-28" d="M34.42 29.5a2.3 2.3 0 1 1 3.26-3.25z"/><circle class="cls-27" cx="42.95" cy="27.88" r="2.3"/><path class="cls-28" d="M41.32 29.5a2.3 2.3 0 0 1 3.26-3.25z"/><path class="cls-3" d="M38.35 27.88a1.15 1.15 0 0 1 2.3 0"/><circle class="cls-3" cx="36.05" cy="27.88" r="2.3"/><circle class="cls-3" cx="42.95" cy="27.88" r="2.3"/><ellipse cx="39.5" cy="80.77" rx="14.95" ry="1.73" fill="#020202" opacity=".15"/><path class="cls-30" d="M32 75.6v2a2.63 2.63 0 0 0 5.25.08l.07-2.05z"/><path class="cls-26" d="M37.29 77.33l.06-1.73h-5.33v1.73h5.27z"/><path class="cls-3" d="M32 75.6v2a2.63 2.63 0 0 0 5.25.08l.07-2.05z"/><path class="cls-30" d="M47 75.6v2a2.63 2.63 0 0 1-5.25.08l-.07-2.05z"/><path class="cls-26" d="M41.71 77.33l-.06-1.73h5.32v1.73h-5.26z"/><path class="cls-3" d="M47 75.6v2a2.63 2.63 0 0 1-5.25.08l-.07-2.05z"/><path class="cls-11" d="M47 58.93l2.11 15.36A1.15 1.15 0 0 1 48 75.6h-6.35l-.3-9.71a1.85 1.85 0 0 0-3.7 0l-.3 9.71H31a1.15 1.15 0 0 1-1.13-1.31L32 58.93z"/><path class="cls-10" d="M47.45 62.38l-.47-3.46H32.02l-.47 3.46h15.9z"/><path class="cls-31" d="M29.91 74.29a1.15 1.15 0 0 0 1.14 1.31h6.3l.14-4.6h-7.13zM41.65 75.6H48a1.16 1.16 0 0 0 1.14-1.31l-.5-3.29h-7.13z"/><path class="cls-32" d="M41.4 67.55l.11 3.45h7.13l-.48-3.45H41.4zM30.84 67.55L30.36 71h7.13l.11-3.45h-6.76z"/><path class="cls-3" d="M47 58.93l2.11 15.36A1.15 1.15 0 0 1 48 75.6h-6.35l-.3-9.71a1.85 1.85 0 0 0-3.7 0l-.3 9.71H31a1.15 1.15 0 0 1-1.13-1.31L32 58.93zM48.17 67.55H41.4M41.51 71h7.13M37.6 67.55h-6.76M30.36 71h7.13"/><path d="M47 60.08v-1.15H32v1.15h-4V49.15a11.5 11.5 0 0 1 23 0v10.93z" fill="#00dba8"/><path d="M39.5 37.65A11.5 11.5 0 0 0 28 49.15V52a11.5 11.5 0 0 1 23 0v-2.85a11.5 11.5 0 0 0-11.5-11.5z" fill="#00f5bc"/><path d="M46.87 40.32a11.51 11.51 0 0 0-14.74 0l6.77 12.87a.68.68 0 0 0 1.2 0z" fill="#00dfeb"/><path class="cls-3" d="M46.87 40.32a11.51 11.51 0 0 0-14.74 0l6.77 12.87a.68.68 0 0 0 1.2 0z"/><path class="cls-32" d="M46.39 40a11.43 11.43 0 0 0-13.78 0L39 48.42a.66.66 0 0 0 1.08 0z"/><path class="cls-3" d="M32.61 40L39 48.42a.66.66 0 0 0 1.08 0L46.39 40"/><path class="cls-3" d="M47 60.08v-1.15H32v1.15h-4V49.15a11.5 11.5 0 0 1 23 0v10.93z"/><path class="cls-24" d="M42.54 38.06a11.32 11.32 0 0 0-3-.41 11.75 11.75 0 0 0-3.27.47l2.63 5.63a.68.68 0 0 0 1.24 0z"/><path class="cls-3" d="M46.97 46.85l.01 12.08M32.03 46.85v12.08"/><path class="cls-24" d="M28 62.09a2 2 0 0 0 4 0v-2h-4zM47 62.09a2 2 0 0 0 4 0v-2h-4z"/><path class="cls-36" d="M28 57.78h4.02v2.3H28z"/><path class="cls-37" d="M28 55.48h4.02v2.3H28z"/><path class="cls-36" d="M46.97 57.78h4.02v2.3h-4.02z"/><path class="cls-37" d="M46.97 55.48h4.02v2.3h-4.02z"/><path class="cls-38" d="M46.4 25v12.65a3 3 0 0 0 .71 1.92 1.15 1.15 0 0 1 .35 1 1.17 1.17 0 0 1-.62.87 2.43 2.43 0 0 1-1 .23A1.69 1.69 0 0 1 44.1 40V25zM32.6 25v10.93a3 3 0 0 1-.71 1.92 1.13 1.13 0 0 0-.35 1 1.15 1.15 0 0 0 .62.87 2.28 2.28 0 0 0 1 .23 1.69 1.69 0 0 0 1.73-1.72V25z"/></svg>