<svg width="56" height="60" fill="none" xmlns="http://www.w3.org/2000/svg"><path d="M50.27 24.62l-7.52-13h-29.5l-7.53 13" fill="#FFB8F2"/><path d="M50.27 24.62l-7.52-13h-29.5l-7.53 13" stroke="#54596E" stroke-width="2" stroke-linecap="round" stroke-linejoin="round"/><path d="M28 58.25l22.27-33.63H5.72L28 58.25z" fill="#FFB8F2" stroke="#54596E" stroke-width="2" stroke-linecap="round" stroke-linejoin="round"/><path d="M35.88 24.62L28 11.8l-8.44 12.82L28 58.25l7.88-33.63z" stroke="#54596E" stroke-width="2" stroke-linecap="round" stroke-linejoin="round"/><path d="M31 28.62h-6.53c-1.43 0-2.39 1.14-1.81 2.15l3.39 5.93a2.24 2.24 0 0 0 3.63 0l3.16-5.93c.55-1.04-.41-2.15-1.84-2.15z" fill="#54596E"/><path d="M28 5.05V1M43.53 7.07l2.02-3.37M52.3 15.85l2.7-3.38M12.47 7.07L10.45 3.7M3.7 15.85L1 12.47" stroke="#55A6FF" stroke-width="2" stroke-linecap="round" stroke-linejoin="round"/><path d="M15.5 29.62a1.5 1.5 0 1 0 0-3 1.5 1.5 0 0 0 0 3zM39.5 29.62a1.5 1.5 0 1 0 0-3 1.5 1.5 0 0 0 0 3z" fill="#54596E"/><path d="M26 30.62h4" stroke="#fff" stroke-width="2" stroke-miterlimit="10"/></svg>