<svg width="60" height="48" fill="none" xmlns="http://www.w3.org/2000/svg"><path d="M56.03 1H3.97A2.97 2.97 0 0 0 1 3.97v40.06A2.97 2.97 0 0 0 3.97 47h52.06A2.97 2.97 0 0 0 59 44.03V3.97A2.97 2.97 0 0 0 56.03 1z" fill="#D8D8D8" stroke="#54596E" stroke-width="2" stroke-linecap="round" stroke-linejoin="round"/><path d="M17.4 5H6.6A1.6 1.6 0 0 0 5 6.6v23.8A1.6 1.6 0 0 0 6.6 32h10.8a1.6 1.6 0 0 0 1.6-1.6V6.6A1.6 1.6 0 0 0 17.4 5z" fill="#FFD578" stroke="#54596E" stroke-width="2" stroke-linecap="round" stroke-linejoin="round"/><path d="M53.4 5H42.6A1.6 1.6 0 0 0 41 6.6v23.8a1.6 1.6 0 0 0 1.6 1.6h10.8a1.6 1.6 0 0 0 1.6-1.6V6.6A1.6 1.6 0 0 0 53.4 5z" fill="#FF80C3" stroke="#54596E" stroke-width="2" stroke-linecap="round" stroke-linejoin="round"/><path d="M35.4 5H24.6A1.6 1.6 0 0 0 23 6.6v23.8a1.6 1.6 0 0 0 1.6 1.6h10.8a1.6 1.6 0 0 0 1.6-1.6V6.6A1.6 1.6 0 0 0 35.4 5z" fill="#55A6FF" stroke="#54596E" stroke-width="2" stroke-linecap="round" stroke-linejoin="round"/><path opacity=".15" d="M53.4 32H42.6a1.6 1.6 0 0 1-1.6-1.6L53.4 5A1.6 1.6 0 0 1 55 6.6v23.8a1.6 1.6 0 0 1-1.6 1.6zM35.4 32H24.6a1.6 1.6 0 0 1-1.6-1.6L35.4 5A1.6 1.6 0 0 1 37 6.6v23.8a1.6 1.6 0 0 1-1.6 1.6zM17.4 32H6.6A1.6 1.6 0 0 1 5 30.4L17.4 5A1.6 1.6 0 0 1 19 6.6v23.8a1.6 1.6 0 0 1-1.6 1.6z" fill="#54596E"/><path d="M55 36H5v7h50v-7z" fill="#D8D8D8" stroke="#54596E" stroke-width="2" stroke-linecap="round" stroke-linejoin="round"/><path d="M46 39H14M50 39h-5v1h5v-1zM14 39H9v1h5v-1z" stroke="#54596E" stroke-width="2" stroke-linecap="round" stroke-linejoin="round"/><path d="M27 17a1 1 0 1 0 0-2 1 1 0 0 0 0 2zM33 17a1 1 0 1 0 0-2 1 1 0 0 0 0 2z" fill="#54596E"/><path d="M27 19.64a4 4 0 0 0 6 0" stroke="#54596E" stroke-width="2" stroke-linecap="round" stroke-linejoin="round"/></svg>