<svg width="448" height="448" viewBox="0 0 448 448" fill="none" xmlns="http://www.w3.org/2000/svg">
<path d="M0 0V448H448V0H0ZM372.2 106.1L348.2 129.1C346.1 130.7 345.1 133.3 345.5 135.8V305.1C345.1 307.7 346.1 310.3 348.2 311.8L371.7 334.8V339.9H253.7V335L278 311.4C280.4 309 280.4 308.3 280.4 304.7V167.8L212.8 339.4H203.7L125 167.8V282.8C124.3 287.6 126 292.5 129.4 296L161 334.3V339.4H71.2V334.3L102.8 296C106.2 292.5 107.7 287.6 106.9 282.8V149.8C107.3 146.1 105.9 142.5 103.1 140L75 106.1V101H162.3L229.7 249L289 101.1H372.2V106.1Z" fill="black"/>
</svg>
