<svg width="7708" height="6676" viewBox="0 0 7708 6676" fill="none" xmlns="http://www.w3.org/2000/svg">
<path opacity="0.49" fill-rule="evenodd" clip-rule="evenodd" d="M5352.13 867.887C3758.45 1308.73 2455.5 289.6 1633.49 248.046C397.534 185.716 -860.793 1550.32 790.695 3939.39C2442.18 6328.45 3119.16 6867.05 4925.01 6621.33C6369.93 6424.75 7334.72 5054.94 7612.54 4095.08C8047.26 2592.23 6945.82 427.179 5352.13 867.887Z" fill="url(#paint0_linear)"/>
<path d="M3009.47 2980.74V3016.91L2953.87 4938.5H2860.45L2906.26 3016.91V2980.74H3009.47Z" fill="#DE6F6F"/>
<path d="M3532.41 4618.45L3464.34 4618.29L2453.03 4616.13L2399.12 4616.05L2427.84 4527.59H3525.21L3532.41 4618.45Z" fill="#FF5151"/>
<path d="M2607.12 2954.51L2604.32 2982.02L2379.97 5194.69L2277.19 5189.81L2513.62 2982.02L2516.26 2956.91L2607.12 2954.51Z" fill="#FF5151"/>
<path d="M3639.99 5189.81L3537.13 5194.69L3312.86 2982.02L3310.06 2954.51L3400.84 2956.91L3403.48 2982.02L3639.99 5189.81Z" fill="#FF5151"/>
<path d="M4077.42 772.934H1811V2946.09H4077.42V772.934Z" fill="white"/>
<path d="M2988.45 46.1114V570.884H2900.06V46.1114C2899.81 40.15 2900.77 34.1989 2902.87 28.6163C2904.98 23.0337 2908.19 17.935 2912.32 13.627C2916.45 9.31911 2921.41 5.89105 2926.9 3.54917C2932.38 1.20729 2938.29 0 2944.26 0C2950.22 0 2956.13 1.20729 2961.62 3.54917C2967.1 5.89105 2972.06 9.31911 2976.19 13.627C2980.32 17.935 2983.53 23.0337 2985.64 28.6163C2987.75 34.1989 2988.7 40.15 2988.45 46.1114Z" fill="#DE6F6F"/>
<path d="M3023.17 558.937V732.182H2865.84V558.937C2865.83 556.109 2866.38 553.306 2867.46 550.691C2868.54 548.076 2870.12 545.7 2872.12 543.7C2874.12 541.7 2876.5 540.115 2879.11 539.038C2881.73 537.96 2884.53 537.411 2887.36 537.422H3001.81C3007.49 537.464 3012.92 539.749 3016.92 543.78C3020.93 547.81 3023.17 553.258 3023.17 558.937Z" fill="#DE6F6F"/>
<path d="M2944.22 673.637C2962.68 673.637 2977.65 658.669 2977.65 640.204C2977.65 621.74 2962.68 606.771 2944.22 606.771C2925.75 606.771 2910.78 621.74 2910.78 640.204C2910.78 658.669 2925.75 673.637 2944.22 673.637Z" fill="#FBB5BA"/>
<path d="M3087.72 725.062H2800.81V772.892H3087.72V725.062Z" fill="#DE6F6F"/>
<path opacity="0.1" d="M3044.7 2955.66H2876.17V2981.97H3044.7V2955.66Z" fill="black"/>
<path d="M2363.89 2904.26H3568.85C3582.63 2904.26 3595.86 2909.73 3605.61 2919.48C3615.36 2929.23 3620.84 2942.46 3620.84 2956.25V2967.6H2311.9V2956.25C2311.9 2942.46 2317.38 2929.23 2327.13 2919.48C2336.88 2909.73 2350.1 2904.26 2363.89 2904.26Z" fill="#FF5151"/>
<rect x="1811" y="776.049" width="2266.42" height="238.106" fill="#966178"/>
<circle cx="1916.8" cy="899.575" r="44.0937" fill="#FF666F"/>
<circle cx="2040.38" cy="899.493" r="44.0937" fill="#F5AC3E"/>
<circle cx="2163.81" cy="899.493" r="44.0937" fill="#FBFF4B"/>
<rect x="1925.66" y="1164.03" width="723.137" height="467.393" fill="#61B0FB"/>
<rect x="3239.66" y="1710.8" width="723.137" height="467.393" fill="#FEEDB5"/>
<rect x="1925.66" y="2257.65" width="723.137" height="467.393" fill="#FF5152"/>
<rect x="2745.79" y="1164.03" width="1216.99" height="97.0062" fill="#61B0FB"/>
<rect x="2745.75" y="1349.21" width="1216.99" height="97.0062" fill="#61B0FB"/>
<rect x="2745.75" y="1534.39" width="1216.99" height="97.0062" fill="#61B0FB"/>
<rect x="1925.56" y="1710.8" width="1216.99" height="97.0062" fill="#FEEDB5"/>
<rect x="1925.54" y="1895.98" width="1216.99" height="97.0062" fill="#FEEDB5"/>
<rect x="1925.54" y="2081.15" width="1216.99" height="97.0062" fill="#FEEDB5"/>
<rect x="2745.79" y="2257.65" width="1216.99" height="97.0062" fill="#FF5152"/>
<rect x="2745.75" y="2442.83" width="1216.99" height="97.0062" fill="#FF5152"/>
<rect x="2745.75" y="2628" width="1216.99" height="97.0062" fill="#FF5152"/>
<path d="M3760.04 1535.58C3796.33 1545.6 3818.54 1535.09 3835.64 1529.1C3840.16 1516.18 3851.97 1495.56 3852.66 1483.04C3853.52 1467.4 3822.68 1431.9 3791.12 1418.27C3759.56 1404.64 3729.25 1393.08 3709.92 1388.8C3690.59 1384.52 3646.12 1385.39 3628.26 1393C3610.39 1400.6 3596.47 1423.75 3603.66 1422.39C3610.84 1421.03 3625.31 1423.12 3639.87 1428.81C3654.42 1434.5 3675.61 1468.9 3688.03 1486.66C3700.44 1504.42 3723.75 1525.55 3760.04 1535.58Z" fill="#F78F11"/>
<path d="M4006.25 1631.15L4054.76 1541.11C4054.76 1541.11 4003.76 1518.19 3977.09 1507.95C3950.41 1497.72 3899.63 1484.41 3899.63 1484.41C3899.63 1484.41 3887.5 1479.86 3861.06 1480.44C3834.63 1481.03 3827.73 1495.6 3827.73 1495.6C3827.73 1495.6 3823.11 1504.12 3828.21 1517.24C3833.31 1530.35 3843.05 1536.15 3843.05 1536.15C3843.05 1536.15 3877.39 1566.65 3922.38 1589.71C3967.37 1612.76 4006.25 1631.15 4006.25 1631.15Z" fill="#FFEDB6"/>
<path d="M4787.52 1919C4740.63 1930.54 4243.64 1742.32 4009.11 1632.86C4004.26 1630.77 3995.03 1593.77 4001.84 1575.71C4008.66 1557.65 4037.64 1544.68 4054 1541.14C4314.84 1662.36 4834.41 1907.46 4787.52 1919Z" fill="#FBDB7D"/>
<path opacity="0.1" d="M5750.65 5884.8C5306.33 5884.8 4946.13 5824.42 4946.13 5749.93C4946.13 5675.44 5306.33 5615.05 5750.65 5615.05C6194.98 5615.05 6555.17 5675.44 6555.17 5749.93C6555.17 5824.42 6194.98 5884.8 5750.65 5884.8Z" fill="#6C63FF"/>
<path opacity="0.1" d="M3897.5 5762.74C3548.73 5762.74 3266 5715.34 3266 5656.87C3266 5598.4 3548.73 5551 3897.5 5551C4246.27 5551 4529 5598.4 4529 5656.87C4529 5715.34 4246.27 5762.74 3897.5 5762.74Z" fill="#6C63FF"/>
<path opacity="0.1" d="M2607.5 5014.06C2357.04 5014.06 2154 4980.02 2154 4938.03C2154 4896.04 2357.04 4862 2607.5 4862C2857.96 4862 3061 4896.04 3061 4938.03C3061 4980.02 2857.96 5014.06 2607.5 5014.06Z" fill="#6C63FF"/>
<path d="M5405.04 5642.75C5406.19 5647.49 5407.41 5652.43 5408.9 5657.43C5422.43 5704.81 5448.35 5693.84 5523.95 5771.2C5542.78 5791.39 5566.78 5806.04 5593.34 5813.58C5619.91 5821.12 5648.03 5821.25 5674.66 5813.97C5678.82 5812.87 5682.45 5810.34 5684.93 5806.82C5687.4 5803.31 5688.56 5799.03 5688.19 5794.75L5678.65 5669.28L5674.12 5608.91C5674.12 5608.91 5553.39 5642.75 5491.94 5599.78C5489.88 5598.37 5487.89 5596.85 5485.98 5595.24C5485.51 5594.81 5485.06 5594.36 5484.63 5593.89C5476.7 5587.32 5466.91 5583.4 5456.64 5582.68C5446.37 5581.95 5436.13 5584.46 5427.35 5589.85C5418.58 5595.23 5411.71 5603.23 5407.71 5612.72C5403.71 5622.2 5402.78 5632.71 5405.04 5642.75V5642.75Z" fill="#1A4C80"/>
<path d="M5784.01 5595.34C5785.16 5600.08 5786.38 5605.02 5787.87 5610.03C5801.4 5657.4 5827.32 5646.44 5902.91 5723.79C5921.75 5743.98 5945.75 5758.64 5972.31 5766.17C5998.87 5773.71 6026.99 5773.85 6053.63 5766.56C6057.78 5765.46 6061.42 5762.93 6063.9 5759.42C6066.37 5755.9 6067.53 5751.62 6067.16 5747.34L6057.62 5621.87L6053.09 5561.5C6053.09 5561.5 5932.35 5595.34 5870.9 5552.37C5868.84 5550.96 5866.85 5549.45 5864.95 5547.83C5864.47 5547.41 5864.02 5546.95 5863.59 5546.48C5855.66 5539.91 5845.88 5535.99 5835.61 5535.27C5825.34 5534.55 5815.1 5537.05 5806.32 5542.44C5797.55 5547.83 5790.68 5555.82 5786.68 5565.31C5782.68 5574.8 5781.74 5585.3 5784.01 5595.34V5595.34Z" fill="#1A4C80"/>
<path opacity="0.1" d="M5908.75 5614.17L5903.88 5679.41C5973.18 5748.64 6055.68 5645.57 6079.84 5611.73C6016.29 5644.49 5908.75 5614.17 5908.75 5614.17Z" fill="black"/>
<path opacity="0.1" d="M5501.4 5640.68L5492.33 5634.66C5555.61 5730.89 5649.61 5686.49 5678.91 5669.24L5674.38 5608.87C5674.38 5608.87 5553.65 5642.71 5492.2 5599.73C5497 5623.29 5501.4 5640.68 5501.4 5640.68Z" fill="black"/>
<path d="M5308.67 3818.67C5357.27 3940.01 5405.79 4346.53 5411.88 4393.91C5417.97 4441.28 5416.41 4633.61 5416.41 4633.61L5428.59 5106.59C5430.15 5165.81 5474.14 5314.49 5474.14 5314.49C5474.14 5314.49 5489.3 5438.88 5481.72 5479.82C5474.14 5520.77 5501.41 5628.71 5501.41 5628.71L5492.35 5622.62C5568.21 5737.66 5688.06 5651.45 5688.06 5651.45C5688.06 5651.45 5716.89 5511.9 5686.5 5476.98C5656.12 5442.06 5697.13 5334.39 5697.13 5334.39C5697.13 5334.39 5681.97 4774.58 5677.44 4748.79C5672.9 4723.01 5695.64 4644.1 5716.89 4578.86C5738.14 4513.62 5704.71 4255.71 5697.13 4208.68C5689.55 4161.64 5700.18 3947.72 5707.76 3903.73C5715.33 3859.75 5698.69 3676.14 5698.69 3676.14C5729.01 3585.12 5753.3 3667.07 5753.3 3667.07L5777.6 3905.22L5803.38 4393.77C5803.38 4393.77 5800.33 4542.66 5823.07 4584.95C5845.81 4627.25 5865.57 4736.61 5865.57 4736.61L5854.95 5288.91C5854.95 5288.91 5856.44 5403.96 5848.86 5448.15C5841.28 5492.34 5865.57 5605.97 5865.57 5605.97C5950.51 5806.08 6086.94 5589.12 6086.94 5589.12C6086.94 5589.12 6080.85 5555.75 6068.73 5551.22C6056.62 5546.69 6073.27 5464.73 6082.27 5451.06C6091.27 5437.39 6080.78 5338.79 6080.78 5338.79C6080.78 5338.79 6091.41 5249.32 6107.85 5141.58C6124.3 5033.84 6119.96 4618.18 6109.34 4592.4C6098.71 4566.61 6089.65 4446.76 6089.65 4446.76C6089.65 4446.76 6101.76 4378.48 6086.6 4329.89C6071.44 4281.29 6123.01 4076.58 6123.01 4053.77C6123.01 4030.96 6142.7 3889.93 6153.33 3874.77C6163.95 3859.61 6163.95 3832.27 6163.95 3832.27C6163.95 3832.27 6165.44 3801.95 6191.02 3710.93C6209.84 3644.47 6198.74 3513.45 6191.36 3447.47C6188.72 3423.04 6186.42 3407.47 6186.42 3407.47C6186.42 3407.47 5316.32 3266.37 5281.6 3298.24C5273.48 3305.76 5268.07 3331.54 5264.89 3368.29C5254.53 3488.48 5271.59 3726.02 5308.67 3818.67Z" fill="#FF5152"/>
<path opacity="0.1" d="M5637.96 4500.85C5633.9 4500.85 5537.8 4508.97 5502.61 4501.87C5467.42 4494.76 5637.96 4500.85 5637.96 4500.85Z" fill="black"/>
<path opacity="0.1" d="M5630.88 4557.49C5630.88 4557.49 5498.17 4580.77 5491.4 4568.66C5484.63 4556.55 5630.88 4557.49 5630.88 4557.49Z" fill="black"/>
<path opacity="0.1" d="M6036.46 4533.19C6036.46 4533.19 5967.7 4536.23 5930.28 4553.49C5892.86 4570.75 6036.46 4533.19 6036.46 4533.19Z" fill="black"/>
<path d="M6286.3 2832.06C6286.3 2832.06 6275.2 3043.41 6281.22 3080.83C6281.22 3080.83 6256.99 3251.78 6236.76 3295.23C6216.52 3338.67 6173.01 3393.36 6173.01 3393.36L6113.32 2973.77L6127.53 2830.03L6286.3 2832.06Z" fill="#B4B2FB"/>
<path d="M5659.23 1869.16C5530.21 1869.16 5425.61 1764.57 5425.61 1635.54C5425.61 1506.52 5530.21 1401.93 5659.23 1401.93C5788.25 1401.93 5892.84 1506.52 5892.84 1635.54C5892.84 1764.57 5788.25 1869.16 5659.23 1869.16Z" fill="#EFB7B9"/>
<path d="M5780.58 1744.68C5780.58 1744.68 5853.4 1887.34 5926.22 1954.07C5999.04 2020.8 5489.31 2096.66 5477.19 2096.66C5465.08 2096.66 5568.22 1793.27 5550.01 1756.66C5531.81 1720.05 5780.58 1744.68 5780.58 1744.68Z" fill="#EFB7B9"/>
<path opacity="0.1" d="M5264.75 3368.29C5276.19 3377.02 5288.81 3384.09 5302.24 3389.27C5395.22 3425.68 5496.4 3476.23 5565.16 3456.06C5633.91 3435.9 5779.55 3456.06 5779.55 3456.06C5779.55 3456.06 6072.92 3431.77 6131.46 3445.91C6158.13 3452.34 6178.83 3452.07 6192.37 3447.47C6189.73 3423.04 6187.43 3407.47 6187.43 3407.47C6187.43 3407.47 5316.31 3266.37 5281.6 3298.24C5273.34 3305.76 5268.06 3331.54 5264.75 3368.29Z" fill="black"/>
<path d="M5201.05 3233.51C5201.05 3233.51 5209.1 3334.68 5302.22 3371.09C5395.34 3407.5 5496.38 3458.06 5565.14 3437.89C5633.9 3417.72 5779.54 3437.89 5779.54 3437.89C5779.54 3437.89 6072.91 3413.59 6131.45 3427.74C6189.99 3441.88 6220.51 3423.75 6202.3 3397.42C6184.1 3371.09 6186.06 3284.13 6186.06 3247.72C6186.06 3211.31 6206.36 3063.65 6188.16 3037.32C6169.95 3010.99 6153.78 2909.89 6117.37 2893.65C6111.9 2891.34 6107.02 2887.84 6103.09 2883.4C6099.15 2878.97 6096.26 2873.7 6094.63 2868C6091.62 2855.82 6091.79 2843.07 6095.11 2830.98C6095.11 2830.98 6101.26 2825.9 6109.72 2818.39C6131.18 2799.24 6167.45 2763.71 6155.81 2752.07C6139.64 2735.83 6155.81 2630.66 6155.81 2630.66C6155.81 2630.66 6194.25 2549.79 6180.04 2519.47C6165.83 2489.15 6303.48 2329.3 6303.48 2329.3C6303.48 2329.3 6303.48 2054.27 6137.61 2042.09C6137.61 2042.09 6020.26 2046.15 6006.11 1993.57C5991.97 1940.98 5898.91 1910.6 5898.91 1910.6L5686.48 1957.16C5686.48 1957.16 5498.41 1997.76 5463.97 1973.33C5429.52 1948.9 5403.06 2005.68 5403.06 2005.68C5403.06 2005.68 5285.78 2011.77 5273.66 2036.07C5261.55 2060.36 5312.04 2296.95 5312.04 2296.95C5312.04 2296.95 5397.04 2288.9 5390.94 2379.92C5384.85 2470.95 5423.7 2586.26 5423.7 2586.26C5423.7 2586.26 5429.79 2652.99 5425.73 2667.14C5421.94 2680.2 5433.72 2731.09 5435.61 2738.94V2739.96C5435.61 2739.96 5444.07 2773.79 5433.11 2785.84C5432.09 2786.93 5430.9 2787.84 5429.59 2788.55C5413.35 2796.6 5388.98 2875.51 5388.98 2875.51C5376.35 2890.83 5369.86 2910.29 5370.78 2930.12C5372.74 2962.54 5360.63 3039.35 5308.04 3083.88C5255.46 3128.41 5201.05 3233.51 5201.05 3233.51Z" fill="#FFC7AE"/>
<path d="M6103.23 2765.08V2773.67L6106.89 2868.42C6106.89 2868.42 6231.34 2878.5 6299.09 2861.65C6366.83 2844.8 6338.34 2769.61 6335.63 2754.04C6335.61 2753.84 6335.61 2753.64 6335.63 2753.44C6333.67 2739.22 6315.33 2620.93 6315.33 2601.71C6315.33 2582.49 6315.33 2503.58 6318.37 2467.17C6321.42 2430.76 6303.49 2329.31 6303.49 2329.31L6290.36 2313.21L6147.83 2367.82L6103.23 2765.08Z" fill="#0556AB"/>
<path opacity="0.1" d="M6103.57 2773.82L6107.22 2868.57C6107.22 2868.57 6231.68 2878.65 6299.42 2861.8C6367.16 2844.95 6338.67 2769.76 6335.97 2754.2L6103.57 2773.82Z" fill="black"/>
<path opacity="0.1" d="M6094.65 2868.06C6091.64 2855.89 6091.81 2843.14 6095.13 2831.05C6095.13 2831.05 6101.28 2825.97 6109.74 2818.46C6002.61 2803.5 5578.36 2745.3 5435.5 2738.94V2739.95C5435.5 2739.95 5443.95 2773.79 5432.99 2785.84L6094.65 2868.06Z" fill="black"/>
<path opacity="0.1" d="M5419.54 2940.97C5419.54 2940.97 5393.21 3089.86 5491.34 3142.24C5491.41 3142.51 5435.71 3068.68 5419.54 2940.97Z" fill="black"/>
<path opacity="0.1" d="M6061.77 3146.54C6061.77 3146.54 5824.9 3105.94 5778.55 3137.48C5732.19 3169.01 6061.77 3146.54 6061.77 3146.54Z" fill="black"/>
<path opacity="0.1" d="M5501.39 2225.15C5501.39 2225.15 5537.8 2374.85 5510.53 2409.23C5483.25 2443.6 5501.39 2225.15 5501.39 2225.15Z" fill="black"/>
<path opacity="0.1" d="M6187.16 2102.79C6187.16 2102.79 6153.79 2158.42 6174.03 2216.07C6194.26 2273.73 6187.16 2102.79 6187.16 2102.79Z" fill="black"/>
<path opacity="0.4" d="M6256.13 2590.31C6256.13 2590.31 6213.63 2615.56 6227.77 2655.01C6241.92 2694.46 6256.13 2590.31 6256.13 2590.31Z" fill="white"/>
<path opacity="0.4" d="M6259.99 2475C6259.99 2475 6220.6 2496.25 6215.52 2527.58C6210.45 2558.91 6259.99 2475 6259.99 2475Z" fill="white"/>
<path opacity="0.1" d="M5675.39 3684.63C5675.39 3684.63 5427.56 3709.94 5378.03 3651.27C5378.03 3651.6 5601.56 3695.8 5675.39 3684.63Z" fill="black"/>
<path opacity="0.1" d="M6103.23 3670.48C6103.23 3670.48 5837.2 3733.22 5784.62 3683.61C5784.62 3683.61 6013.23 3700.8 6103.23 3670.48Z" fill="black"/>
<path opacity="0.1" d="M5656.19 3766.64C5656.19 3766.64 5544.93 3766.64 5493.36 3769.68C5441.79 3772.73 5656.19 3766.64 5656.19 3766.64Z" fill="black"/>
<path opacity="0.1" d="M6085.03 3813.99C6085.03 3813.99 6030.42 3875.71 5968.7 3864.61C5906.98 3853.51 6085.03 3813.99 6085.03 3813.99Z" fill="black"/>
<path d="M5977.76 1287.35C5994.88 1313.95 5995.49 1344.74 5999.95 1374.25C6010.38 1443.21 6044.15 1510.01 6097 1566.31C6145.52 1617.88 6212.05 1664.64 6224.64 1727.65C6236.55 1787.47 6196.15 1845.07 6174.96 1903.6C6119.13 2057.16 6197.09 2218.23 6219.83 2376.72C6226.13 2420.51 6218.55 2476.47 6164.61 2491.03C6147.76 2495.63 6128.47 2495.02 6113.31 2502.33C6093.01 2512.07 6086.78 2532.31 6083.06 2550.51C6069.49 2615.63 6064.8 2682.29 6069.12 2748.66C6071.55 2785.89 6074.26 2828.72 6039.07 2854.31C6023.1 2866.01 6001.58 2871.97 5980.8 2877.59C5925.38 2892.54 5853.71 2904.66 5816.35 2869.53C5800.65 2854.85 5794.76 2834.14 5775.21 2822.5C5745.9 2805.11 5704.35 2816.88 5667.47 2818.71C5591.74 2822.5 5522.17 2778.1 5492.32 2724.57C5462.48 2671.04 5465.25 2609.52 5476.08 2551.8C5486.91 2494.07 5506.26 2436.75 5507.62 2378.14C5508.09 2357.84 5506.26 2337.2 5494.62 2319.2C5472.09 2284.35 5419.64 2268.51 5383.77 2241.1C5316.57 2189.67 5316.77 2105.41 5341.2 2034.89C5365.63 1964.38 5409.49 1896.77 5414.9 1823.88C5417.32 1806.26 5413.82 1788.34 5404.95 1772.92C5395.34 1758.1 5378.56 1747 5364.35 1734.75C5266.29 1651.92 5277.86 1515.89 5358.94 1422.77C5448.67 1319.57 5855.26 1097.25 5977.76 1287.35Z" fill="#61B0FB"/>
<path opacity="0.1" d="M6162.51 1967.33C6154.86 1905.82 6156.28 1844.84 6178.01 1784.95C6188.7 1755.58 6204.2 1726.41 6215.5 1696.97C6221.14 1707.62 6225.24 1719.01 6227.68 1730.81C6239.59 1790.63 6199.19 1848.23 6178.01 1906.76C6170.87 1926.4 6165.68 1946.69 6162.51 1967.33Z" fill="black"/>
<path opacity="0.1" d="M6072.19 2630.05C6067.88 2563.67 6072.55 2497.02 6086.06 2431.89C6089.85 2413.69 6096.08 2393.52 6116.38 2383.78C6131.54 2376.47 6150.83 2377.01 6167.68 2372.47C6178.03 2369.99 6187.68 2365.18 6195.89 2358.4C6204.1 2351.62 6210.66 2343.06 6215.05 2333.36C6218.17 2348.79 6220.87 2364.15 6223.11 2379.58C6229.4 2423.37 6221.82 2479.33 6167.88 2493.88C6151.03 2498.42 6131.75 2497.81 6116.59 2505.12C6096.28 2514.86 6090.06 2535.1 6086.27 2553.3C6080.06 2583.51 6075.72 2614.06 6073.27 2644.8C6072.8 2639.79 6072.53 2634.92 6072.19 2630.05Z" fill="black"/>
<path opacity="0.1" d="M5495.33 2606.02C5525.24 2659.75 5594.81 2703.95 5670.54 2700.16C5707.42 2698.26 5748.97 2686.62 5778.21 2703.95C5797.77 2715.52 5803.72 2736.3 5819.42 2750.98C5856.78 2785.83 5928.45 2773.99 5983.87 2759.03C6004.65 2753.35 6026.1 2747.46 6042.14 2735.75C6057.43 2724.51 6067.74 2707.77 6070.9 2689.06C6070.5 2709.83 6070.9 2730.68 6072.19 2751.45C6074.63 2788.68 6077.33 2831.51 6042.14 2857.16C6026.1 2868.8 6004.65 2874.76 5983.87 2880.38C5928.45 2895.33 5856.78 2907.45 5819.42 2872.32C5803.72 2857.64 5797.77 2836.93 5778.21 2824.95C5748.97 2807.56 5707.42 2819.33 5670.54 2821.16C5594.81 2824.95 5525.24 2780.55 5495.33 2727.02C5466.63 2675.32 5467.92 2616.85 5477.93 2561.02C5481.71 2576.72 5487.56 2591.86 5495.33 2606.02Z" fill="black"/>
<path opacity="0.1" d="M5367.14 1616.44C5381.62 1628.63 5398.4 1639.79 5407.74 1654.61C5416.61 1670.03 5420.11 1687.95 5417.69 1705.57C5415.73 1727.72 5411.04 1749.54 5403.75 1770.54C5392.48 1758.52 5380.13 1747.56 5366.87 1737.79C5300.55 1681.82 5284.44 1601.49 5305.96 1526.5C5317.32 1561.73 5338.55 1592.94 5367.14 1616.44V1616.44Z" fill="black"/>
<path opacity="0.1" d="M5386.84 2122.49C5422.64 2149.9 5475.15 2165.8 5497.62 2200.65C5509.33 2218.65 5511.15 2239.43 5510.68 2259.53C5509.85 2283.2 5506.95 2306.75 5502.02 2329.91C5500.74 2327.17 5499.27 2324.53 5497.62 2321.99C5475.15 2287.14 5422.64 2271.31 5386.84 2243.9C5325.45 2196.93 5320.31 2122.62 5338.45 2056.37C5347.65 2082.73 5364.49 2105.75 5386.84 2122.49V2122.49Z" fill="black"/>
<path d="M5110.63 2125.55C5110.63 2125.55 5109.31 2269.25 5049.35 2284.25C4989.39 2299.25 4925.71 2250.64 4918.69 2238.38C4911.67 2226.13 4803 2095.33 4803 2095.33L4654.54 1883.36C4654.54 1883.36 4350.68 1791.72 4464.3 1763.71C4577.92 1735.7 4733.97 1819.48 4733.97 1819.48C4733.97 1819.48 4819.7 1941.14 4844.31 1954.2C4868.92 1967.26 4935.58 2050.8 4935.58 2050.8L5110.63 2125.55Z" fill="#B4B2FB"/>
<path d="M4924.94 2147.21C4966.35 2252.45 5020.02 2293.93 5020.02 2293.93H5049.86L5312.24 2296.64L5342.49 2214.01L5299.99 2034.94L5273.73 2036.02C5273.73 2036.02 5242.33 2052.2 5223.18 2052.2C5204.03 2052.2 5166.47 2051.18 5155.51 2056.19C5153.97 2056.94 5152.25 2057.2 5150.57 2056.93C5140.62 2055.92 5130.26 2041.03 5130.26 2041.03C5130.26 2041.03 4883.45 2042.04 4924.94 2147.21Z" fill="#0556AB"/>
<path opacity="0.1" d="M4924.95 2147.21C4966.36 2252.45 5020.03 2293.93 5020.03 2293.93H5049.87C5034.31 2252.25 5001.49 2166.71 4988.97 2146.94C4976.72 2128.27 5086.62 2081.77 5150.91 2056.67C5140.96 2055.65 5130.61 2040.76 5130.61 2040.76C5130.61 2040.76 4883.46 2042.05 4924.95 2147.21Z" fill="black"/>
<path d="M3497.88 5324.99C3435.77 5387.1 3398.78 5407.81 3364.27 5414.71C3329.76 5421.61 3325.33 5324.99 3235.61 5324.99C3145.89 5324.99 3102 5359.5 3102 5359.5C3102 5359.5 3056.18 5400.91 3069.98 5483.73C3083.78 5566.55 3118.29 5607.95 3118.29 5607.95C3118.29 5607.95 3187.31 5670.07 3311.54 5718.38C3435.77 5766.69 3546.19 5745.99 3546.19 5745.99C3546.19 5745.99 3663.52 5732.18 3842.96 5670.07C4022.4 5607.95 4119.02 5545.84 4119.02 5545.84C4119.02 5545.84 4208.75 5501.15 4284.66 5449.22C4360.58 5397.28 4436.5 5290.48 4436.5 5290.48C4436.5 5290.48 4477.91 5214.56 4457.2 5104.14C4436.5 4993.71 4365 4959.2 4365 4959.2C4365 4959.2 4339.88 4931.6 4229.45 4890.19C4119.02 4848.78 4056.91 4848.78 4056.91 4848.78C4056.91 4848.78 3932.68 4848.78 3842.96 4869.48C3753.24 4890.19 3642.81 4938.5 3642.81 4938.5C3642.81 4938.5 3546.19 4979.91 3435.77 5055.83C3325.34 5131.74 3458.42 5104.21 3460.89 5124.92C3463.37 5145.62 3437.71 5140.97 3460.89 5154.77C3484.08 5168.57 3543.41 5181.25 3582.35 5139.84C3621.28 5098.43 3550.61 5235.27 3550.61 5235.27C3550.61 5235.27 3560 5262.88 3497.88 5324.99Z" fill="#E97C15"/>
<path d="M3475.49 5280.21C3413.38 5342.32 3376.39 5363.03 3341.88 5369.93C3307.37 5376.83 3302.94 5280.21 3213.22 5280.21C3123.5 5280.21 3079.61 5314.72 3079.61 5314.72C3079.61 5314.72 3033.79 5356.13 3047.59 5438.95C3061.4 5521.77 3095.9 5563.18 3095.9 5563.18C3095.9 5563.18 3164.92 5625.29 3289.15 5673.6C3413.38 5721.91 3523.8 5701.21 3523.8 5701.21C3523.8 5701.21 3641.13 5687.4 3820.57 5625.29C4000.01 5563.18 4096.63 5501.06 4096.63 5501.06C4096.63 5501.06 4186.36 5456.37 4262.27 5404.44C4338.19 5352.5 4414.11 5245.7 4414.11 5245.7C4414.11 5245.7 4455.52 5169.78 4434.81 5059.36C4414.11 4948.93 4342.61 4914.43 4342.61 4914.43C4342.61 4914.43 4317.49 4886.82 4207.06 4845.41C4096.63 4804 4034.52 4804 4034.52 4804C4034.52 4804 3910.29 4804 3820.57 4824.7C3730.85 4845.41 3620.42 4893.72 3620.42 4893.72C3620.42 4893.72 3523.8 4935.13 3413.38 5011.05C3302.95 5086.97 3259.07 5149.08 3261.54 5169.78C3264.02 5190.49 3265.96 5211.19 3289.15 5225C3312.33 5238.8 3399.57 5245.7 3438.5 5204.29C3477.44 5162.88 3528.22 5190.49 3528.22 5190.49C3528.22 5190.49 3537.61 5218.1 3475.49 5280.21Z" fill="#FEEDB5"/>
<path d="M3338.95 5493.23C3312.06 5493.23 3293.6 5511.2 3271.65 5526.29L3274.01 5523.92C3251.06 5523.92 3284.1 5559.86 3287.66 5568.26C3294.64 5584.77 3316.83 5592.44 3331.86 5600.53C3348.28 5609.37 3372.38 5608.93 3390.5 5608.93C3411.98 5608.93 3440.31 5594.37 3450.58 5575.87C3455.47 5567.07 3467.64 5563 3476.95 5561.83C3487.49 5560.52 3496.11 5556.37 3506.46 5554.49C3516.61 5552.64 3517.22 5538.7 3517.22 5531.01C3517.22 5515.49 3514.72 5508.79 3507.78 5496.64C3503.19 5488.61 3483.85 5486.46 3475.24 5486.14C3469.73 5485.94 3464.92 5483.78 3459.37 5483.78C3451.58 5483.78 3451.58 5478.74 3445.07 5475.39C3435.74 5470.58 3424.39 5469.21 3414.38 5467.39C3399.16 5464.62 3389.85 5469.62 3374.5 5469.62C3365.37 5469.62 3355.59 5480.34 3351.41 5487.46C3348.39 5492.58 3344.49 5493.23 3338.95 5493.23Z" fill="#FF5152"/>
<path d="M3645.31 5437.21C3640.9 5452.63 3642.81 5485.48 3642.81 5485.48V5487.84C3642.81 5507.16 3633.8 5525.39 3642.29 5545.56C3651.86 5568.3 3670.68 5586.94 3699.35 5582.16C3719.39 5578.82 3732.82 5556.43 3753.66 5553.83C3770.19 5551.76 3784.78 5537 3801.02 5535.2C3808.32 5534.39 3829.5 5526.46 3831.58 5517.09C3833.82 5507.03 3831.71 5493.97 3831.71 5483.64C3831.71 5474.63 3818.11 5465.17 3810.46 5461.34C3807.77 5460 3799.94 5460.44 3798.66 5458.19C3796.59 5454.58 3795.44 5448.21 3792.88 5445.34C3784.54 5435.95 3776.53 5431.39 3765.6 5425.92C3756.25 5421.25 3745.94 5414.23 3735.95 5412.41C3723.05 5410.07 3707.92 5412.28 3694.76 5412.28C3683.05 5412.28 3676.37 5421.73 3665.25 5421.73C3663.58 5421.73 3646.1 5434.44 3645.31 5437.21Z" fill="#FFB200"/>
<path d="M3907.19 5322.57C3878.27 5336.18 3856.7 5368.01 3831.89 5388.69H3834.25C3841.77 5391.2 3835.92 5395.5 3839.5 5399.97C3842.31 5403.48 3845.28 5405.49 3847.89 5408.1C3851.48 5411.69 3850.64 5416.22 3857.86 5417.02C3861.93 5417.47 3865.38 5419.89 3868.62 5421.75C3873.94 5424.78 3876.75 5423.16 3876.75 5430.01C3876.75 5435.13 3878.97 5436.18 3880.95 5440.64C3885.33 5450.48 3899.63 5459.71 3910.86 5461.76C3922.17 5463.81 3937.85 5462.58 3948.9 5460.05C3963.15 5456.79 3969.39 5451.38 3978.02 5437.36C3981.12 5432.32 3985.93 5433.55 3991.27 5433.55C3997.35 5433.55 4000.8 5429.48 4006.62 5428.83C4009.4 5428.52 4016.51 5424.37 4017.9 5421.75C4020.48 5416.88 4025.56 5417.05 4028 5412.17C4033.1 5401.97 4044.5 5393.1 4031.41 5382.92C4024.44 5377.49 4024.42 5365.23 4016.07 5359.83C4008.67 5355.05 4009.72 5353.27 4000.06 5353.27H3986.42C3980.91 5353.27 3973.18 5354.68 3967.79 5353.14C3965.06 5352.36 3966.48 5341.27 3966.48 5338.58C3966.48 5327.54 3959.02 5322.44 3951 5317.85C3938.6 5310.77 3918.7 5317.15 3907.19 5322.57Z" fill="#6AE982"/>
<path d="M4078.93 5252.64C4069.78 5265.05 4066.6 5275.7 4066.6 5290.68V5278.87C4066.6 5294.89 4064.89 5319.99 4080.76 5327.93C4085.09 5330.1 4089.29 5334.1 4093.88 5335.41C4098.89 5336.84 4103.13 5334.76 4107.79 5337.38C4111.21 5339.3 4106.74 5358.01 4106.74 5363.88C4106.74 5380.84 4138.64 5396.68 4152.13 5385.65C4156.8 5381.82 4164.17 5382.78 4169.31 5379.22C4177.18 5373.78 4186.61 5370.34 4194.89 5365.45C4202.5 5360.95 4210.18 5355.77 4216.67 5349.71L4216.84 5349.55C4225.19 5341.75 4226.61 5340.43 4231.88 5329.51C4235.37 5322.29 4243.35 5282.25 4234.11 5275.33C4223.72 5267.54 4218.33 5267.06 4204.73 5267.06C4188.29 5267.06 4199.79 5222.3 4185.84 5211.44C4167.69 5197.33 4140.08 5207.12 4122.09 5215.12C4112.12 5219.55 4098.97 5227.87 4094.67 5237.55C4092.19 5243.12 4082.66 5247.57 4078.93 5252.64Z" fill="#1373EB"/>
<path d="M4236.24 5053.63C4235.63 5056.39 4235.07 5059.25 4234.54 5062.23L4232.18 5040.98C4234.44 5045.49 4235.62 5049.52 4236.24 5053.63C4240.16 5035.69 4245.95 5021.73 4255.8 5006.09C4261.44 4997.13 4267.76 4984.31 4279.93 4984.31C4305.35 4984.31 4334.79 4979.19 4355.49 4993.75C4379.47 5010.63 4378.86 5052.65 4364.41 5073.51C4357.99 5082.8 4355.33 5093.88 4347.36 5101.85C4342.08 5107.13 4337.38 5114.2 4334.24 5121.26C4332.43 5125.35 4333.38 5128.99 4330.83 5133.07C4329.25 5135.6 4324.36 5137.56 4321.91 5140.15C4315.9 5146.52 4308.7 5148.83 4302.5 5153.79C4297.78 5157.57 4281.86 5153.84 4277.05 5151.43C4266.2 5146.01 4269.17 5133.45 4262.88 5125.98C4252.25 5113.36 4272.58 5085.84 4248.71 5085.84C4238.74 5085.84 4236.91 5077.89 4236.91 5069.31C4236.91 5063.38 4236.96 5058.45 4236.24 5053.63Z" fill="#4948EB"/>
<defs>
<linearGradient id="paint0_linear" x1="1398.75" y1="338.036" x2="5515.45" y2="6717.03" gradientUnits="userSpaceOnUse">
<stop stop-color="#61B0FB"/>
<stop offset="1" stop-color="#FEEDB5"/>
</linearGradient>
</defs>
</svg>
