<svg width="7708" height="6676" fill="none" xmlns="http://www.w3.org/2000/svg"><path opacity=".49" fill-rule="evenodd" clip-rule="evenodd" d="M5352.13 867.887C3758.45 1308.73 2455.5 289.6 1633.49 248.046 397.534 185.716-860.793 1550.32 790.695 3939.39 2442.18 6328.45 3119.16 6867.05 4925.01 6621.33c1444.92-196.58 2409.71-1566.39 2687.53-2526.25 434.72-1502.85-666.72-3667.901-2260.41-3227.193z" fill="url(#paint0_linear)"/><path d="M3009.47 2980.74v36.17l-55.6 1921.59h-93.42l45.81-1921.59v-36.17h103.21z" fill="#DE6F6F"/><path d="M3532.41 4618.45l-68.07-.16-1011.31-2.16-53.91-.08 28.72-88.46h1097.37l7.2 90.86zM2607.12 2954.51l-2.8 27.51-224.35 2212.67-102.78-4.88 236.43-2207.79 2.64-25.11 90.86-2.4z" fill="#FF5151"/><path d="M3639.99 5189.81l-102.86 4.88-224.27-2212.67-2.8-27.51 90.78 2.4 2.64 25.11 236.51 2207.79z" fill="#FF5151"/><path d="M4077.42 772.934H1811V2946.09h2266.42V772.934z" fill="#fff"/><path d="M2988.45 46.111v524.773h-88.39V46.111a44.414 44.414 0 0 1 2.81-17.495 44.266 44.266 0 0 1 9.45-14.989 44.25 44.25 0 0 1 49.3-10.078 44.314 44.314 0 0 1 14.57 10.078 44.234 44.234 0 0 1 12.26 32.484z" fill="#DE6F6F"/><path d="M3023.17 558.937v173.245h-157.33V558.937a21.47 21.47 0 0 1 6.28-15.237c2-2 4.38-3.585 6.99-4.662a21.45 21.45 0 0 1 8.25-1.616h114.45a21.507 21.507 0 0 1 15.11 6.358 21.478 21.478 0 0 1 6.25 15.157z" fill="#DE6F6F"/><path d="M2944.22 673.637c18.46 0 33.43-14.968 33.43-33.433 0-18.464-14.97-33.433-33.43-33.433-18.47 0-33.44 14.969-33.44 33.433 0 18.465 14.97 33.433 33.44 33.433z" fill="#FBB5BA"/><path d="M3087.72 725.062h-286.91v47.83h286.91v-47.83z" fill="#DE6F6F"/><path opacity=".1" d="M3044.7 2955.66h-168.53v26.31h168.53v-26.31z" fill="#000"/><path d="M2363.89 2904.26h1204.96c13.78 0 27.01 5.47 36.76 15.22a52.007 52.007 0 0 1 15.23 36.77v11.35H2311.9v-11.35c0-13.79 5.48-27.02 15.23-36.77a51.975 51.975 0 0 1 36.76-15.22z" fill="#FF5151"/><path fill="#966178" d="M1811 776.049h2266.42v238.106H1811z"/><circle cx="1916.8" cy="899.575" r="44.094" fill="#FF666F"/><circle cx="2040.38" cy="899.493" r="44.094" fill="#F5AC3E"/><circle cx="2163.81" cy="899.493" r="44.094" fill="#FBFF4B"/><path fill="#61B0FB" d="M1925.66 1164.03h723.137v467.393H1925.66z"/><path fill="#FEEDB5" d="M3239.66 1710.8h723.137v467.393H3239.66z"/><path fill="#FF5152" d="M1925.66 2257.65h723.137v467.393H1925.66z"/><path fill="#61B0FB" d="M2745.79 1164.03h1216.99v97.006H2745.79zM2745.75 1349.21h1216.99v97.006H2745.75zM2745.75 1534.39h1216.99v97.006H2745.75z"/><path fill="#FEEDB5" d="M1925.56 1710.8h1216.99v97.006H1925.56zM1925.54 1895.98h1216.99v97.006H1925.54zM1925.54 2081.15h1216.99v97.006H1925.54z"/><path fill="#FF5152" d="M2745.79 2257.65h1216.99v97.006H2745.79zM2745.75 2442.83h1216.99v97.006H2745.75zM2745.75 2628h1216.99v97.006H2745.75z"/><path d="M3760.04 1535.58c36.29 10.02 58.5-.49 75.6-6.48 4.52-12.92 16.33-33.54 17.02-46.06.86-15.64-29.98-51.14-61.54-64.77-31.56-13.63-61.87-25.19-81.2-29.47-19.33-4.28-63.8-3.41-81.66 4.2-17.87 7.6-31.79 30.75-24.6 29.39 7.18-1.36 21.65.73 36.21 6.42 14.55 5.69 35.74 40.09 48.16 57.85 12.41 17.76 35.72 38.89 72.01 48.92z" fill="#F78F11"/><path d="M4006.25 1631.15l48.51-90.04s-51-22.92-77.67-33.16c-26.68-10.23-77.46-23.54-77.46-23.54s-12.13-4.55-38.57-3.97c-26.43.59-33.33 15.16-33.33 15.16s-4.62 8.52.48 21.64c5.1 13.11 14.84 18.91 14.84 18.91s34.34 30.5 79.33 53.56c44.99 23.05 83.87 41.44 83.87 41.44z" fill="#FFEDB6"/><path d="M4787.52 1919c-46.89 11.54-543.88-176.68-778.41-286.14-4.85-2.09-14.08-39.09-7.27-57.15 6.82-18.06 35.8-31.03 52.16-34.57 260.84 121.22 780.41 366.32 733.52 377.86z" fill="#FBDB7D"/><path opacity=".1" d="M5750.65 5884.8c-444.32 0-804.52-60.38-804.52-134.87 0-74.49 360.2-134.88 804.52-134.88 444.33 0 804.52 60.39 804.52 134.88s-360.19 134.87-804.52 134.87zM3897.5 5762.74c-348.77 0-631.5-47.4-631.5-105.87 0-58.47 282.73-105.87 631.5-105.87s631.5 47.4 631.5 105.87c0 58.47-282.73 105.87-631.5 105.87zM2607.5 5014.06c-250.46 0-453.5-34.04-453.5-76.03s203.04-76.03 453.5-76.03 453.5 34.04 453.5 76.03-203.04 76.03-453.5 76.03z" fill="#6C63FF"/><path d="M5405.04 5642.75c1.15 4.74 2.37 9.68 3.86 14.68 13.53 47.38 39.45 36.41 115.05 113.77a151.428 151.428 0 0 0 69.39 42.38 151.52 151.52 0 0 0 81.32.39 18.27 18.27 0 0 0 13.53-19.22l-9.54-125.47-4.53-60.37s-120.73 33.84-182.18-9.13a74.893 74.893 0 0 1-5.96-4.54c-.47-.43-.92-.88-1.35-1.35a49.277 49.277 0 0 0-27.99-11.21 49.302 49.302 0 0 0-29.29 7.17 49.29 49.29 0 0 0-19.64 22.87c-4 9.48-4.93 19.99-2.67 30.03zM5784.01 5595.34c1.15 4.74 2.37 9.68 3.86 14.69 13.53 47.37 39.45 36.41 115.04 113.76a151.426 151.426 0 0 0 69.4 42.38 151.42 151.42 0 0 0 81.32.39c4.15-1.1 7.79-3.63 10.27-7.14 2.47-3.52 3.63-7.8 3.26-12.08l-9.54-125.47-4.53-60.37s-120.74 33.84-182.19-9.13a70.772 70.772 0 0 1-5.95-4.54c-.48-.42-.93-.88-1.36-1.35a49.248 49.248 0 0 0-27.98-11.21 49.375 49.375 0 0 0-29.29 7.17 49.34 49.34 0 0 0-19.64 22.87c-4 9.49-4.94 19.99-2.67 30.03z" fill="#1A4C80"/><path opacity=".1" d="M5908.75 5614.17l-4.87 65.24c69.3 69.23 151.8-33.84 175.96-67.68-63.55 32.76-171.09 2.44-171.09 2.44zM5501.4 5640.68l-9.07-6.02c63.28 96.23 157.28 51.83 186.58 34.58l-4.53-60.37s-120.73 33.84-182.18-9.14c4.8 23.56 9.2 40.95 9.2 40.95z" fill="#000"/><path d="M5308.67 3818.67c48.6 121.34 97.12 527.86 103.21 575.24 6.09 47.37 4.53 239.7 4.53 239.7l12.18 472.98c1.56 59.22 45.55 207.9 45.55 207.9s15.16 124.39 7.58 165.33c-7.58 40.95 19.69 148.89 19.69 148.89l-9.06-6.09c75.86 115.04 195.71 28.83 195.71 28.83s28.83-139.55-1.56-174.47c-30.38-34.92 10.63-142.59 10.63-142.59s-15.16-559.81-19.69-585.6c-4.54-25.78 18.2-104.69 39.45-169.93 21.25-65.24-12.18-323.15-19.76-370.18-7.58-47.04 3.05-260.96 10.63-304.95 7.57-43.98-9.07-227.59-9.07-227.59 30.32-91.02 54.61-9.07 54.61-9.07l24.3 238.15 25.78 488.55s-3.05 148.89 19.69 191.18c22.74 42.3 42.5 151.66 42.5 151.66l-10.62 552.3s1.49 115.05-6.09 159.24c-7.58 44.19 16.71 157.82 16.71 157.82 84.94 200.11 221.37-16.85 221.37-16.85s-6.09-33.37-18.21-37.9c-12.11-4.53 4.54-86.49 13.54-100.16 9-13.67-1.49-112.27-1.49-112.27s10.63-89.47 27.07-197.21c16.45-107.74 12.11-523.4 1.49-549.18-10.63-25.79-19.69-145.64-19.69-145.64s12.11-68.28-3.05-116.87c-15.16-48.6 36.41-253.31 36.41-276.12 0-22.81 19.69-163.84 30.32-179 10.62-15.16 10.62-42.5 10.62-42.5s1.49-30.32 27.07-121.34c18.82-66.46 7.72-197.48.34-263.46-2.64-24.43-4.94-40-4.94-40s-870.1-141.1-904.82-109.23c-8.12 7.52-13.53 33.3-16.71 70.05-10.36 120.19 6.7 357.73 43.78 450.38z" fill="#FF5152"/><path opacity=".1" d="M5637.96 4500.85c-4.06 0-100.16 8.12-135.35 1.02-35.19-7.11 135.35-1.02 135.35-1.02zM5630.88 4557.49s-132.71 23.28-139.48 11.17c-6.77-12.11 139.48-11.17 139.48-11.17zM6036.46 4533.19s-68.76 3.04-106.18 20.3 106.18-20.3 106.18-20.3z" fill="#000"/><path d="M6286.3 2832.06s-11.1 211.35-5.08 248.77c0 0-24.23 170.95-44.46 214.4-20.24 43.44-63.75 98.13-63.75 98.13l-59.69-419.59 14.21-143.74 158.77 2.03z" fill="#B4B2FB"/><path d="M5659.23 1869.16c-129.02 0-233.62-104.59-233.62-233.62 0-129.02 104.6-233.61 233.62-233.61s233.61 104.59 233.61 233.61c0 129.03-104.59 233.62-233.61 233.62z" fill="#EFB7B9"/><path d="M5780.58 1744.68s72.82 142.66 145.64 209.39c72.82 66.73-436.91 142.59-449.03 142.59-12.11 0 91.03-303.39 72.82-340-18.2-36.61 230.57-11.98 230.57-11.98z" fill="#EFB7B9"/><path opacity=".1" d="M5264.75 3368.29c11.44 8.73 24.06 15.8 37.49 20.98 92.98 36.41 194.16 86.96 262.92 66.79 68.75-20.16 214.39 0 214.39 0s293.37-24.29 351.91-10.15c26.67 6.43 47.37 6.16 60.91 1.56-2.64-24.43-4.94-40-4.94-40s-871.12-141.1-905.83-109.23c-8.26 7.52-13.54 33.3-16.85 70.05z" fill="#000"/><path d="M5201.05 3233.51s8.05 101.17 101.17 137.58c93.12 36.41 194.16 86.97 262.92 66.8 68.76-20.17 214.4 0 214.4 0s293.37-24.3 351.91-10.15c58.54 14.14 89.06-3.99 70.85-30.32-18.2-26.33-16.24-113.29-16.24-149.7 0-36.41 20.3-184.07 2.1-210.4-18.21-26.33-34.38-127.43-70.79-143.67a39.678 39.678 0 0 1-14.28-10.25c-3.94-4.43-6.83-9.7-8.46-15.4a73.36 73.36 0 0 1 .48-37.02s6.15-5.08 14.61-12.59c21.46-19.15 57.73-54.68 46.09-66.32-16.17-16.24 0-121.41 0-121.41s38.44-80.87 24.23-111.19c-14.21-30.32 123.44-190.17 123.44-190.17s0-275.03-165.87-287.21c0 0-117.35 4.06-131.5-48.52-14.14-52.59-107.2-82.97-107.2-82.97l-212.43 46.56s-188.07 40.6-222.51 16.17c-34.45-24.43-60.91 32.35-60.91 32.35s-117.28 6.09-129.4 30.39c-12.11 24.29 38.38 260.88 38.38 260.88s85-8.05 78.9 82.97c-6.09 91.03 32.76 206.34 32.76 206.34s6.09 66.73 2.03 80.88c-3.79 13.06 7.99 63.95 9.88 71.8v1.02s8.46 33.83-2.5 45.88c-1.02 1.09-2.21 2-3.52 2.71-16.24 8.05-40.61 86.96-40.61 86.96a80.019 80.019 0 0 0-18.2 54.61c1.96 32.42-10.15 109.23-62.74 153.76-52.58 44.53-106.99 149.63-106.99 149.63z" fill="#FFC7AE"/><path d="M6103.23 2765.08v8.59l3.66 94.75s124.45 10.08 192.2-6.77c67.74-16.85 39.25-92.04 36.54-107.61-.02-.2-.02-.4 0-.6-1.96-14.22-20.3-132.51-20.3-151.73s0-98.13 3.04-134.54c3.05-36.41-14.88-137.86-14.88-137.86l-13.13-16.1-142.53 54.61-44.6 397.26z" fill="#0556AB"/><path opacity=".1" d="M6103.57 2773.82l3.65 94.75s124.46 10.08 192.2-6.77 39.25-92.04 36.55-107.6l-232.4 19.62z" fill="#000"/><path opacity=".1" d="M6094.65 2868.06a73.323 73.323 0 0 1 .48-37.01s6.15-5.08 14.61-12.59c-107.13-14.96-531.38-73.16-674.24-79.52v1.01s8.45 33.84-2.51 45.89l661.66 82.22zM5419.54 2940.97s-26.33 148.89 71.8 201.27c.07.27-55.63-73.56-71.8-201.27zM6061.77 3146.54s-236.87-40.6-283.22-9.06c-46.36 31.53 283.22 9.06 283.22 9.06zM5501.39 2225.15s36.41 149.7 9.14 184.08c-27.28 34.37-9.14-184.08-9.14-184.08zM6187.16 2102.79s-33.37 55.63-13.13 113.28c20.23 57.66 13.13-113.28 13.13-113.28z" fill="#000"/><path opacity=".4" d="M6256.13 2590.31s-42.5 25.25-28.36 64.7c14.15 39.45 28.36-64.7 28.36-64.7zM6259.99 2475s-39.39 21.25-44.47 52.58c-5.07 31.33 44.47-52.58 44.47-52.58z" fill="#fff"/><path opacity=".1" d="M5675.39 3684.63s-247.83 25.31-297.36-33.36c0 .33 223.53 44.53 297.36 33.36zM6103.23 3670.48s-266.03 62.74-318.61 13.13c0 0 228.61 17.19 318.61-13.13zM5656.19 3766.64s-111.26 0-162.83 3.04c-51.57 3.05 162.83-3.04 162.83-3.04zM6085.03 3813.99s-54.61 61.72-116.33 50.62c-61.72-11.1 116.33-50.62 116.33-50.62z" fill="#000"/><path d="M5977.76 1287.35c17.12 26.6 17.73 57.39 22.19 86.9 10.43 68.96 44.2 135.76 97.05 192.06 48.52 51.57 115.05 98.33 127.64 161.34 11.91 59.82-28.49 117.42-49.68 175.95-55.83 153.56 22.13 314.63 44.87 473.12 6.3 43.79-1.28 99.75-55.22 114.31-16.85 4.6-36.14 3.99-51.3 11.3-20.3 9.74-26.53 29.98-30.25 48.18a736.766 736.766 0 0 0-13.94 198.15c2.43 37.23 5.14 80.06-30.05 105.65-15.97 11.7-37.49 17.66-58.27 23.28-55.42 14.95-127.09 27.07-164.45-8.06-15.7-14.68-21.59-35.39-41.14-47.03-29.31-17.39-70.86-5.62-107.74-3.79-75.73 3.79-145.3-40.61-175.15-94.14-29.84-53.53-27.07-115.05-16.24-172.77 10.83-57.73 30.18-115.05 31.54-173.66.47-20.3-1.36-40.94-13-58.94-22.53-34.85-74.98-50.69-110.85-78.1-67.2-51.43-67-135.69-42.57-206.21 24.43-70.51 68.29-138.12 73.7-211.01a80.283 80.283 0 0 0-9.95-50.96c-9.61-14.82-26.39-25.92-40.6-38.17-98.06-82.83-86.49-218.86-5.41-311.98 89.73-103.2 496.32-325.52 618.82-135.42z" fill="#61B0FB"/><path opacity=".1" d="M6162.51 1967.33c-7.65-61.51-6.23-122.49 15.5-182.38 10.69-29.37 26.19-58.54 37.49-87.98 5.64 10.65 9.74 22.04 12.18 33.84 11.91 59.82-28.49 117.42-49.67 175.95a319.038 319.038 0 0 0-15.5 60.57zM6072.19 2630.05c-4.31-66.38.36-133.03 13.87-198.16 3.79-18.2 10.02-38.37 30.32-48.11 15.16-7.31 34.45-6.77 51.3-11.31 10.35-2.48 20-7.29 28.21-14.07a69.819 69.819 0 0 0 19.16-25.04c3.12 15.43 5.82 30.79 8.06 46.22 6.29 43.79-1.29 99.75-55.23 114.3-16.85 4.54-36.13 3.93-51.29 11.24-20.31 9.74-26.53 29.98-30.32 48.18a750.503 750.503 0 0 0-13 91.5c-.47-5.01-.74-9.88-1.08-14.75zM5495.33 2606.02c29.91 53.73 99.48 97.93 175.21 94.14 36.88-1.9 78.43-13.54 107.67 3.79 19.56 11.57 25.51 32.35 41.21 47.03 37.36 34.85 109.03 23.01 164.45 8.05 20.78-5.68 42.23-11.57 58.27-23.28a73.034 73.034 0 0 0 28.76-46.69c-.4 20.77 0 41.62 1.29 62.39 2.44 37.23 5.14 80.06-30.05 105.71-16.04 11.64-37.49 17.6-58.27 23.22-55.42 14.95-127.09 27.07-164.45-8.06-15.7-14.68-21.65-35.39-41.21-47.37-29.24-17.39-70.79-5.62-107.67-3.79-75.73 3.79-145.3-40.61-175.21-94.14-28.7-51.7-27.41-110.17-17.4-166 3.78 15.7 9.63 30.84 17.4 45zM5367.14 1616.44c14.48 12.19 31.26 23.35 40.6 38.17a80.283 80.283 0 0 1 9.95 50.96 270.948 270.948 0 0 1-13.94 64.97 270.525 270.525 0 0 0-36.88-32.75c-66.32-55.97-82.43-136.3-60.91-211.29a193.128 193.128 0 0 0 61.18 89.94zM5386.84 2122.49c35.8 27.41 88.31 43.31 110.78 78.16 11.71 18 13.53 38.78 13.06 58.88-.83 23.67-3.73 47.22-8.66 70.38a65.139 65.139 0 0 0-4.4-7.92c-22.47-34.85-74.98-50.68-110.78-78.09-61.39-46.97-66.53-121.28-48.39-187.53 9.2 26.36 26.04 49.38 48.39 66.12z" fill="#000"/><path d="M5110.63 2125.55s-1.32 143.7-61.28 158.7-123.64-33.61-130.66-45.87c-7.02-12.25-115.69-143.05-115.69-143.05l-148.46-211.97s-303.86-91.64-190.24-119.65c113.62-28.01 269.67 55.77 269.67 55.77s85.73 121.66 110.34 134.72c24.61 13.06 91.27 96.6 91.27 96.6l175.05 74.75z" fill="#B4B2FB"/><path d="M4924.94 2147.21c41.41 105.24 95.08 146.72 95.08 146.72h29.84l262.38 2.71 30.25-82.63-42.5-179.07-26.26 1.08s-31.4 16.18-50.55 16.18-56.71-1.02-67.67 3.99a8.272 8.272 0 0 1-4.94.74c-9.95-1.01-20.31-15.9-20.31-15.9s-246.81 1.01-205.32 106.18z" fill="#0556AB"/><path opacity=".1" d="M4924.95 2147.21c41.41 105.24 95.08 146.72 95.08 146.72h29.84c-15.56-41.68-48.38-127.22-60.9-146.99-12.25-18.67 97.65-65.17 161.94-90.27-9.95-1.02-20.3-15.91-20.3-15.91s-247.15 1.29-205.66 106.45z" fill="#000"/><path d="M3497.88 5324.99c-62.11 62.11-99.1 82.82-133.61 89.72-34.51 6.9-38.94-89.72-128.66-89.72S3102 5359.5 3102 5359.5s-45.82 41.41-32.02 124.23c13.8 82.82 48.31 124.22 48.31 124.22s69.02 62.12 193.25 110.43c124.23 48.31 234.65 27.61 234.65 27.61s117.33-13.81 296.77-75.92c179.44-62.12 276.06-124.23 276.06-124.23s89.73-44.69 165.64-96.62c75.92-51.94 151.84-158.74 151.84-158.74s41.41-75.92 20.7-186.34c-20.7-110.43-92.2-144.94-92.2-144.94s-25.12-27.6-135.55-69.01c-110.43-41.41-172.54-41.41-172.54-41.41s-124.23 0-213.95 20.7c-89.72 20.71-200.15 69.02-200.15 69.02s-96.62 41.41-207.04 117.33c-110.43 75.91 22.65 48.38 25.12 69.09 2.48 20.7-23.18 16.05 0 29.85 23.19 13.8 82.52 26.48 121.46-14.93 38.93-41.41-31.74 95.43-31.74 95.43s9.39 27.61-52.73 89.72z" fill="#E97C15"/><path d="M3475.49 5280.21c-62.11 62.11-99.1 82.82-133.61 89.72-34.51 6.9-38.94-89.72-128.66-89.72s-133.61 34.51-133.61 34.51-45.82 41.41-32.02 124.23c13.81 82.82 48.31 124.23 48.31 124.23s69.02 62.11 193.25 110.42 234.65 27.61 234.65 27.61 117.33-13.81 296.77-75.92 276.06-124.23 276.06-124.23 89.73-44.69 165.64-96.62c75.92-51.94 151.84-158.74 151.84-158.74s41.41-75.92 20.7-186.34c-20.7-110.43-92.2-144.93-92.2-144.93s-25.12-27.61-135.55-69.02-172.54-41.41-172.54-41.41-124.23 0-213.95 20.7c-89.72 20.71-200.15 69.02-200.15 69.02s-96.62 41.41-207.04 117.33c-110.43 75.92-154.31 138.03-151.84 158.73 2.48 20.71 4.42 41.41 27.61 55.22 23.18 13.8 110.42 20.7 149.35-20.71 38.94-41.41 89.72-13.8 89.72-13.8s9.39 27.61-52.73 89.72z" fill="#FEEDB5"/><path d="M3338.95 5493.23c-26.89 0-45.35 17.97-67.3 33.06l2.36-2.37c-22.95 0 10.09 35.94 13.65 44.34 6.98 16.51 29.17 24.18 44.2 32.27 16.42 8.84 40.52 8.4 58.64 8.4 21.48 0 49.81-14.56 60.08-33.06 4.89-8.8 17.06-12.87 26.37-14.04 10.54-1.31 19.16-5.46 29.51-7.34 10.15-1.85 10.76-15.79 10.76-23.48 0-15.52-2.5-22.22-9.44-34.37-4.59-8.03-23.93-10.18-32.54-10.5-5.51-.2-10.32-2.36-15.87-2.36-7.79 0-7.79-5.04-14.3-8.39-9.33-4.81-20.68-6.18-30.69-8-15.22-2.77-24.53 2.23-39.88 2.23-9.13 0-18.91 10.72-23.09 17.84-3.02 5.12-6.92 5.77-12.46 5.77z" fill="#FF5152"/><path d="M3645.31 5437.21c-4.41 15.42-2.5 48.27-2.5 48.27v2.36c0 19.32-9.01 37.55-.52 57.72 9.57 22.74 28.39 41.38 57.06 36.6 20.04-3.34 33.47-25.73 54.31-28.33 16.53-2.07 31.12-16.83 47.36-18.63 7.3-.81 28.48-8.74 30.56-18.11 2.24-10.06.13-23.12.13-33.45 0-9.01-13.6-18.47-21.25-22.3-2.69-1.34-10.52-.9-11.8-3.15-2.07-3.61-3.22-9.98-5.78-12.85-8.34-9.39-16.35-13.95-27.28-19.42-9.35-4.67-19.66-11.69-29.65-13.51-12.9-2.34-28.03-.13-41.19-.13-11.71 0-18.39 9.45-29.51 9.45-1.67 0-19.15 12.71-19.94 15.48z" fill="#FFB200"/><path d="M3907.19 5322.57c-28.92 13.61-50.49 45.44-75.3 66.12h2.36c7.52 2.51 1.67 6.81 5.25 11.28 2.81 3.51 5.78 5.52 8.39 8.13 3.59 3.59 2.75 8.12 9.97 8.92 4.07.45 7.52 2.87 10.76 4.73 5.32 3.03 8.13 1.41 8.13 8.26 0 5.12 2.22 6.17 4.2 10.63 4.38 9.84 18.68 19.07 29.91 21.12 11.31 2.05 26.99.82 38.04-1.71 14.25-3.26 20.49-8.67 29.12-22.69 3.1-5.04 7.91-3.81 13.25-3.81 6.08 0 9.53-4.07 15.35-4.72 2.78-.31 9.89-4.46 11.28-7.08 2.58-4.87 7.66-4.7 10.1-9.58 5.1-10.2 16.5-19.07 3.41-29.25-6.97-5.43-6.99-17.69-15.34-23.09-7.4-4.78-6.35-6.56-16.01-6.56h-13.64c-5.51 0-13.24 1.41-18.63-.13-2.73-.78-1.31-11.87-1.31-14.56 0-11.04-7.46-16.14-15.48-20.73-12.4-7.08-32.3-.7-43.81 4.72z" fill="#6AE982"/><path d="M4078.93 5252.64c-9.15 12.41-12.33 23.06-12.33 38.04v-11.81c0 16.02-1.71 41.12 14.16 49.06 4.33 2.17 8.53 6.17 13.12 7.48 5.01 1.43 9.25-.65 13.91 1.97 3.42 1.92-1.05 20.63-1.05 26.5 0 16.96 31.9 32.8 45.39 21.77 4.67-3.83 12.04-2.87 17.18-6.43 7.87-5.44 17.3-8.88 25.58-13.77 7.61-4.5 15.29-9.68 21.78-15.74l.17-.16c8.35-7.8 9.77-9.12 15.04-20.04 3.49-7.22 11.47-47.26 2.23-54.18-10.39-7.79-15.78-8.27-29.38-8.27-16.44 0-4.94-44.76-18.89-55.62-18.15-14.11-45.76-4.32-63.75 3.68-9.97 4.43-23.12 12.75-27.42 22.43-2.48 5.57-12.01 10.02-15.74 15.09z" fill="#1373EB"/><path d="M4236.24 5053.63c-.61 2.76-1.17 5.62-1.7 8.6l-2.36-21.25c2.26 4.51 3.44 8.54 4.06 12.65 3.92-17.94 9.71-31.9 19.56-47.54 5.64-8.96 11.96-21.78 24.13-21.78 25.42 0 54.86-5.12 75.56 9.44 23.98 16.88 23.37 58.9 8.92 79.76-6.42 9.29-9.08 20.37-17.05 28.34-5.28 5.28-9.98 12.35-13.12 19.41-1.81 4.09-.86 7.73-3.41 11.81-1.58 2.53-6.47 4.49-8.92 7.08-6.01 6.37-13.21 8.68-19.41 13.64-4.72 3.78-20.64.05-25.45-2.36-10.85-5.42-7.88-17.98-14.17-25.45-10.63-12.62 9.7-40.14-14.17-40.14-9.97 0-11.8-7.95-11.8-16.53 0-5.93.05-10.86-.67-15.68z" fill="#4948EB"/><defs><linearGradient id="paint0_linear" x1="1398.75" y1="338.036" x2="5515.45" y2="6717.03" gradientUnits="userSpaceOnUse"><stop stop-color="#61B0FB"/><stop offset="1" stop-color="#FEEDB5"/></linearGradient></defs></svg>