<svg id="Layer_1" data-name="Layer 1" xmlns="http://www.w3.org/2000/svg" viewBox="0 0 100 100"><defs><style>.cls-1{fill:#e8f4fa}.cls-2{fill:#fff}.cls-3{fill:#ff866e}.cls-5{fill:#4acfff}.cls-6{fill:#80ddff}.cls-7{fill:#fff48c}.cls-10{fill:#daedf7}.cls-12,.cls-19{fill:none;stroke:#45413c}.cls-12{stroke-linejoin:round}.cls-14{fill:#ff6242}.cls-17{fill:#00b8f0}.cls-19{stroke-miterlimit:10}</style></defs><circle class="cls-1" cx="50" cy="50" r="40" id="_Group_" data-name="&lt;Group&gt;"/><path class="cls-1" d="M74.37 55.73H28.55l2.99-7.47h39.84l2.99 7.47z"/><path class="cls-2" d="M72.16 50.2l-.78-1.94H31.54l-.78 1.94h41.4z"/><path class="cls-3" d="M46.99 48.26h3.18l-.82 7.47h-4.3l1.94-7.47z"/><path fill="#ffa694" d="M49.96 50.2l.21-1.94h-3.18l-.5 1.94h3.47z"/><path class="cls-5" d="M56.52 48.26h-3.17l.82 7.47h4.3l-1.95-7.47z"/><path class="cls-6" d="M57.03 50.2l-.51-1.94h-3.17l.21 1.94h3.47z"/><path class="cls-7" d="M53.35 48.26h-3.18l-.82 7.47h4.82l-.82-7.47z"/><path fill="#fffacf" d="M53.56 50.2l-.21-1.94h-3.18l-.21 1.94h3.6z"/><path d="M71.49 81.45c0 1-9.27 1.73-20.7 1.73s-20.7-.77-20.7-1.73 9.26-1.72 20.7-1.72 20.7.77 20.7 1.72z" fill="#020202" opacity=".15"/><path class="cls-10" d="M72.62 67.41a2 2 0 0 1-2 1.71H32.27a2 2 0 0 1-2-1.71l-1.72-11.68h45.82z"/><path fill="#c0dceb" d="M74.11 57.51l.26-1.78H28.55l.27 1.78h45.29z"/><path class="cls-12" d="M72.62 67.41a2 2 0 0 1-2 1.71H32.27a2 2 0 0 1-2-1.71l-1.72-11.68h45.82z"/><path d="M34 62.2h34.92v2.62a1 1 0 0 1-1 1H35a1 1 0 0 1-1-1V62.2z" fill="#525252" stroke-linejoin="round" stroke="#45413c"/><rect class="cls-10" x="32.53" y="59.08" width="37.85" height="3.12" rx="1" ry="1"/><path class="cls-2" d="M69.24 59.08H33.68a1.15 1.15 0 0 0-1.15 1.15v.54a1.17 1.17 0 0 0 .08.37 1.13 1.13 0 0 1 1.07-.79h35.56a1.13 1.13 0 0 1 1.07.79 1.17 1.17 0 0 0 .08-.37v-.54a1.15 1.15 0 0 0-1.15-1.15z"/><rect class="cls-12" x="32.53" y="59.08" width="37.85" height="3.12" rx="1" ry="1"/><path class="cls-12" d="M74.37 55.73H28.55l2.99-7.47h39.84l2.99 7.47z"/><path class="cls-1" d="M34.12 27.34H68.8a2.58 2.58 0 0 1 2.58 2.58v18.34H31.54V29.92a2.58 2.58 0 0 1 2.58-2.58z"/><path class="cls-2" d="M68.41 27.34h-33.9a3 3 0 0 0-3 3v2.3a3 3 0 0 1 3-3h33.9a3 3 0 0 1 3 3v-2.3a3 3 0 0 0-3-3z"/><path class="cls-12" d="M34.12 27.34H68.8a2.58 2.58 0 0 1 2.58 2.58v18.34H31.54V29.92a2.58 2.58 0 0 1 2.58-2.58z"/><path class="cls-14" d="M40.5 41.83a3 3 0 1 1-3-3 3 3 0 0 1 3 3z"/><path class="cls-3" d="M37.51 40.42a3 3 0 0 1 2.87 2.2 2.9 2.9 0 0 0 .12-.79 3 3 0 1 0-6 0 3.35 3.35 0 0 0 .11.79 3 3 0 0 1 2.9-2.2z"/><path class="cls-12" d="M40.5 41.83a3 3 0 1 1-3-3 3 3 0 0 1 3 3z"/><path d="M66.9 43.77a2 2 0 1 1-2-2 2 2 0 0 1 2 2z" fill="#8ca4b8"/><path d="M64.91 43.34a2 2 0 0 1 1.83 1.21 2 2 0 0 0 .16-.78 2 2 0 1 0-3.83.78 2 2 0 0 1 1.84-1.21z" fill="#adc4d9"/><path class="cls-12" d="M66.9 43.77a2 2 0 1 1-2-2 2 2 0 0 1 2 2z"/><rect class="cls-17" x="61.78" y="31.39" width="6.35" height="6.35" rx="1" ry="1"/><path class="cls-5" d="M67 31.38h-4a1.15 1.15 0 0 0-1.15 1.15v4a1.13 1.13 0 0 0 .3.76l5.66-5.65a1.13 1.13 0 0 0-.81-.26z"/><rect class="cls-12" x="61.78" y="31.39" width="6.35" height="6.35" rx="1" ry="1"/><path class="cls-14" d="M46.99 27.34h3.17v20.92h-3.17z"/><path class="cls-3" d="M46.99 27.34h3.17v2.3h-3.17z"/><path fill="#ffe500" d="M50.17 27.34h3.17v20.92h-3.17z"/><path class="cls-7" d="M50.17 27.34h3.17v2.3h-3.17z"/><path class="cls-17" d="M53.35 27.34h3.17v20.92h-3.17z"/><path class="cls-5" d="M53.35 27.34h3.17v2.3h-3.17z"/><path class="cls-19" d="M46.99 27.34h3.17v20.92h-3.17zM50.17 27.34h3.17v20.92h-3.17zM53.35 27.34h3.17v20.92h-3.17z"/><path class="cls-17" d="M59.1 38.29a7.14 7.14 0 1 1-7.1-7.14 7.15 7.15 0 0 1 7.1 7.14z"/><path class="cls-5" d="M34.77 74.16a1.15 1.15 0 0 1-.93-1.84 17.27 17.27 0 0 0 2.85-10.12h29c0 3.56.79 7.34 2.85 10.12a1.15 1.15 0 0 1 .1 1.21 1.17 1.17 0 0 1-1 .63z"/><path class="cls-6" d="M54.47 62.2H36.69a17.27 17.27 0 0 1-2.85 10.12 1.15 1.15 0 0 0 .92 1.84h7.76z"/><path class="cls-2" d="M33.84 72.32a1.15 1.15 0 0 0 .92 1.84h32.8a1.15 1.15 0 0 0 .93-1.84 13 13 0 0 1-1.69-3.2H35.53a13 13 0 0 1-1.69 3.2z"/><path class="cls-12" d="M34.77 74.16a1.15 1.15 0 0 1-.93-1.84 17.27 17.27 0 0 0 2.85-10.12h29c0 3.56.79 7.34 2.85 10.12a1.15 1.15 0 0 1 .1 1.21 1.17 1.17 0 0 1-1 .63z"/><path class="cls-5" d="M56.82 33.09a7.12 7.12 0 0 0-10.07 10.06z"/><path class="cls-19" d="M59.1 38.29a7.14 7.14 0 1 1-7.1-7.14 7.15 7.15 0 0 1 7.1 7.14zM46.99 48.26h3.18l-.82 7.47h-4.3l1.94-7.47zM56.52 48.26h-3.17l.82 7.47h4.3l-1.95-7.47z"/><path class="cls-19" d="M53.35 48.26h-3.18l-.82 7.47h4.82l-.82-7.47z"/></svg>