<svg width="1029" height="949" viewBox="0 0 1029 949" fill="none" xmlns="http://www.w3.org/2000/svg">
<path opacity="0.49" fill-rule="evenodd" clip-rule="evenodd" d="M314.27 87.959C526.866 146.767 700.677 10.8162 810.333 5.27296C975.208 -3.04184 1143.07 178.995 922.76 497.694C702.454 816.392 612.146 888.241 371.247 855.461C178.497 829.238 49.7952 646.508 12.7339 518.463C-45.2565 317.984 101.674 29.1691 314.27 87.959Z" fill="url(#paint0_linear)"/>
<path opacity="0.49" fill-rule="evenodd" clip-rule="evenodd" d="M976.492 565.771C972.015 543.545 942.416 538.712 930.85 558.202C903.507 604.271 843.562 687.082 788.716 734.909C711.751 802.014 840.453 867.928 913.918 838.205C987.383 808.481 983.812 604.093 976.759 566.872L976.492 565.771Z" fill="url(#paint1_linear)"/>
<g style="mix-blend-mode:multiply" opacity="0.4">
<path d="M127.054 717.322C219.764 733.027 715.861 666.32 785 629.5C834.026 583.431 798.405 523.695 420.374 597.437C42.3428 671.179 34.3445 701.616 127.054 717.322Z" fill="#CCDFDE"/>
</g>
<path d="M706.5 942C724.1 950.8 708 894 700 877C692 860 680 848.5 680 848.5C673 848.5 658.6 852.9 657 870.5C655 892.5 684.5 931 706.5 942Z" fill="#C76E64"/>
<path d="M692.5 904C705.7 913.6 701 881 697 863.5L677 835.5L669.5 852.5C671.667 865.667 679.3 894.4 692.5 904Z" fill="#FAB1A2"/>
<path d="M590 824.95L605.674 809.276L655.64 853.924L659.402 868.082C670.149 894.133 686.056 946.688 663.701 948.501C641.346 950.313 606.659 864.027 590 824.95Z" fill="#E98375"/>
<path d="M605.674 809.277L621.348 793C621.348 799.752 642.648 827.563 658.121 840.021C660.532 862.728 662.943 906.454 653.298 899.702C643.653 892.95 620.142 833.792 605.674 809.277Z" fill="#FAB1A2"/>
<path d="M678.274 478C679.131 474.129 644.705 484.404 635 487L615 534.855L739.994 631.418L730.01 679.276C710.342 730.672 671.705 836.371 674.5 848C677.994 862.536 697.612 867.192 698 862C698.388 856.808 708.94 832.849 768.332 721.231C827.723 609.613 809.479 601.826 799.774 585.213C790.07 568.6 693.198 509.44 680 497.5C669.442 487.948 677.416 481.871 678.274 478Z" fill="#08448B"/>
<path d="M591.234 652.933C504.481 610.235 544.525 523.388 574 486.5C580.914 494.824 644.308 482.476 639.312 488.896C634.317 495.315 639.213 505.932 644.308 513.767C648.383 520.034 721.144 571.159 756.806 590.746C794.36 615.425 774.152 660.605 768.451 671.051C762.75 681.497 692.786 808.201 659.793 873C652.879 873 621.908 846.073 617.832 797.107C613.757 748.14 672.868 690.964 697.127 658.809C656.08 669.778 609.429 659.462 591.234 652.933Z" fill="#0D64DB"/>
<path d="M750.92 314.101C756.011 278.463 722.561 232.869 704.593 226.419C686.624 219.968 673.12 344.315 662.686 395.971L735.268 415.578C738.364 396.601 745.829 349.738 750.92 314.101Z" fill="#FAB1A2"/>
<path d="M683.326 22.9125C669.394 15.0006 645.487 18.0393 637.575 22.9125C633.585 11.7672 611.03 -1.85478 582.708 0.209172C554.387 2.27312 518.554 19.1287 483.639 60.9235C448.724 102.718 453.884 178.74 447.864 202.82C441.844 226.899 426.365 232.575 409.853 279.014C393.342 325.452 420.689 374.471 465.752 370.515C510.814 366.559 731.974 254.331 710.914 252.087C689.854 249.842 690.205 166.185 705.341 134.366C717.45 108.91 719.674 91.8827 719.273 86.5508C718.585 40.1121 697.257 30.8244 683.326 22.9125Z" fill="#223762"/>
<path d="M592.168 216.063C598.36 207.945 605.297 157.617 608.049 135.43C627.312 141.851 666.314 157.952 660.535 162.631C654.756 167.309 656.322 200.813 658.73 216.063C660.049 219.274 658.524 226.349 641.874 228.963C621.063 232.231 584.428 226.211 592.168 216.063Z" fill="#F58E79"/>
<path d="M678.509 146.75C691.443 131.339 709.124 82.5954 699.665 81.9074C690.205 81.2194 688.141 80.2906 668.878 78.6395C649.614 76.9883 632.873 58.5734 626.911 49.5723C626.911 49.5723 625.535 49.5723 620.891 54.5601C616.247 59.548 593.578 112.763 611.603 144.686C634.134 184.589 662.342 166.013 678.509 146.75Z" fill="#FAB1A2"/>
<path d="M546.417 238.423C560.314 221.224 580.415 215.777 588.728 215.204C686.834 210.25 705.337 223.87 713.021 232.357C720.705 240.844 717.394 248.151 719.917 260.707C747.574 291.804 698.232 430.714 674.898 486.268L566.369 496.932C581.642 447.81 565.509 360.998 555.533 323.733C576.035 282.591 557.998 249.717 546.417 238.423Z" fill="#E9621B"/>
<path d="M913.523 278.175L871.732 311.811L929.152 333.216L913.523 278.175Z" fill="#E9E6D7"/>
<path d="M773.541 275.457L623.706 437.183L620.308 440.921L764.707 506.155L936.287 335.255L921.337 281.572H914.542L928.812 332.537L773.541 275.457Z" fill="#3F89EF"/>
<path d="M921.1 281.572H914.542L928.694 332.536L936.287 334.575L921.1 281.572Z" fill="#596885"/>
<path d="M771.254 301.138L778.659 293.08L821.347 309.85L814.378 318.562L771.254 301.138Z" fill="#D6E3FA"/>
<path d="M477.408 382.728C480.516 368.726 534.607 248.915 547.277 237.563C579.784 246.335 567.057 310.317 557.597 323.905C548.137 337.492 519.758 408.01 518.382 427.274C517.006 446.537 647.619 432.778 653.639 425.21C659.659 417.642 679.713 402.162 687.453 400.099C695.193 398.035 673.782 419.129 676.434 425.21C679.085 431.29 704.446 428.375 708.437 427.274C712.427 426.173 731.828 417.298 730.968 420.222C730.108 423.146 711.188 437.594 714.8 435.186C718.412 432.778 733.72 431.918 740.084 432.778C745.593 433.522 724.419 440.841 717.071 442.347C722.743 442.409 736.302 443.47 735.784 446.193C735.233 449.083 721.565 451.64 714.8 452.557C718.986 452.958 727.356 454.759 727.356 458.749C727.356 462.739 696.36 454.22 681.797 452.557C660.745 466.454 558.919 470.345 500.203 470.843C441.487 471.341 474.3 396.729 477.408 382.728Z" fill="#FAB1A2"/>
<path d="M708.807 228.334C714.631 232.112 727.062 253.722 725.664 272.775C724.266 291.829 713.466 247.99 708.807 228.334Z" fill="#E9621B"/>
<path d="M268.722 667L265.222 643L166.222 684C139.722 678.333 84.2223 667.6 74.2223 670C61.7223 673 70.2223 698 72.2223 698.5C73.8223 698.9 135.556 707.667 166.222 712L268.722 667Z" fill="#FCF8F5"/>
<path d="M163.722 633L71.2223 665C52.7224 683.5 71.2223 704 71.2223 705C71.2223 705.8 136.222 714.667 168.722 719C203.556 704.333 273.622 674.5 275.222 672.5C276.822 670.5 273.722 666 270.222 667C266.722 668 167.222 710 167.222 710C167.222 710 107.722 700.579 87.7223 700.079C67.7223 699.579 70.389 681.579 75.7223 675.079L166.222 687C244.622 656.2 279.722 637.5 275.222 636.5C270.722 635.5 163.722 633 163.722 633Z" fill="#E9621B"/>
<ellipse cx="300.693" cy="458.106" rx="21.6135" ry="19.9509" fill="#FDA551"/>
<ellipse cx="301.311" cy="457.916" rx="16.0558" ry="14.8207" fill="#F56323"/>
<path d="M234.466 379.074L124.193 359.111L118.522 366.975L242.028 388.753L234.466 379.074Z" fill="#223762"/>
<path d="M234.617 362.199L122.845 340.585L117.287 348.613L238.323 370.844L234.617 362.199Z" fill="#223762"/>
<path d="M142.606 657.996L89.4982 368.375H98.1436L153.104 657.996H142.606Z" fill="#223762"/>
<path d="M158.967 656.76L107.406 367.757H115.8L169.159 656.76H158.967Z" fill="#223762"/>
<circle cx="102.466" cy="350.466" r="23.4661" fill="#4C93F4"/>
<circle cx="103.084" cy="351.083" r="10.498" fill="#223762"/>
<path d="M253.143 410.366L227.207 369.609C225.725 367.28 227.825 364.934 229.06 364.052C234 360.758 244.374 353.924 246.351 352.936C248.327 351.948 250.467 353.348 251.291 354.171L277.227 394.31C317.243 394.31 340.009 420.247 346.39 433.215L258.701 488.792C235.482 455.693 245.321 422.717 253.143 410.366Z" fill="#196DDF"/>
<defs>
<linearGradient id="paint0_linear" x1="110.5" y1="150" x2="923.509" y2="817.496" gradientUnits="userSpaceOnUse">
<stop stop-color="#F3AA3D"/>
<stop offset="1" stop-color="#0F66DB"/>
</linearGradient>
<linearGradient id="paint1_linear" x1="849.081" y1="658.452" x2="962.865" y2="793.338" gradientUnits="userSpaceOnUse">
<stop stop-color="#0F66DB"/>
<stop offset="0.819505" stop-color="#FFD46A"/>
</linearGradient>
</defs>
</svg>
