<svg width="1029" height="980" fill="none" xmlns="http://www.w3.org/2000/svg"><path opacity=".49" fill-rule="evenodd" clip-rule="evenodd" d="M314.27 82.959C526.866 141.767 700.677 5.816 810.333.273 975.208-8.042 1143.07 173.995 922.76 492.694 702.454 811.392 612.146 883.241 371.247 850.461 178.497 824.238 49.795 641.508 12.734 513.463c-57.99-200.479 88.94-489.294 301.536-430.504z" fill="url(#paint0_linear)"/><path opacity=".49" fill-rule="evenodd" clip-rule="evenodd" d="M976.492 560.771c-4.477-22.226-34.076-27.059-45.642-7.569-27.343 46.069-87.288 128.88-142.134 176.707-76.965 67.105 51.737 133.019 125.202 103.296 73.465-29.724 69.894-234.112 62.841-271.333l-.267-1.101z" fill="url(#paint1_linear)"/><path d="M127.055 712.322C219.764 728.027 715.861 661.32 785 624.5c49.027-46.069 13.405-105.805-364.626-32.063-378.031 73.742-386.03 104.179-293.319 119.885z" fill="#CCDFDE" opacity=".4"/><path d="M268.723 662l-3.5-24-99 41c-26.5-5.667-82-16.4-92-14-12.5 3-4 28-2 28.5 1.6.4 63.333 9.167 94 13.5l102.5-45z" fill="#FCF8F5"/><path d="M163.723 628l-92.5 32c-18.5 18.5 0 39 0 40 0 .8 65 9.667 97.5 14 34.833-14.667 104.9-44.5 106.5-46.5 1.6-2-1.5-6.5-5-5.5s-103 43-103 43-59.501-9.421-79.5-9.921c-20-.5-17.334-18.5-12-25l90.5 11.921c78.4-30.8 113.5-49.5 109-50.5s-111.5-3.5-111.5-3.5z" fill="#E9621B"/><ellipse cx="300.693" cy="453.106" rx="21.613" ry="19.951" fill="#FDA551"/><ellipse cx="301.311" cy="452.916" rx="16.056" ry="14.821" fill="#F56323"/><path d="M234.467 374.074l-110.273-19.962-5.672 7.864 123.506 21.777-7.561-9.679zM234.618 357.199l-111.773-21.613-5.558 8.028 121.036 22.231-3.705-8.646zM142.606 652.996L89.498 363.375h8.646l54.96 289.621h-10.498zM158.967 651.761l-51.56-289.004h8.393l53.36 289.004h-10.193z" fill="#223762"/><circle cx="102.466" cy="345.466" r="23.466" fill="#4C93F4"/><circle cx="103.084" cy="346.084" r="10.498" fill="#223762"/><path d="M253.144 405.366l-25.937-40.757c-1.482-2.329.618-4.675 1.853-5.557 4.94-3.294 15.315-10.128 17.291-11.116 1.976-.988 4.117.412 4.94 1.235l25.936 40.139c40.016 0 62.782 25.937 69.164 38.905l-87.69 55.577c-23.219-33.099-13.379-66.075-5.557-78.426z" fill="#196DDF"/><path d="M666 961c10.4-7.6 0-53.5-6.5-75.5L627 852l-26.5 27c7.5 13.833 25.8 47 39 69s23.167 17.833 26.5 13z" fill="#C76E64"/><path d="M657.5 898.5c0-4.4 1.667-22.5 2.5-31l-26-26h-9l9 35c16.5 44.5 23.5 27.5 23.5 22z" fill="#FAB1A2"/><path d="M548.5 848.5l18.5-11 47 38 12.5 30c10 16.4 10.5 47.833 9.5 61.5-6.5 23-22 9-34.5-2.5s-51-93.5-53-101.5c-1.6-6.4-.667-12.333 0-14.5z" fill="#E98375"/><path d="M567 837.5c0-2 7.667-3.833 11.5-4.5l35 41.5 4 20c1 20-12.5 13-21.5 6.5s-29-61-29-63.5z" fill="#FAB1A2"/><path d="M663.142 495C644.342 484.6 645 468.667 648 464c-20 14.8-44.691 23.5-54.858 24l7 45 161.5 102.5c-45.167 60.5-134.8 185-132 199 2.8 14 21.833 26.833 31 31.5 0-8.5 53.5-77 101-141.5 38-51.6 58.5-88.5 64-100.5 25.5-61-139-116-162.5-129z" fill="#2160AA"/><path d="M455.142 585.5c-14-46.8 22.167-94.5 42-112.5 37.2 16 84.167 16.667 103 15-7.5 26 11 32.5 16.5 35 4.4 2 108 43.5 119 47s44.5 24 50 51c4.4 21.6-47.5 80.333-63 94.5-15.5 14.167-80.667 110-108.5 158-13.6.4-25-16.833-29-25.5-14.4-29.2-6-61.833 0-74.5 12.8-50 64.667-104.833 89-126-10.4 2.4-63.667 4.333-89 5-89.6.8-124-44.333-130-67z" fill="#0D64DB"/><path d="M673.957 264.421C668.542 252.746 648.489 230.825 640 227l9.987 238c14.315-38.419 42.546-121.744 40.948-147.69-1.598-25.945-11.564-41.213-16.978-52.889z" fill="#FAB1A2"/><path d="M624.326 43.913c-13.932-7.912-37.839-4.874-45.751 0-3.99-11.146-26.545-24.768-54.867-22.704-28.321 2.064-64.154 18.92-99.069 60.715-34.915 41.794-29.755 117.816-35.775 141.896-6.02 24.079-21.499 29.755-38.011 76.194-16.511 46.438 10.836 95.457 55.899 91.501 45.062-3.956 266.222-116.184 245.162-118.428-21.06-2.245-20.709-85.902-5.573-117.721 12.109-25.456 14.333-42.483 13.932-47.815-.688-46.439-22.016-55.727-35.947-63.639z" fill="#223762"/><path d="M527.94 212c10.807-11.6 18.513-39.5 21.014-52 21.349 4.5 62.445 14.8 56.04 20-6.404 5.2 2.669 37.167 8.006 52.5L573.972 248c-19.847-7.167-56.84-24.4-46.032-36z" fill="#FAB1A2"/><path d="M493.722 226.5l35-15.5c19.5 31.5 40.6 32.7 56 30 15.4-2.7 20.333-20.333 22-30l33 15.5 23 54.5c32.5 60-11.5 183-16.5 188.5-4 4.4-12.334 7.5-16 8.5-42 22.8-106.167 6.5-133-4.5 14-26.4-5.834-97-17.5-129l14-118z" fill="#E9621B"/><path d="M693.946 296.682l7.405-8.059 42.688 16.77-6.97 8.712-43.123-17.423z" fill="#D6E3FA"/><path d="M836.215 260.718l-41.791 33.637 57.42 21.405-15.629-55.042z" fill="#E9E6D7"/><path d="M696.233 258L546.398 419.727 543 423.464l144.399 65.234 171.58-170.9-14.95-53.682h-6.795l14.27 50.964L696.233 258z" fill="#3F89EF"/><path d="M843.792 264.115h-6.558l14.151 50.965 7.594 2.038-15.187-53.003z" fill="#596885"/><path d="M616.766 169.177c12.934-15.41 30.615-64.154 21.155-64.842-9.459-.688-11.523-1.617-30.787-3.268C587.871 99.416 571.13 81.001 565.167 72c0 0-3.311 1.488-6.019 4.988-2.709 3.5-27.313 58.203-9.288 90.125 22.531 39.903 50.738 21.328 66.906 2.064z" fill="#FDB9AB"/><path d="M443.222 266.5C458.422 235.3 484 227.333 494 227c14.4 16 13.555 42.167 12.222 53.5-.4 11.2-29.834 68.333-44.5 95.5-18 32.5-15 42.5-7.5 42.5 6 0 97.5-11 142.5-16.5 6.4-8 24.333-16.333 32.5-19.5 8.5-2.833 26-8.1 28-6.5 2 1.6-7.5 10.667-12.5 15h37c8 0 6.666 3.667 5 5.5 0 0-19.222 0-21.722.5s-1.278 5-1.278 5c4.833-.167 16.4-.4 24 0 7.6.4 5.833 3.167 4 4.5l-25.722 1s-1.278 3-.278 4.5 8.8.4 16 0c7.2-.4 6.333 3.5 5 5.5 0 0-22.722-1-22.222 2s2.922 4 9.722 4c6.8 0 5.5 3 4 4.5-7-.333-26-.8-46 0s-26-2.667-26.5-4.5c-32.4 21.6-94.5 40-121.5 46.5-79.2 16.8-94.334-17.667-92-37 3-60 32-127.5 51-166.5z" fill="#FAB1A2"/><path d="M694.167 281.81l7.469-9.744 46.5 18.5-6.138 10.175-47.831-18.931z" fill="#8FBEFF"/><defs><linearGradient id="paint0_linear" x1="110.5" y1="145" x2="923.509" y2="812.496" gradientUnits="userSpaceOnUse"><stop stop-color="#F3AA3D"/><stop offset="1" stop-color="#0F66DB"/></linearGradient><linearGradient id="paint1_linear" x1="849.081" y1="653.452" x2="962.865" y2="788.338" gradientUnits="userSpaceOnUse"><stop stop-color="#0F66DB"/><stop offset=".82" stop-color="#FFD46A"/></linearGradient></defs></svg>