<svg width="1677" height="1652" viewBox="0 0 1677 1652" fill="none" xmlns="http://www.w3.org/2000/svg">
<path opacity="0.49" fill-rule="evenodd" clip-rule="evenodd" d="M1196.23 465.911C871 555.875 605.103 347.898 437.352 339.418C185.126 326.698 -71.6652 605.178 265.36 1092.72C602.385 1580.27 740.539 1690.18 1109.07 1640.04C1403.94 1599.92 1600.82 1320.38 1657.52 1124.5C1746.23 817.803 1521.46 375.974 1196.23 465.911Z" fill="url(#paint0_linear)"/>
<path opacity="0.49" fill-rule="evenodd" clip-rule="evenodd" d="M5.76972 965.245C12.6189 931.244 57.8999 923.851 75.5938 953.667C117.423 1024.14 209.126 1150.83 293.03 1223.99C410.771 1326.65 213.883 1427.49 101.496 1382.02C-10.8913 1336.54 -5.42823 1023.87 5.36202 966.93L5.76972 965.245Z" fill="url(#paint1_linear)"/>
<path d="M1147.39 1044.82L1242.42 1370.76" stroke="#FFD46A" stroke-width="8.21004"/>
<path d="M982.027 1221.74C986.953 1219.28 982.437 1197.46 979.564 1186.85C961.57 1191.37 924.515 1201.14 920.246 1204.09C915.977 1207.05 913.678 1220.92 913.062 1227.49C933.998 1226.6 977.101 1224.21 982.027 1221.74Z" fill="#1A2B42"/>
<path d="M874.007 986.887C882.71 976.214 982.996 952.61 1032.05 942.142C1044.86 939.354 1026.71 1005.98 1016.04 1039.64C1002.43 1040.66 970.845 1044.77 953.439 1052.98C931.683 1063.24 939.277 1088.08 941.535 1101.62C943.793 1115.17 983.406 1181.26 980.327 1186.6C977.864 1190.87 956.997 1195.76 946.871 1197.68C944.135 1195.97 929.097 1176.87 890.838 1114.14C843.014 1035.74 863.129 1000.23 874.007 986.887Z" fill="#08448B"/>
<path d="M873.186 729.091C866.126 722.852 847.808 681.695 851.5 671C855.193 660.306 907.34 687.302 917.521 698.304C927.701 709.305 966.507 733.265 984.638 743.869C967.26 750.164 932.668 761.973 933.325 758.853C933.982 755.733 920.052 742.091 913.005 735.659C904.59 746.127 882.012 736.891 873.186 729.091Z" fill="#FAB1A2"/>
<path d="M1010.7 1414.27L1013.36 1381.84H980.787C980.025 1382.97 975.948 1386.3 965.737 1390.59C955.525 1394.89 947.257 1408.17 944.4 1414.27H1010.7Z" fill="#1A2B42"/>
<path d="M1156.43 1029.17C1164.31 999.284 1162.57 938.908 1159.5 933.777C1156.43 928.646 1032.45 938.498 1032.45 938.498C1028.96 960.596 1022.86 1017.1 1013.99 1049.28C1002.91 1089.51 984.843 1229.08 980.327 1254.33C976.715 1274.53 978.822 1348.27 980.327 1382.61H1013.17C1015.9 1368.24 1024.21 1327.56 1035.54 1279.78C1049.7 1220.05 1086.24 1165.66 1092.19 1154.58C1098.14 1143.49 1146.58 1066.52 1156.43 1029.17Z" fill="#0D64DB"/>
<path d="M1051.37 770.779C1015.08 738.103 989.589 733.765 981.379 735.681L928.835 753.333C920.83 761.953 899.238 783.71 876.906 801.772C848.992 824.349 746.161 936.622 749.856 936.622C752.812 936.622 763.266 947.842 768.123 953.452C829.22 917.807 953.629 845.737 962.496 842.617C973.58 838.717 1028.58 929.077 1030.43 935.03C1032.27 940.982 1066.15 939.29 1094.06 941.753C1116.39 943.723 1144.89 941.324 1158.3 936.877C1158.91 932.772 1161.59 913.757 1151.74 894.545C1139.42 870.531 1096.73 811.624 1051.37 770.779Z" fill="#E9621B"/>
<path d="M860.461 627.287C843.22 642.721 847.119 663.821 851.224 672.442C894.669 695.362 982.38 741.201 985.664 741.201C989.769 741.201 1025.28 751.258 1058.53 762.752C1091.78 774.246 1107.79 779.378 1166.9 772.81C1226.01 766.242 1260.5 734.222 1270.55 721.702C1280.61 709.182 1278.36 676.752 1270.55 664.232C1262.74 651.711 1257.21 632.984 1204.67 612.508C1152.12 592.033 1125.85 605.119 1111.07 605.119C1096.29 605.119 1019.33 630.981 1009.68 632.828C1000.03 634.676 936.814 620.308 931.888 618.05C926.962 615.793 882.012 607.993 860.461 627.287Z" fill="#223762"/>
<path d="M759.772 957.827L765.5 955.486L771 951L751.384 935L746.065 939.292C741.974 943.129 731.95 952.208 724.585 957.827C715.38 964.851 708.424 977.338 709.038 980.654C709.652 983.971 713.948 990.019 716.198 993.141C717.998 995.638 722.54 992.1 724.585 990.019V980.654C726.085 978.638 730.927 974.333 738.292 973.24C745.656 972.148 746.543 981.11 746.065 985.727C747.702 985.727 752.121 984.049 756.703 977.338C761.285 970.626 760.658 961.534 759.772 957.827Z" fill="#FAB1A2"/>
<path d="M1246.89 1446.54C1243.81 1458.04 1003.36 1454.28 979.379 1453.58" stroke="black" stroke-width="2.05251"/>
<circle r="178.363" transform="matrix(-1 0 0 1 637.96 1420.63)" stroke="black" stroke-width="20.5251"/>
<line y1="-2.36096" x2="336.201" y2="-2.36096" transform="matrix(0 -1 -1 0 637.96 1588.73)" stroke="black" stroke-width="4.72193"/>
<line y1="-2.36096" x2="336.201" y2="-2.36096" transform="matrix(-0.5 -0.866025 -0.866025 0.5 722.011 1566.21)" stroke="black" stroke-width="4.72193"/>
<line y1="-2.36096" x2="336.201" y2="-2.36096" transform="matrix(-0.866025 -0.5 -0.5 0.866025 783.54 1504.68)" stroke="black" stroke-width="4.72193"/>
<line y1="-2.36096" x2="336.201" y2="-2.36096" transform="matrix(-1 0 0 1 806.061 1420.63)" stroke="black" stroke-width="4.72193"/>
<line y1="-2.36096" x2="336.201" y2="-2.36096" transform="matrix(-0.866025 0.5 0.5 0.866025 783.54 1336.58)" stroke="black" stroke-width="4.72193"/>
<line y1="-2.36096" x2="336.201" y2="-2.36096" transform="matrix(-0.5 0.866025 0.866025 0.5 722.011 1275.05)" stroke="black" stroke-width="4.72193"/>
<path fill-rule="evenodd" clip-rule="evenodd" d="M870.92 1338.12C831.205 1248.99 741.839 1186.85 637.96 1186.85C534.081 1186.85 444.715 1248.99 405 1338.12H440.272C477.603 1267.06 552.122 1218.6 637.96 1218.6C723.798 1218.6 798.316 1267.06 835.647 1338.12H870.92Z" fill="#FFD46A"/>
<path d="M805.24 1034.35L734.223 1000.07" stroke="#FFD46A" stroke-width="8.21004"/>
<circle r="23.6039" transform="matrix(-1 0 0 1 734.018 994.12)" fill="#F5A226"/>
<circle r="178.363" transform="matrix(-1 0 0 1 1243.04 1415.23)" stroke="black" stroke-width="20.5251"/>
<line y1="-2.36096" x2="336.201" y2="-2.36096" transform="matrix(0 -1 -1 0 1243.04 1583.33)" stroke="black" stroke-width="4.72193"/>
<line y1="-2.36096" x2="336.201" y2="-2.36096" transform="matrix(-0.5 -0.866025 -0.866025 0.5 1327.09 1560.81)" stroke="black" stroke-width="4.72193"/>
<line y1="-2.36096" x2="336.201" y2="-2.36096" transform="matrix(-0.866025 -0.5 -0.5 0.866025 1388.62 1499.28)" stroke="black" stroke-width="4.72193"/>
<line y1="-2.36096" x2="336.201" y2="-2.36096" transform="matrix(-1 0 0 1 1411.14 1415.23)" stroke="black" stroke-width="4.72193"/>
<line y1="-2.36096" x2="336.201" y2="-2.36096" transform="matrix(-0.866025 0.5 0.5 0.866025 1388.62 1331.18)" stroke="black" stroke-width="4.72193"/>
<line y1="-2.36096" x2="336.201" y2="-2.36096" transform="matrix(-0.5 0.866025 0.866025 0.5 1327.09 1269.65)" stroke="black" stroke-width="4.72193"/>
<circle r="17.8568" transform="matrix(-1 0 0 1 1246.94 1408.87)" fill="black" stroke="black" stroke-width="1.23151"/>
<path fill-rule="evenodd" clip-rule="evenodd" d="M1476 1331.49C1436.29 1242.35 1346.92 1180.22 1243.04 1180.22C1139.16 1180.22 1049.8 1242.35 1010.08 1331.49H1045.35C1082.68 1260.43 1157.2 1211.97 1243.04 1211.97C1328.88 1211.97 1403.4 1260.43 1440.73 1331.49H1476Z" fill="#FFD46A"/>
<circle r="48.0767" transform="matrix(-1 0 0 1 965.13 1407.5)" stroke="black" stroke-width="1.13567"/>
<circle r="42.0905" transform="matrix(-1 0 0 1 965.13 1407.5)" fill="black" stroke="black" stroke-width="0.994263"/>
<path d="M1247.35 1371.35C1244.13 1359.88 1007.78 1362.8 983.808 1363.78" stroke="black" stroke-width="2.05251"/>
<circle r="41.5853" transform="matrix(-1 0 0 1 1242.63 1407.5)" stroke="black" stroke-width="0.98233"/>
<circle r="36.4074" transform="matrix(-1 0 0 1 1242.63 1407.5)" fill="black" stroke="black" stroke-width="0.860017"/>
<path d="M811.808 1002.54C790.819 1137.1 729.016 1376.88 711.645 1383.28C694.275 1389.67 663.25 1412.07 658.485 1414.06" stroke="#FFD46A" stroke-width="8.21004"/>
<path d="M1205.89 1405.65L1013.36 1405.44" stroke="#FFD46A" stroke-width="8.21004"/>
<path d="M1018.09 1037.84L806.06 1040.71" stroke="#FFD46A" stroke-width="8.21004"/>
<path d="M798.467 1079.5L943.579 1363.78" stroke="#FFD46A" stroke-width="8.21004"/>
<circle cx="897" cy="509.5" r="22" fill="url(#paint2_linear)"/>
<circle cx="844" cy="453" r="32" fill="url(#paint3_linear)"/>
<circle cx="770.5" cy="377.5" r="51.5" fill="url(#paint4_linear)"/>
<mask id="mask0" mask-type="alpha" maskUnits="userSpaceOnUse" x="431" y="0" width="360" height="359">
<path d="M790 179.5C790 278.635 709.635 359 610.5 359C511.365 359 431 278.635 431 179.5C431 80.3649 511.365 0 610.5 0C709.635 0 790 80.3649 790 179.5Z" fill="url(#paint5_linear)"/>
</mask>
<g mask="url(#mask0)">
<circle cx="610.5" cy="179.5" r="179.5" fill="url(#paint6_linear)"/>
<ellipse cx="751.933" cy="105.693" rx="0.784783" ry="0.693071" fill="#C4C4C4"/>
<ellipse cx="700.922" cy="116.089" rx="0.784783" ry="0.693071" fill="#C4C4C4"/>
<ellipse cx="762.135" cy="175" rx="1.56957" ry="1.38614" fill="#C4C4C4"/>
<ellipse cx="789.21" cy="113.317" rx="1.17718" ry="1.03961" fill="#C4C4C4"/>
<ellipse cx="779.008" cy="133.762" rx="1.17718" ry="1.03961" fill="#C4C4C4"/>
<ellipse cx="753.502" cy="120.941" rx="0.784783" ry="0.693071" fill="#C4C4C4"/>
<ellipse cx="696.213" cy="165.297" rx="0.784783" ry="0.693071" fill="#C4C4C4"/>
<ellipse cx="724.073" cy="111.584" rx="1.17718" ry="1.03961" fill="#C4C4C4"/>
<ellipse cx="717.403" cy="131.337" rx="0.784783" ry="0.693071" fill="#C4C4C4"/>
<ellipse cx="635.785" cy="179.159" rx="0.784783" ry="0.693071" fill="#C4C4C4"/>
<ellipse cx="736.237" cy="166.683" rx="0.784783" ry="0.693071" fill="#C4C4C4"/>
<ellipse cx="788.033" cy="152.129" rx="0.784783" ry="0.693071" fill="#C4C4C4"/>
<ellipse cx="782.539" cy="227.673" rx="0.784783" ry="0.693071" fill="#C4C4C4"/>
<ellipse cx="788.033" cy="196.485" rx="0.784783" ry="0.693071" fill="#C4C4C4"/>
<ellipse cx="747.224" cy="142.426" rx="0.784783" ry="0.693071" fill="#C4C4C4"/>
<ellipse cx="763.705" cy="150.742" rx="0.784783" ry="0.693071" fill="#C4C4C4"/>
<ellipse cx="683.657" cy="122.327" rx="0.784783" ry="0.693071" fill="#C4C4C4"/>
<ellipse cx="715.44" cy="144.852" rx="1.17718" ry="1.03961" fill="#C4C4C4"/>
<ellipse cx="663.645" cy="146.238" rx="1.17718" ry="1.03961" fill="#C4C4C4"/>
<ellipse cx="685.226" cy="135.495" rx="0.784783" ry="0.693071" fill="#C4C4C4"/>
<ellipse cx="532.135" cy="42.0002" rx="1.56957" ry="1.38614" fill="#C4C4C4"/>
<ellipse cx="573.336" cy="2.84161" rx="1.17718" ry="1.03961" fill="#C4C4C4"/>
<ellipse cx="609.044" cy="12.8911" rx="0.784783" ry="0.693071" fill="#C4C4C4"/>
<ellipse cx="549.008" cy="0.762262" rx="1.17718" ry="1.03961" fill="#C4C4C4"/>
<ellipse cx="466.213" cy="32.2971" rx="0.784783" ry="0.693071" fill="#C4C4C4"/>
<ellipse cx="506.237" cy="33.6833" rx="0.784783" ry="0.693071" fill="#C4C4C4"/>
<ellipse cx="567.843" cy="41.6536" rx="1.17718" ry="1.03961" fill="#C4C4C4"/>
<ellipse cx="558.033" cy="19.1286" rx="0.784783" ry="0.693071" fill="#C4C4C4"/>
<ellipse cx="552.539" cy="94.6733" rx="0.784783" ry="0.693071" fill="#C4C4C4"/>
<ellipse cx="582.361" cy="101.604" rx="0.784783" ry="0.693071" fill="#C4C4C4"/>
<ellipse cx="558.033" cy="63.4853" rx="0.784783" ry="0.693071" fill="#C4C4C4"/>
<ellipse cx="517.224" cy="9.42574" rx="0.784783" ry="0.693071" fill="#C4C4C4"/>
<ellipse cx="587.07" cy="19.8217" rx="0.784783" ry="0.693071" fill="#C4C4C4"/>
<ellipse cx="591.386" cy="-0.62348" rx="1.17718" ry="1.03961" fill="#C4C4C4"/>
<ellipse cx="619.246" cy="33.6833" rx="0.784783" ry="0.693071" fill="#C4C4C4"/>
<ellipse cx="617.676" cy="66.2578" rx="0.784783" ry="0.693071" fill="#C4C4C4"/>
<ellipse cx="533.705" cy="17.7424" rx="0.784783" ry="0.693071" fill="#C4C4C4"/>
<ellipse cx="594.526" cy="41.6536" rx="1.17718" ry="1.03961" fill="#C4C4C4"/>
<ellipse cx="643.967" cy="76.3072" rx="1.17718" ry="1.03961" fill="#C4C4C4"/>
<ellipse cx="593.348" cy="75.9606" rx="0.784783" ry="0.693071" fill="#C4C4C4"/>
<ellipse cx="485.44" cy="11.8516" rx="1.17718" ry="1.03961" fill="#C4C4C4"/>
<ellipse cx="433.645" cy="13.2376" rx="1.17718" ry="1.03961" fill="#C4C4C4"/>
<ellipse cx="455.226" cy="2.49507" rx="0.784783" ry="0.693071" fill="#C4C4C4"/>
<ellipse cx="547.933" cy="103.693" rx="0.784783" ry="0.693071" fill="#C4C4C4"/>
<ellipse cx="496.922" cy="114.089" rx="0.784783" ry="0.693071" fill="#C4C4C4"/>
<ellipse cx="558.135" cy="173" rx="1.56957" ry="1.38614" fill="#C4C4C4"/>
<ellipse cx="599.336" cy="133.842" rx="1.17718" ry="1.03961" fill="#C4C4C4"/>
<ellipse cx="585.21" cy="111.317" rx="1.17718" ry="1.03961" fill="#C4C4C4"/>
<ellipse cx="635.044" cy="143.891" rx="0.784783" ry="0.693071" fill="#C4C4C4"/>
<ellipse cx="575.008" cy="131.762" rx="1.17718" ry="1.03961" fill="#C4C4C4"/>
<ellipse cx="549.502" cy="118.941" rx="0.784783" ry="0.693071" fill="#C4C4C4"/>
<ellipse cx="492.213" cy="163.297" rx="0.784783" ry="0.693071" fill="#C4C4C4"/>
<ellipse cx="520.073" cy="109.584" rx="1.17718" ry="1.03961" fill="#C4C4C4"/>
<ellipse cx="513.403" cy="129.337" rx="0.784783" ry="0.693071" fill="#C4C4C4"/>
<ellipse cx="431.785" cy="177.159" rx="0.784783" ry="0.693071" fill="#C4C4C4"/>
<ellipse cx="532.237" cy="164.683" rx="0.784783" ry="0.693071" fill="#C4C4C4"/>
<ellipse cx="593.843" cy="172.654" rx="1.17718" ry="1.03961" fill="#C4C4C4"/>
<ellipse cx="584.033" cy="150.129" rx="0.784783" ry="0.693071" fill="#C4C4C4"/>
<ellipse cx="578.539" cy="225.673" rx="0.784783" ry="0.693071" fill="#C4C4C4"/>
<ellipse cx="608.361" cy="232.604" rx="0.784783" ry="0.693071" fill="#C4C4C4"/>
<ellipse cx="584.033" cy="194.485" rx="0.784783" ry="0.693071" fill="#C4C4C4"/>
<ellipse cx="602.868" cy="114.782" rx="0.784783" ry="0.693071" fill="#C4C4C4"/>
<ellipse cx="543.224" cy="140.426" rx="0.784783" ry="0.693071" fill="#C4C4C4"/>
<ellipse cx="613.07" cy="150.822" rx="0.784783" ry="0.693071" fill="#C4C4C4"/>
<ellipse cx="617.386" cy="130.377" rx="1.17718" ry="1.03961" fill="#C4C4C4"/>
<ellipse cx="645.246" cy="164.683" rx="0.784783" ry="0.693071" fill="#C4C4C4"/>
<ellipse cx="643.676" cy="197.258" rx="0.784783" ry="0.693071" fill="#C4C4C4"/>
<ellipse cx="559.705" cy="148.742" rx="0.784783" ry="0.693071" fill="#C4C4C4"/>
<ellipse cx="620.526" cy="172.654" rx="1.17718" ry="1.03961" fill="#C4C4C4"/>
<ellipse cx="669.967" cy="207.307" rx="1.17718" ry="1.03961" fill="#C4C4C4"/>
<ellipse cx="619.348" cy="206.961" rx="0.784783" ry="0.693071" fill="#C4C4C4"/>
<ellipse cx="479.657" cy="120.327" rx="0.784783" ry="0.693071" fill="#C4C4C4"/>
<ellipse cx="511.44" cy="142.852" rx="1.17718" ry="1.03961" fill="#C4C4C4"/>
<ellipse cx="459.645" cy="144.238" rx="1.17718" ry="1.03961" fill="#C4C4C4"/>
<ellipse cx="481.226" cy="133.495" rx="0.784783" ry="0.693071" fill="#C4C4C4"/>
<ellipse cx="507.933" cy="168.693" rx="0.784783" ry="0.693071" fill="#C4C4C4"/>
<ellipse cx="456.922" cy="179.089" rx="0.784783" ry="0.693071" fill="#C4C4C4"/>
<ellipse cx="518.135" cy="238" rx="1.56957" ry="1.38614" fill="#C4C4C4"/>
<ellipse cx="559.336" cy="198.842" rx="1.17718" ry="1.03961" fill="#C4C4C4"/>
<ellipse cx="545.21" cy="176.317" rx="1.17718" ry="1.03961" fill="#C4C4C4"/>
<ellipse cx="595.044" cy="208.891" rx="0.784783" ry="0.693071" fill="#C4C4C4"/>
<ellipse cx="535.008" cy="196.762" rx="1.17718" ry="1.03961" fill="#C4C4C4"/>
<ellipse cx="509.502" cy="183.941" rx="0.784783" ry="0.693071" fill="#C4C4C4"/>
<ellipse cx="452.213" cy="228.297" rx="0.784783" ry="0.693071" fill="#C4C4C4"/>
<ellipse cx="480.073" cy="174.584" rx="1.17718" ry="1.03961" fill="#C4C4C4"/>
<ellipse cx="473.403" cy="194.337" rx="0.784783" ry="0.693071" fill="#C4C4C4"/>
<ellipse cx="492.237" cy="229.683" rx="0.784783" ry="0.693071" fill="#C4C4C4"/>
<ellipse cx="553.843" cy="237.654" rx="1.17718" ry="1.03961" fill="#C4C4C4"/>
<ellipse cx="544.033" cy="215.129" rx="0.784783" ry="0.693071" fill="#C4C4C4"/>
<ellipse cx="538.539" cy="290.673" rx="0.784783" ry="0.693071" fill="#C4C4C4"/>
<ellipse cx="568.361" cy="297.604" rx="0.784783" ry="0.693071" fill="#C4C4C4"/>
<ellipse cx="544.033" cy="259.485" rx="0.784783" ry="0.693071" fill="#C4C4C4"/>
<ellipse cx="562.868" cy="179.782" rx="0.784783" ry="0.693071" fill="#C4C4C4"/>
<ellipse cx="503.224" cy="205.426" rx="0.784783" ry="0.693071" fill="#C4C4C4"/>
<ellipse cx="573.07" cy="215.822" rx="0.784783" ry="0.693071" fill="#C4C4C4"/>
<ellipse cx="577.386" cy="195.377" rx="1.17718" ry="1.03961" fill="#C4C4C4"/>
<ellipse cx="605.246" cy="229.683" rx="0.784783" ry="0.693071" fill="#C4C4C4"/>
<ellipse cx="603.676" cy="262.258" rx="0.784783" ry="0.693071" fill="#C4C4C4"/>
<ellipse cx="519.705" cy="213.742" rx="0.784783" ry="0.693071" fill="#C4C4C4"/>
<ellipse cx="580.526" cy="237.654" rx="1.17718" ry="1.03961" fill="#C4C4C4"/>
<ellipse cx="629.967" cy="272.307" rx="1.17718" ry="1.03961" fill="#C4C4C4"/>
<ellipse cx="579.348" cy="271.961" rx="0.784783" ry="0.693071" fill="#C4C4C4"/>
<ellipse cx="439.657" cy="185.327" rx="0.784783" ry="0.693071" fill="#C4C4C4"/>
<ellipse cx="471.44" cy="207.852" rx="1.17718" ry="1.03961" fill="#C4C4C4"/>
<ellipse cx="441.226" cy="198.495" rx="0.784783" ry="0.693071" fill="#C4C4C4"/>
<ellipse cx="774.785" cy="297.159" rx="0.784783" ry="0.693071" fill="#C4C4C4"/>
<ellipse cx="619.933" cy="87.6931" rx="0.784783" ry="0.693071" fill="#C4C4C4"/>
<ellipse cx="568.922" cy="98.0891" rx="0.784783" ry="0.693071" fill="#C4C4C4"/>
<ellipse cx="630.135" cy="157" rx="1.56957" ry="1.38614" fill="#C4C4C4"/>
<ellipse cx="671.336" cy="117.842" rx="1.17718" ry="1.03961" fill="#C4C4C4"/>
<ellipse cx="657.21" cy="95.3169" rx="1.17718" ry="1.03961" fill="#C4C4C4"/>
<ellipse cx="707.044" cy="127.891" rx="0.784783" ry="0.693071" fill="#C4C4C4"/>
<ellipse cx="647.008" cy="115.762" rx="1.17718" ry="1.03961" fill="#C4C4C4"/>
<ellipse cx="621.502" cy="102.941" rx="0.784783" ry="0.693071" fill="#C4C4C4"/>
<ellipse cx="564.213" cy="147.297" rx="0.784783" ry="0.693071" fill="#C4C4C4"/>
<ellipse cx="592.073" cy="93.5843" rx="1.17718" ry="1.03961" fill="#C4C4C4"/>
<ellipse cx="585.403" cy="113.337" rx="0.784783" ry="0.693071" fill="#C4C4C4"/>
<ellipse cx="503.785" cy="161.159" rx="0.784783" ry="0.693071" fill="#C4C4C4"/>
<ellipse cx="604.237" cy="148.683" rx="0.784783" ry="0.693071" fill="#C4C4C4"/>
<ellipse cx="665.843" cy="156.654" rx="1.17718" ry="1.03961" fill="#C4C4C4"/>
<ellipse cx="656.033" cy="134.129" rx="0.784783" ry="0.693071" fill="#C4C4C4"/>
<ellipse cx="650.539" cy="209.673" rx="0.784783" ry="0.693071" fill="#C4C4C4"/>
<ellipse cx="680.361" cy="216.604" rx="0.784783" ry="0.693071" fill="#C4C4C4"/>
<ellipse cx="656.033" cy="178.485" rx="0.784783" ry="0.693071" fill="#C4C4C4"/>
<ellipse cx="674.868" cy="98.7822" rx="0.784783" ry="0.693071" fill="#C4C4C4"/>
<ellipse cx="615.224" cy="124.426" rx="0.784783" ry="0.693071" fill="#C4C4C4"/>
<ellipse cx="685.07" cy="134.822" rx="0.784783" ry="0.693071" fill="#C4C4C4"/>
<ellipse cx="689.386" cy="114.377" rx="1.17718" ry="1.03961" fill="#C4C4C4"/>
<ellipse cx="717.246" cy="148.683" rx="0.784783" ry="0.693071" fill="#C4C4C4"/>
<ellipse cx="715.676" cy="181.258" rx="0.784783" ry="0.693071" fill="#C4C4C4"/>
<ellipse cx="631.705" cy="132.742" rx="0.784783" ry="0.693071" fill="#C4C4C4"/>
<ellipse cx="692.526" cy="156.654" rx="1.17718" ry="1.03961" fill="#C4C4C4"/>
<ellipse cx="741.967" cy="191.307" rx="1.17718" ry="1.03961" fill="#C4C4C4"/>
<ellipse cx="691.348" cy="190.961" rx="0.784783" ry="0.693071" fill="#C4C4C4"/>
<ellipse cx="551.657" cy="104.327" rx="0.784783" ry="0.693071" fill="#C4C4C4"/>
<ellipse cx="583.44" cy="126.852" rx="1.17718" ry="1.03961" fill="#C4C4C4"/>
<ellipse cx="531.645" cy="128.238" rx="1.17718" ry="1.03961" fill="#C4C4C4"/>
<ellipse cx="553.226" cy="117.495" rx="0.784783" ry="0.693071" fill="#C4C4C4"/>
<ellipse cx="647.933" cy="151.693" rx="0.784783" ry="0.693071" fill="#C4C4C4"/>
<ellipse cx="596.922" cy="162.089" rx="0.784783" ry="0.693071" fill="#C4C4C4"/>
<ellipse cx="658.135" cy="221" rx="1.56957" ry="1.38614" fill="#C4C4C4"/>
<ellipse cx="699.336" cy="181.842" rx="1.17718" ry="1.03961" fill="#C4C4C4"/>
<ellipse cx="685.21" cy="159.317" rx="1.17718" ry="1.03961" fill="#C4C4C4"/>
<ellipse cx="735.044" cy="191.891" rx="0.784783" ry="0.693071" fill="#C4C4C4"/>
<ellipse cx="675.008" cy="179.762" rx="1.17718" ry="1.03961" fill="#C4C4C4"/>
<ellipse cx="649.502" cy="166.941" rx="0.784783" ry="0.693071" fill="#C4C4C4"/>
<ellipse cx="592.213" cy="211.297" rx="0.784783" ry="0.693071" fill="#C4C4C4"/>
<ellipse cx="620.073" cy="157.584" rx="1.17718" ry="1.03961" fill="#C4C4C4"/>
<ellipse cx="613.403" cy="177.337" rx="0.784783" ry="0.693071" fill="#C4C4C4"/>
<ellipse cx="531.785" cy="225.159" rx="0.784783" ry="0.693071" fill="#C4C4C4"/>
<ellipse cx="632.237" cy="212.683" rx="0.784783" ry="0.693071" fill="#C4C4C4"/>
<ellipse cx="693.843" cy="220.654" rx="1.17718" ry="1.03961" fill="#C4C4C4"/>
<ellipse cx="684.033" cy="198.129" rx="0.784783" ry="0.693071" fill="#C4C4C4"/>
<ellipse cx="678.539" cy="273.673" rx="0.784783" ry="0.693071" fill="#C4C4C4"/>
<ellipse cx="708.361" cy="280.604" rx="0.784783" ry="0.693071" fill="#C4C4C4"/>
<ellipse cx="684.033" cy="242.485" rx="0.784783" ry="0.693071" fill="#C4C4C4"/>
<ellipse cx="702.868" cy="162.782" rx="0.784783" ry="0.693071" fill="#C4C4C4"/>
<ellipse cx="643.224" cy="188.426" rx="0.784783" ry="0.693071" fill="#C4C4C4"/>
<ellipse cx="713.07" cy="198.822" rx="0.784783" ry="0.693071" fill="#C4C4C4"/>
<ellipse cx="717.386" cy="178.377" rx="1.17718" ry="1.03961" fill="#C4C4C4"/>
<ellipse cx="745.246" cy="212.683" rx="0.784783" ry="0.693071" fill="#C4C4C4"/>
<ellipse cx="743.676" cy="245.258" rx="0.784783" ry="0.693071" fill="#C4C4C4"/>
<ellipse cx="659.705" cy="196.742" rx="0.784783" ry="0.693071" fill="#C4C4C4"/>
<ellipse cx="720.526" cy="220.654" rx="1.17718" ry="1.03961" fill="#C4C4C4"/>
<ellipse cx="769.967" cy="255.307" rx="1.17718" ry="1.03961" fill="#C4C4C4"/>
<ellipse cx="719.348" cy="254.961" rx="0.784783" ry="0.693071" fill="#C4C4C4"/>
<ellipse cx="579.657" cy="168.327" rx="0.784783" ry="0.693071" fill="#C4C4C4"/>
<ellipse cx="611.44" cy="190.852" rx="1.17718" ry="1.03961" fill="#C4C4C4"/>
<ellipse cx="559.645" cy="192.238" rx="1.17718" ry="1.03961" fill="#C4C4C4"/>
<ellipse cx="581.226" cy="181.495" rx="0.784783" ry="0.693071" fill="#C4C4C4"/>
<ellipse cx="660.933" cy="11.6931" rx="0.784783" ry="0.693071" fill="#C4C4C4"/>
<ellipse cx="609.922" cy="22.0891" rx="0.784783" ry="0.693071" fill="#C4C4C4"/>
<ellipse cx="671.135" cy="81.0002" rx="1.56957" ry="1.38614" fill="#C4C4C4"/>
<ellipse cx="712.336" cy="41.8416" rx="1.17718" ry="1.03961" fill="#C4C4C4"/>
<ellipse cx="698.21" cy="19.3169" rx="1.17718" ry="1.03961" fill="#C4C4C4"/>
<ellipse cx="748.044" cy="51.8911" rx="0.784783" ry="0.693071" fill="#C4C4C4"/>
<ellipse cx="688.008" cy="39.7623" rx="1.17718" ry="1.03961" fill="#C4C4C4"/>
<ellipse cx="662.502" cy="26.9406" rx="0.784783" ry="0.693071" fill="#C4C4C4"/>
<ellipse cx="605.213" cy="71.2971" rx="0.784783" ry="0.693071" fill="#C4C4C4"/>
<ellipse cx="633.073" cy="17.5843" rx="1.17718" ry="1.03961" fill="#C4C4C4"/>
<ellipse cx="626.403" cy="37.3369" rx="0.784783" ry="0.693071" fill="#C4C4C4"/>
<ellipse cx="544.785" cy="85.1586" rx="0.784783" ry="0.693071" fill="#C4C4C4"/>
<ellipse cx="645.237" cy="72.6833" rx="0.784783" ry="0.693071" fill="#C4C4C4"/>
<ellipse cx="706.843" cy="80.6536" rx="1.17718" ry="1.03961" fill="#C4C4C4"/>
<ellipse cx="697.033" cy="58.1286" rx="0.784783" ry="0.693071" fill="#C4C4C4"/>
<ellipse cx="691.539" cy="133.673" rx="0.784783" ry="0.693071" fill="#C4C4C4"/>
<ellipse cx="721.361" cy="140.604" rx="0.784783" ry="0.693071" fill="#C4C4C4"/>
<ellipse cx="697.033" cy="102.485" rx="0.784783" ry="0.693071" fill="#C4C4C4"/>
<ellipse cx="715.868" cy="22.7822" rx="0.784783" ry="0.693071" fill="#C4C4C4"/>
<ellipse cx="656.224" cy="48.4257" rx="0.784783" ry="0.693071" fill="#C4C4C4"/>
<ellipse cx="726.07" cy="58.8217" rx="0.784783" ry="0.693071" fill="#C4C4C4"/>
<ellipse cx="730.386" cy="38.3765" rx="1.17718" ry="1.03961" fill="#C4C4C4"/>
<ellipse cx="758.246" cy="72.6833" rx="0.784783" ry="0.693071" fill="#C4C4C4"/>
<ellipse cx="756.676" cy="105.258" rx="0.784783" ry="0.693071" fill="#C4C4C4"/>
<ellipse cx="672.705" cy="56.7424" rx="0.784783" ry="0.693071" fill="#C4C4C4"/>
<ellipse cx="733.526" cy="80.6536" rx="1.17718" ry="1.03961" fill="#C4C4C4"/>
<ellipse cx="782.967" cy="115.307" rx="1.17718" ry="1.03961" fill="#C4C4C4"/>
<ellipse cx="732.348" cy="114.961" rx="0.784783" ry="0.693071" fill="#C4C4C4"/>
<ellipse cx="592.657" cy="28.3269" rx="0.784783" ry="0.693071" fill="#C4C4C4"/>
<ellipse cx="624.44" cy="50.8516" rx="1.17718" ry="1.03961" fill="#C4C4C4"/>
<ellipse cx="572.645" cy="52.2376" rx="1.17718" ry="1.03961" fill="#C4C4C4"/>
<ellipse cx="594.226" cy="41.4951" rx="0.784783" ry="0.693071" fill="#C4C4C4"/>
<ellipse cx="435.135" cy="56.0002" rx="1.56957" ry="1.38614" fill="#C4C4C4"/>
<ellipse cx="476.336" cy="16.8416" rx="1.17718" ry="1.03961" fill="#C4C4C4"/>
<ellipse cx="512.044" cy="26.8911" rx="0.784783" ry="0.693071" fill="#C4C4C4"/>
<ellipse cx="452.008" cy="14.7623" rx="1.17718" ry="1.03961" fill="#C4C4C4"/>
<ellipse cx="470.843" cy="55.6536" rx="1.17718" ry="1.03961" fill="#C4C4C4"/>
<ellipse cx="461.033" cy="33.1286" rx="0.784783" ry="0.693071" fill="#C4C4C4"/>
<ellipse cx="455.539" cy="108.673" rx="0.784783" ry="0.693071" fill="#C4C4C4"/>
<ellipse cx="485.361" cy="115.604" rx="0.784783" ry="0.693071" fill="#C4C4C4"/>
<ellipse cx="461.033" cy="77.4853" rx="0.784783" ry="0.693071" fill="#C4C4C4"/>
<ellipse cx="490.07" cy="33.8217" rx="0.784783" ry="0.693071" fill="#C4C4C4"/>
<ellipse cx="494.386" cy="13.3765" rx="1.17718" ry="1.03961" fill="#C4C4C4"/>
<ellipse cx="522.246" cy="47.6833" rx="0.784783" ry="0.693071" fill="#C4C4C4"/>
<ellipse cx="520.676" cy="80.2578" rx="0.784783" ry="0.693071" fill="#C4C4C4"/>
<ellipse cx="436.705" cy="31.7424" rx="0.784783" ry="0.693071" fill="#C4C4C4"/>
<ellipse cx="497.526" cy="55.6536" rx="1.17718" ry="1.03961" fill="#C4C4C4"/>
<ellipse cx="546.967" cy="90.3072" rx="1.17718" ry="1.03961" fill="#C4C4C4"/>
<ellipse cx="496.348" cy="89.9606" rx="0.784783" ry="0.693071" fill="#C4C4C4"/>
<path d="M786.315 265.598C776.686 265.873 707.466 266.609 694 250.954C694 250.954 711 224 724.062 227C737.123 230 790.839 244.434 800.754 235.368L800.754 257C800.754 257 795.944 265.323 786.315 265.598Z" fill="#0D64DB"/>
<path d="M799 217C765.642 232.873 748.079 218.192 742.514 213.433C744.772 216.401 728.598 223.623 721.5 229C756.601 249.325 789.912 246.206 800.908 239.968L799 217Z" fill="#08448B"/>
<path d="M655.811 246.421C630.582 239.646 614.086 200.07 609.919 181.735C618.049 176.315 621.022 165.309 620.565 159.879C635.029 161.653 665.134 167.847 669.845 178.429C674.555 189.011 678.582 193.753 680.007 194.802C707.494 221.192 733.239 217.842 742.675 212.868C744.288 220.998 710.817 242.011 693.88 251.502C683.298 253.954 664.091 249.136 655.811 246.421Z" fill="#619DEE"/>
<path d="M569.511 143.99C578.351 156.443 593.788 158.481 600.401 157.943L606.934 156.895L618.629 160.363L604.354 171.251L561.204 168.509L549.428 139.312C555.074 135.925 560.139 132.376 561.204 132.94C562.268 133.504 569.511 143.99 569.511 143.99Z" fill="#CE811D"/>
<path d="M588.787 148.506C588.336 146.764 591.825 137.188 593.627 132.617C595.82 131.262 601.799 133.182 604.515 134.311L617.258 158.346C610.322 163.347 603.547 161.33 601.611 159.314C600.063 157.701 601.719 152.108 601.611 150.199C597.579 151.651 589.352 150.684 588.787 148.506Z" fill="#FAB1A2"/>
<path d="M568.543 161.411C583.513 169.089 607.311 162.324 617.258 158.345C625.259 162.088 619.436 174.72 612.016 183.349C604.596 191.978 558.703 191.065 549.832 182.058C539.895 176.122 533.539 150.765 531.604 138.828C538.572 133.924 544.67 134.096 546.847 134.795C547.842 140.468 553.574 153.733 568.543 161.411Z" fill="#F39F32"/>
<path d="M593.223 112.857C586.061 118.729 590.239 128.424 593.223 132.537C595.482 131.004 602.66 133.908 603.87 134.069C605.079 134.231 606.451 138.747 609.112 147.539C611.241 154.572 615.269 157.513 617.016 158.104C625.727 167.912 639.573 175.149 645.406 177.542C663.538 185.801 683.179 174.665 690.169 163.024C697.16 151.383 687.347 141.973 680.572 138.747C673.797 135.521 651.375 143.425 645.406 142.619C639.438 141.812 639.599 142.699 633.631 139.634C627.663 136.57 626.453 119.068 617.903 110.841C609.354 102.614 602.176 105.518 593.223 112.857Z" fill="#15284F"/>
<path d="M542.293 79.4036L538.799 100.412L520.209 84.7204L542.293 79.4036Z" fill="#E9E6D7"/>
<path d="M570.503 127.294L543.753 210.628L543.122 212.531L492.426 175.293L518.114 82.6497L539.595 77.3626L540.919 79.7131L520.51 84.7057L570.503 127.294Z" fill="#3F89EF"/>
<path d="M539.641 77.4448L540.919 79.7131L520.533 84.7468L518.349 82.5174L539.641 77.4448Z" fill="#596885"/>
<path d="M562.066 133.088L563.41 128.956L549.293 117.458L547.638 121.566L562.066 133.088Z" fill="#D6E3FA"/>
<path d="M580.161 279.692C546.853 213.249 451.839 227.633 422.833 227.825L402.086 269.319L375 355.763L689.081 396.68L798 305.625C794.734 304.473 764.416 275.981 761.5 296.5C758.584 317.02 613.469 346.135 580.161 279.692Z" fill="url(#paint7_linear)"/>
</g>
<circle cx="883" cy="569" r="8" fill="url(#paint8_linear)"/>
<ellipse cx="772.823" cy="335.26" rx="0.294118" ry="0.259746" fill="#C4C4C4"/>
<ellipse cx="753.706" cy="339.156" rx="0.294118" ry="0.259746" fill="#C4C4C4"/>
<ellipse cx="776.647" cy="361.235" rx="0.588235" ry="0.519492" fill="#C4C4C4"/>
<ellipse cx="792.088" cy="346.559" rx="0.441176" ry="0.389619" fill="#C4C4C4"/>
<ellipse cx="786.794" cy="338.117" rx="0.441176" ry="0.389619" fill="#C4C4C4"/>
<ellipse cx="805.471" cy="350.325" rx="0.294118" ry="0.259746" fill="#C4C4C4"/>
<ellipse cx="782.971" cy="345.78" rx="0.441176" ry="0.389619" fill="#C4C4C4"/>
<ellipse cx="773.412" cy="340.974" rx="0.294118" ry="0.259746" fill="#C4C4C4"/>
<ellipse cx="751.941" cy="357.598" rx="0.294118" ry="0.259746" fill="#C4C4C4"/>
<ellipse cx="762.382" cy="337.467" rx="0.441176" ry="0.389619" fill="#C4C4C4"/>
<ellipse cx="759.882" cy="344.87" rx="0.294118" ry="0.259746" fill="#C4C4C4"/>
<ellipse cx="729.294" cy="362.793" rx="0.294118" ry="0.259746" fill="#C4C4C4"/>
<ellipse cx="766.941" cy="358.118" rx="0.294118" ry="0.259746" fill="#C4C4C4"/>
<ellipse cx="790.029" cy="361.105" rx="0.441176" ry="0.389619" fill="#C4C4C4"/>
<ellipse cx="786.353" cy="352.663" rx="0.294118" ry="0.259746" fill="#C4C4C4"/>
<ellipse cx="784.294" cy="380.975" rx="0.294118" ry="0.259746" fill="#C4C4C4"/>
<ellipse cx="795.471" cy="383.572" rx="0.294118" ry="0.259746" fill="#C4C4C4"/>
<ellipse cx="786.353" cy="369.286" rx="0.294118" ry="0.259746" fill="#C4C4C4"/>
<ellipse cx="793.412" cy="339.416" rx="0.294118" ry="0.259746" fill="#C4C4C4"/>
<ellipse cx="771.059" cy="349.026" rx="0.294118" ry="0.259746" fill="#C4C4C4"/>
<ellipse cx="797.235" cy="352.922" rx="0.294118" ry="0.259746" fill="#C4C4C4"/>
<ellipse cx="798.853" cy="345.26" rx="0.441176" ry="0.389619" fill="#C4C4C4"/>
<ellipse cx="809.294" cy="358.118" rx="0.294118" ry="0.259746" fill="#C4C4C4"/>
<ellipse cx="808.706" cy="370.326" rx="0.294118" ry="0.259746" fill="#C4C4C4"/>
<ellipse cx="777.235" cy="352.143" rx="0.294118" ry="0.259746" fill="#C4C4C4"/>
<ellipse cx="800.029" cy="361.105" rx="0.441176" ry="0.389619" fill="#C4C4C4"/>
<ellipse cx="818.559" cy="374.092" rx="0.441176" ry="0.389619" fill="#C4C4C4"/>
<ellipse cx="799.588" cy="373.962" rx="0.294118" ry="0.259746" fill="#C4C4C4"/>
<ellipse cx="747.235" cy="341.494" rx="0.294118" ry="0.259746" fill="#C4C4C4"/>
<ellipse cx="759.147" cy="349.936" rx="0.441176" ry="0.389619" fill="#C4C4C4"/>
<ellipse cx="739.735" cy="350.455" rx="0.441176" ry="0.389619" fill="#C4C4C4"/>
<ellipse cx="747.824" cy="346.429" rx="0.294118" ry="0.259746" fill="#C4C4C4"/>
<ellipse cx="765.823" cy="369.26" rx="0.294118" ry="0.259746" fill="#C4C4C4"/>
<ellipse cx="746.706" cy="373.156" rx="0.294118" ry="0.259746" fill="#C4C4C4"/>
<ellipse cx="769.647" cy="395.235" rx="0.588235" ry="0.519492" fill="#C4C4C4"/>
<ellipse cx="785.088" cy="380.559" rx="0.441176" ry="0.389619" fill="#C4C4C4"/>
<ellipse cx="779.794" cy="372.117" rx="0.441176" ry="0.389619" fill="#C4C4C4"/>
<ellipse cx="798.471" cy="384.325" rx="0.294118" ry="0.259746" fill="#C4C4C4"/>
<ellipse cx="775.971" cy="379.78" rx="0.441176" ry="0.389619" fill="#C4C4C4"/>
<ellipse cx="766.412" cy="374.974" rx="0.294118" ry="0.259746" fill="#C4C4C4"/>
<ellipse cx="744.941" cy="391.598" rx="0.294118" ry="0.259746" fill="#C4C4C4"/>
<ellipse cx="755.382" cy="371.467" rx="0.441176" ry="0.389619" fill="#C4C4C4"/>
<ellipse cx="752.882" cy="378.87" rx="0.294118" ry="0.259746" fill="#C4C4C4"/>
<ellipse cx="722.294" cy="396.793" rx="0.294118" ry="0.259746" fill="#C4C4C4"/>
<ellipse cx="759.941" cy="392.118" rx="0.294118" ry="0.259746" fill="#C4C4C4"/>
<ellipse cx="783.029" cy="395.105" rx="0.441176" ry="0.389619" fill="#C4C4C4"/>
<ellipse cx="779.353" cy="386.663" rx="0.294118" ry="0.259746" fill="#C4C4C4"/>
<ellipse cx="777.294" cy="414.975" rx="0.294118" ry="0.259746" fill="#C4C4C4"/>
<ellipse cx="788.471" cy="417.572" rx="0.294118" ry="0.259746" fill="#C4C4C4"/>
<ellipse cx="779.353" cy="403.286" rx="0.294118" ry="0.259746" fill="#C4C4C4"/>
<ellipse cx="786.412" cy="373.416" rx="0.294118" ry="0.259746" fill="#C4C4C4"/>
<ellipse cx="764.059" cy="383.026" rx="0.294118" ry="0.259746" fill="#C4C4C4"/>
<ellipse cx="790.235" cy="386.922" rx="0.294118" ry="0.259746" fill="#C4C4C4"/>
<ellipse cx="791.853" cy="379.26" rx="0.441176" ry="0.389619" fill="#C4C4C4"/>
<ellipse cx="802.294" cy="392.118" rx="0.294118" ry="0.259746" fill="#C4C4C4"/>
<ellipse cx="801.706" cy="404.326" rx="0.294118" ry="0.259746" fill="#C4C4C4"/>
<ellipse cx="770.235" cy="386.143" rx="0.294118" ry="0.259746" fill="#C4C4C4"/>
<ellipse cx="793.029" cy="395.105" rx="0.441176" ry="0.389619" fill="#C4C4C4"/>
<ellipse cx="811.559" cy="408.092" rx="0.441176" ry="0.389619" fill="#C4C4C4"/>
<ellipse cx="792.588" cy="407.962" rx="0.294118" ry="0.259746" fill="#C4C4C4"/>
<ellipse cx="740.235" cy="375.494" rx="0.294118" ry="0.259746" fill="#C4C4C4"/>
<ellipse cx="752.147" cy="383.936" rx="0.441176" ry="0.389619" fill="#C4C4C4"/>
<ellipse cx="732.735" cy="384.455" rx="0.441176" ry="0.389619" fill="#C4C4C4"/>
<ellipse cx="740.824" cy="380.429" rx="0.294118" ry="0.259746" fill="#C4C4C4"/>
<ellipse cx="746.823" cy="348.26" rx="0.294118" ry="0.259746" fill="#C4C4C4"/>
<ellipse cx="727.706" cy="352.156" rx="0.294118" ry="0.259746" fill="#C4C4C4"/>
<ellipse cx="750.647" cy="374.235" rx="0.588235" ry="0.519492" fill="#C4C4C4"/>
<ellipse cx="766.088" cy="359.559" rx="0.441176" ry="0.389619" fill="#C4C4C4"/>
<ellipse cx="760.794" cy="351.117" rx="0.441176" ry="0.389619" fill="#C4C4C4"/>
<ellipse cx="779.471" cy="363.325" rx="0.294118" ry="0.259746" fill="#C4C4C4"/>
<ellipse cx="756.971" cy="358.78" rx="0.441176" ry="0.389619" fill="#C4C4C4"/>
<ellipse cx="747.412" cy="353.974" rx="0.294118" ry="0.259746" fill="#C4C4C4"/>
<ellipse cx="725.941" cy="370.598" rx="0.294118" ry="0.259746" fill="#C4C4C4"/>
<ellipse cx="736.382" cy="350.467" rx="0.441176" ry="0.389619" fill="#C4C4C4"/>
<ellipse cx="733.882" cy="357.87" rx="0.294118" ry="0.259746" fill="#C4C4C4"/>
<ellipse cx="703.294" cy="375.793" rx="0.294118" ry="0.259746" fill="#C4C4C4"/>
<ellipse cx="740.941" cy="371.118" rx="0.294118" ry="0.259746" fill="#C4C4C4"/>
<ellipse cx="764.029" cy="374.105" rx="0.441176" ry="0.389619" fill="#C4C4C4"/>
<ellipse cx="760.353" cy="365.663" rx="0.294118" ry="0.259746" fill="#C4C4C4"/>
<ellipse cx="758.294" cy="393.975" rx="0.294118" ry="0.259746" fill="#C4C4C4"/>
<ellipse cx="769.471" cy="396.572" rx="0.294118" ry="0.259746" fill="#C4C4C4"/>
<ellipse cx="760.353" cy="382.286" rx="0.294118" ry="0.259746" fill="#C4C4C4"/>
<ellipse cx="767.412" cy="352.416" rx="0.294118" ry="0.259746" fill="#C4C4C4"/>
<ellipse cx="745.059" cy="362.026" rx="0.294118" ry="0.259746" fill="#C4C4C4"/>
<ellipse cx="771.235" cy="365.922" rx="0.294118" ry="0.259746" fill="#C4C4C4"/>
<ellipse cx="772.853" cy="358.26" rx="0.441176" ry="0.389619" fill="#C4C4C4"/>
<ellipse cx="783.294" cy="371.118" rx="0.294118" ry="0.259746" fill="#C4C4C4"/>
<ellipse cx="782.706" cy="383.326" rx="0.294118" ry="0.259746" fill="#C4C4C4"/>
<ellipse cx="751.235" cy="365.143" rx="0.294118" ry="0.259746" fill="#C4C4C4"/>
<ellipse cx="774.029" cy="374.105" rx="0.441176" ry="0.389619" fill="#C4C4C4"/>
<ellipse cx="792.559" cy="387.092" rx="0.441176" ry="0.389619" fill="#C4C4C4"/>
<ellipse cx="773.588" cy="386.962" rx="0.294118" ry="0.259746" fill="#C4C4C4"/>
<ellipse cx="721.235" cy="354.494" rx="0.294118" ry="0.259746" fill="#C4C4C4"/>
<ellipse cx="733.147" cy="362.936" rx="0.441176" ry="0.389619" fill="#C4C4C4"/>
<ellipse cx="713.735" cy="363.455" rx="0.441176" ry="0.389619" fill="#C4C4C4"/>
<ellipse cx="721.824" cy="359.429" rx="0.294118" ry="0.259746" fill="#C4C4C4"/>
<ellipse cx="752.823" cy="378.26" rx="0.294118" ry="0.259746" fill="#C4C4C4"/>
<ellipse cx="733.706" cy="382.156" rx="0.294118" ry="0.259746" fill="#C4C4C4"/>
<ellipse cx="756.647" cy="404.235" rx="0.588235" ry="0.519492" fill="#C4C4C4"/>
<ellipse cx="772.088" cy="389.559" rx="0.441176" ry="0.389619" fill="#C4C4C4"/>
<ellipse cx="766.794" cy="381.117" rx="0.441176" ry="0.389619" fill="#C4C4C4"/>
<ellipse cx="785.471" cy="393.325" rx="0.294118" ry="0.259746" fill="#C4C4C4"/>
<ellipse cx="762.971" cy="388.78" rx="0.441176" ry="0.389619" fill="#C4C4C4"/>
<ellipse cx="753.412" cy="383.974" rx="0.294118" ry="0.259746" fill="#C4C4C4"/>
<ellipse cx="731.941" cy="400.598" rx="0.294118" ry="0.259746" fill="#C4C4C4"/>
<ellipse cx="742.382" cy="380.467" rx="0.441176" ry="0.389619" fill="#C4C4C4"/>
<ellipse cx="739.882" cy="387.87" rx="0.294118" ry="0.259746" fill="#C4C4C4"/>
<ellipse cx="709.294" cy="405.793" rx="0.294118" ry="0.259746" fill="#C4C4C4"/>
<ellipse cx="746.941" cy="401.118" rx="0.294118" ry="0.259746" fill="#C4C4C4"/>
<ellipse cx="770.029" cy="404.105" rx="0.441176" ry="0.389619" fill="#C4C4C4"/>
<ellipse cx="766.353" cy="395.663" rx="0.294118" ry="0.259746" fill="#C4C4C4"/>
<ellipse cx="764.294" cy="423.975" rx="0.294118" ry="0.259746" fill="#C4C4C4"/>
<ellipse cx="775.471" cy="426.572" rx="0.294118" ry="0.259746" fill="#C4C4C4"/>
<ellipse cx="766.353" cy="412.286" rx="0.294118" ry="0.259746" fill="#C4C4C4"/>
<ellipse cx="773.412" cy="382.416" rx="0.294118" ry="0.259746" fill="#C4C4C4"/>
<ellipse cx="751.059" cy="392.026" rx="0.294118" ry="0.259746" fill="#C4C4C4"/>
<ellipse cx="777.235" cy="395.922" rx="0.294118" ry="0.259746" fill="#C4C4C4"/>
<ellipse cx="778.853" cy="388.26" rx="0.441176" ry="0.389619" fill="#C4C4C4"/>
<ellipse cx="789.294" cy="401.118" rx="0.294118" ry="0.259746" fill="#C4C4C4"/>
<ellipse cx="788.706" cy="413.326" rx="0.294118" ry="0.259746" fill="#C4C4C4"/>
<ellipse cx="757.235" cy="395.143" rx="0.294118" ry="0.259746" fill="#C4C4C4"/>
<ellipse cx="780.029" cy="404.105" rx="0.441176" ry="0.389619" fill="#C4C4C4"/>
<ellipse cx="798.559" cy="417.092" rx="0.441176" ry="0.389619" fill="#C4C4C4"/>
<ellipse cx="779.588" cy="416.962" rx="0.294118" ry="0.259746" fill="#C4C4C4"/>
<ellipse cx="727.235" cy="384.494" rx="0.294118" ry="0.259746" fill="#C4C4C4"/>
<ellipse cx="739.147" cy="392.936" rx="0.441176" ry="0.389619" fill="#C4C4C4"/>
<ellipse cx="719.735" cy="393.455" rx="0.441176" ry="0.389619" fill="#C4C4C4"/>
<ellipse cx="727.824" cy="389.429" rx="0.294118" ry="0.259746" fill="#C4C4C4"/>
<ellipse cx="844.189" cy="429.179" rx="0.202614" ry="0.178936" fill="#C4C4C4"/>
<ellipse cx="831.02" cy="431.863" rx="0.202614" ry="0.178936" fill="#C4C4C4"/>
<ellipse cx="846.824" cy="447.073" rx="0.405229" ry="0.357872" fill="#C4C4C4"/>
<ellipse cx="857.461" cy="436.963" rx="0.303921" ry="0.268404" fill="#C4C4C4"/>
<ellipse cx="853.814" cy="431.147" rx="0.303921" ry="0.268404" fill="#C4C4C4"/>
<ellipse cx="866.68" cy="439.557" rx="0.202614" ry="0.178936" fill="#C4C4C4"/>
<ellipse cx="851.18" cy="436.426" rx="0.303921" ry="0.268404" fill="#C4C4C4"/>
<ellipse cx="844.595" cy="433.115" rx="0.202614" ry="0.178936" fill="#C4C4C4"/>
<ellipse cx="829.804" cy="444.567" rx="0.202614" ry="0.178936" fill="#C4C4C4"/>
<ellipse cx="836.997" cy="430.7" rx="0.303921" ry="0.268404" fill="#C4C4C4"/>
<ellipse cx="835.274" cy="435.8" rx="0.202614" ry="0.178936" fill="#C4C4C4"/>
<ellipse cx="814.203" cy="448.146" rx="0.202614" ry="0.178936" fill="#C4C4C4"/>
<ellipse cx="840.137" cy="444.926" rx="0.202614" ry="0.178936" fill="#C4C4C4"/>
<ellipse cx="856.042" cy="446.983" rx="0.303921" ry="0.268404" fill="#C4C4C4"/>
<ellipse cx="853.51" cy="441.167" rx="0.202614" ry="0.178936" fill="#C4C4C4"/>
<ellipse cx="852.091" cy="460.672" rx="0.202614" ry="0.178936" fill="#C4C4C4"/>
<ellipse cx="859.791" cy="462.461" rx="0.202614" ry="0.178936" fill="#C4C4C4"/>
<ellipse cx="853.51" cy="452.62" rx="0.202614" ry="0.178936" fill="#C4C4C4"/>
<ellipse cx="858.373" cy="432.042" rx="0.202614" ry="0.178936" fill="#C4C4C4"/>
<ellipse cx="842.974" cy="438.663" rx="0.202614" ry="0.178936" fill="#C4C4C4"/>
<ellipse cx="861.007" cy="441.346" rx="0.202614" ry="0.178936" fill="#C4C4C4"/>
<ellipse cx="862.121" cy="436.068" rx="0.303921" ry="0.268404" fill="#C4C4C4"/>
<ellipse cx="869.314" cy="444.926" rx="0.202614" ry="0.178936" fill="#C4C4C4"/>
<ellipse cx="868.908" cy="453.335" rx="0.202614" ry="0.178936" fill="#C4C4C4"/>
<ellipse cx="847.229" cy="440.81" rx="0.202614" ry="0.178936" fill="#C4C4C4"/>
<ellipse cx="862.931" cy="446.983" rx="0.303921" ry="0.268404" fill="#C4C4C4"/>
<ellipse cx="875.696" cy="455.93" rx="0.303921" ry="0.268404" fill="#C4C4C4"/>
<ellipse cx="862.628" cy="455.84" rx="0.202614" ry="0.178936" fill="#C4C4C4"/>
<ellipse cx="826.562" cy="433.473" rx="0.202614" ry="0.178936" fill="#C4C4C4"/>
<ellipse cx="834.768" cy="439.289" rx="0.303921" ry="0.268404" fill="#C4C4C4"/>
<ellipse cx="821.395" cy="439.647" rx="0.303921" ry="0.268404" fill="#C4C4C4"/>
<ellipse cx="826.967" cy="436.873" rx="0.202614" ry="0.178936" fill="#C4C4C4"/>
<ellipse cx="895.399" cy="495.133" rx="0.150327" ry="0.132759" fill="#C4C4C4"/>
<ellipse cx="885.628" cy="497.124" rx="0.150327" ry="0.132759" fill="#C4C4C4"/>
<ellipse cx="897.353" cy="508.409" rx="0.300653" ry="0.265518" fill="#C4C4C4"/>
<ellipse cx="905.245" cy="500.908" rx="0.22549" ry="0.199138" fill="#C4C4C4"/>
<ellipse cx="902.539" cy="496.593" rx="0.22549" ry="0.199138" fill="#C4C4C4"/>
<ellipse cx="912.085" cy="502.833" rx="0.150327" ry="0.132759" fill="#C4C4C4"/>
<ellipse cx="900.585" cy="500.51" rx="0.22549" ry="0.199138" fill="#C4C4C4"/>
<ellipse cx="895.699" cy="498.053" rx="0.150327" ry="0.132759" fill="#C4C4C4"/>
<ellipse cx="884.725" cy="506.55" rx="0.150327" ry="0.132759" fill="#C4C4C4"/>
<ellipse cx="890.062" cy="496.261" rx="0.22549" ry="0.199138" fill="#C4C4C4"/>
<ellipse cx="888.784" cy="500.045" rx="0.150327" ry="0.132759" fill="#C4C4C4"/>
<ellipse cx="873.15" cy="509.205" rx="0.150327" ry="0.132759" fill="#C4C4C4"/>
<ellipse cx="892.392" cy="506.816" rx="0.150327" ry="0.132759" fill="#C4C4C4"/>
<ellipse cx="904.193" cy="508.342" rx="0.22549" ry="0.199138" fill="#C4C4C4"/>
<ellipse cx="902.314" cy="504.028" rx="0.150327" ry="0.132759" fill="#C4C4C4"/>
<ellipse cx="901.261" cy="518.498" rx="0.150327" ry="0.132759" fill="#C4C4C4"/>
<ellipse cx="906.974" cy="519.826" rx="0.150327" ry="0.132759" fill="#C4C4C4"/>
<ellipse cx="902.314" cy="512.524" rx="0.150327" ry="0.132759" fill="#C4C4C4"/>
<ellipse cx="905.922" cy="497.257" rx="0.150327" ry="0.132759" fill="#C4C4C4"/>
<ellipse cx="894.497" cy="502.169" rx="0.150327" ry="0.132759" fill="#C4C4C4"/>
<ellipse cx="907.876" cy="504.16" rx="0.150327" ry="0.132759" fill="#C4C4C4"/>
<ellipse cx="908.703" cy="500.244" rx="0.22549" ry="0.199138" fill="#C4C4C4"/>
<ellipse cx="914.039" cy="506.816" rx="0.150327" ry="0.132759" fill="#C4C4C4"/>
<ellipse cx="913.738" cy="513.055" rx="0.150327" ry="0.132759" fill="#C4C4C4"/>
<ellipse cx="897.654" cy="503.762" rx="0.150327" ry="0.132759" fill="#C4C4C4"/>
<ellipse cx="909.304" cy="508.342" rx="0.22549" ry="0.199138" fill="#C4C4C4"/>
<ellipse cx="918.774" cy="514.98" rx="0.22549" ry="0.199138" fill="#C4C4C4"/>
<ellipse cx="909.078" cy="514.914" rx="0.150327" ry="0.132759" fill="#C4C4C4"/>
<ellipse cx="882.32" cy="498.319" rx="0.150327" ry="0.132759" fill="#C4C4C4"/>
<ellipse cx="888.409" cy="502.634" rx="0.22549" ry="0.199138" fill="#C4C4C4"/>
<ellipse cx="878.487" cy="502.899" rx="0.22549" ry="0.199138" fill="#C4C4C4"/>
<ellipse cx="882.621" cy="500.841" rx="0.150327" ry="0.132759" fill="#C4C4C4"/>
<ellipse cx="880.252" cy="564.055" rx="0.0620916" ry="0.0548353" fill="#C4C4C4"/>
<ellipse cx="876.216" cy="564.877" rx="0.0620916" ry="0.0548353" fill="#C4C4C4"/>
<ellipse cx="881.059" cy="569.538" rx="0.124183" ry="0.109671" fill="#C4C4C4"/>
<ellipse cx="884.319" cy="566.44" rx="0.0931373" ry="0.0822529" fill="#C4C4C4"/>
<ellipse cx="883.201" cy="564.658" rx="0.0931373" ry="0.0822529" fill="#C4C4C4"/>
<ellipse cx="887.144" cy="567.235" rx="0.0620916" ry="0.0548353" fill="#C4C4C4"/>
<ellipse cx="882.394" cy="566.276" rx="0.0931373" ry="0.0822529" fill="#C4C4C4"/>
<ellipse cx="880.376" cy="565.261" rx="0.0620916" ry="0.0548353" fill="#C4C4C4"/>
<ellipse cx="875.843" cy="568.771" rx="0.0620916" ry="0.0548353" fill="#C4C4C4"/>
<ellipse cx="878.047" cy="564.521" rx="0.0931373" ry="0.0822529" fill="#C4C4C4"/>
<ellipse cx="877.52" cy="566.084" rx="0.0620916" ry="0.0548353" fill="#C4C4C4"/>
<ellipse cx="871.062" cy="569.867" rx="0.0620916" ry="0.0548353" fill="#C4C4C4"/>
<ellipse cx="879.01" cy="568.88" rx="0.0620916" ry="0.0548353" fill="#C4C4C4"/>
<ellipse cx="883.884" cy="569.511" rx="0.0931373" ry="0.0822529" fill="#C4C4C4"/>
<ellipse cx="883.108" cy="567.729" rx="0.0620916" ry="0.0548353" fill="#C4C4C4"/>
<ellipse cx="882.673" cy="573.706" rx="0.0620916" ry="0.0548353" fill="#C4C4C4"/>
<ellipse cx="885.033" cy="574.254" rx="0.0620916" ry="0.0548353" fill="#C4C4C4"/>
<ellipse cx="883.108" cy="571.238" rx="0.0620916" ry="0.0548353" fill="#C4C4C4"/>
<ellipse cx="884.598" cy="564.932" rx="0.0620916" ry="0.0548353" fill="#C4C4C4"/>
<ellipse cx="879.879" cy="566.961" rx="0.0620916" ry="0.0548353" fill="#C4C4C4"/>
<ellipse cx="885.405" cy="567.784" rx="0.0620916" ry="0.0548353" fill="#C4C4C4"/>
<ellipse cx="885.747" cy="566.166" rx="0.0931373" ry="0.0822529" fill="#C4C4C4"/>
<ellipse cx="887.951" cy="568.88" rx="0.0620916" ry="0.0548353" fill="#C4C4C4"/>
<ellipse cx="887.827" cy="571.458" rx="0.0620916" ry="0.0548353" fill="#C4C4C4"/>
<ellipse cx="881.183" cy="567.619" rx="0.0620916" ry="0.0548353" fill="#C4C4C4"/>
<ellipse cx="885.995" cy="569.511" rx="0.0931373" ry="0.0822529" fill="#C4C4C4"/>
<ellipse cx="889.907" cy="572.253" rx="0.0931373" ry="0.0822529" fill="#C4C4C4"/>
<ellipse cx="885.902" cy="572.225" rx="0.0620916" ry="0.0548353" fill="#C4C4C4"/>
<ellipse cx="874.85" cy="565.371" rx="0.0620916" ry="0.0548353" fill="#C4C4C4"/>
<ellipse cx="877.364" cy="567.153" rx="0.0931373" ry="0.0822529" fill="#C4C4C4"/>
<ellipse cx="873.266" cy="567.263" rx="0.0931373" ry="0.0822529" fill="#C4C4C4"/>
<ellipse cx="874.974" cy="566.413" rx="0.0620916" ry="0.0548353" fill="#C4C4C4"/>
<defs>
<linearGradient id="paint0_linear" x1="1507.96" y1="560.821" x2="615.346" y2="1539.37" gradientUnits="userSpaceOnUse">
<stop stop-color="#E9621B"/>
<stop offset="1" stop-color="#0F66DB"/>
</linearGradient>
<linearGradient id="paint1_linear" x1="293.921" y1="1012.47" x2="6.5678" y2="1201.31" gradientUnits="userSpaceOnUse">
<stop stop-color="#E9621B"/>
<stop offset="1" stop-color="#0F66DB"/>
</linearGradient>
<linearGradient id="paint2_linear" x1="897" y1="487.5" x2="897" y2="531.5" gradientUnits="userSpaceOnUse">
<stop stop-color="#342288"/>
<stop offset="1" stop-color="#171F46"/>
</linearGradient>
<linearGradient id="paint3_linear" x1="844" y1="421" x2="844" y2="485" gradientUnits="userSpaceOnUse">
<stop stop-color="#342288"/>
<stop offset="1" stop-color="#171F46"/>
</linearGradient>
<linearGradient id="paint4_linear" x1="770.5" y1="326" x2="770.5" y2="429" gradientUnits="userSpaceOnUse">
<stop stop-color="#342288"/>
<stop offset="1" stop-color="#171F46"/>
</linearGradient>
<linearGradient id="paint5_linear" x1="610.5" y1="0" x2="610.5" y2="359" gradientUnits="userSpaceOnUse">
<stop stop-color="#342288"/>
<stop offset="1" stop-color="#171F46"/>
</linearGradient>
<linearGradient id="paint6_linear" x1="610.5" y1="0" x2="610.5" y2="359" gradientUnits="userSpaceOnUse">
<stop stop-color="#342288"/>
<stop offset="1" stop-color="#171F46"/>
</linearGradient>
<linearGradient id="paint7_linear" x1="436.5" y1="226" x2="673" y2="355.5" gradientUnits="userSpaceOnUse">
<stop stop-color="#D0217E"/>
<stop offset="1" stop-color="#7B2A87"/>
</linearGradient>
<linearGradient id="paint8_linear" x1="883" y1="561" x2="883" y2="577" gradientUnits="userSpaceOnUse">
<stop stop-color="#342288"/>
<stop offset="1" stop-color="#171F46"/>
</linearGradient>
</defs>
</svg>
