<svg xmlns="http://www.w3.org/2000/svg" viewBox="0 0 64 64"><defs><style>.cls-2,.cls-4{stroke:#54596e;stroke-linecap:round;stroke-linejoin:round;stroke-width:2px}.cls-2{fill:none}.cls-4{fill:#ffd578}</style></defs><g id="grow"><path d="M38.17 6.39C42.07 3.14 57 2.66 57 2.66s-3.16 14.6-7.06 17.85A9.19 9.19 0 0 1 38.17 6.39z" stroke="#54596e" stroke-linecap="round" stroke-linejoin="round" stroke-width="2" fill="#9af43b"/><path class="cls-2" d="M45 13s-13.43 2.88-11.16 15.21M49 6l-1 4M42 8v3M51 14h-3M47 18l-5-1"/><path d="M47 41a13 13 0 0 0-26 0z" fill="#bfad88" stroke="#54596e" stroke-linecap="round" stroke-linejoin="round" stroke-width="2"/><path class="cls-4" d="M36.56 49.53L58 44.73a2.5 2.5 0 0 0 2-2.89 2.5 2.5 0 0 0-2.89-2l-19.19 3.33z"/><path class="cls-4" d="M60.13 36.2a2.5 2.5 0 0 0-3.28-1.33L42 41H23l3-5h4a5 5 0 0 0 5-5H23L8 42l8 9 9 2h7.6A18.25 18.25 0 0 0 44 49l14.8-9.52a2.5 2.5 0 0 0 1.33-3.28z"/><path fill="#fff" stroke="#54596e" stroke-linecap="round" stroke-linejoin="round" stroke-width="2" d="M1.495 45.033l6.49-4.679 9.818 13.62-6.49 4.678z"/><circle cx="12" cy="53" r="2" fill="#54596e"/></g></svg>