<?xml version="1.0" encoding="UTF-8" standalone="no"?> <svg xmlns="http://www.w3.org/2000/svg" viewBox="0 0 64 64"><defs><style>.cls-1{fill:#9af43b;}.cls-1,.cls-2,.cls-3,.cls-4,.cls-5{stroke:#54596e;stroke-linecap:round;stroke-linejoin:round;stroke-width:2px;}.cls-2{fill:none;}.cls-3{fill:#bfad88;}.cls-4{fill:#ffd578;}.cls-5{fill:#fff;}.cls-6{fill:#54596e;}</style></defs><title>grow</title><g id="grow"><path class="cls-1" d="M38.17,6.39C42.07,3.14,57,2.66,57,2.66s-3.16,14.6-7.06,17.85A9.19,9.19,0,0,1,38.17,6.39Z"/><path class="cls-2" d="M45,13S31.57,15.88,33.84,28.21"/><line class="cls-2" x1="49" y1="6" x2="48" y2="10"/><line class="cls-2" x1="42" y1="8" x2="42" y2="11"/><line class="cls-2" x1="51" y1="14" x2="48" y2="14"/><line class="cls-2" x1="47" y1="18" x2="42" y2="17"/><path class="cls-3" d="M47,41a13,13,0,0,0-26,0Z"/><path class="cls-4" d="M36.56,49.53,58,44.73a2.5,2.5,0,0,0,2-2.89h0a2.5,2.5,0,0,0-2.89-2L37.92,43.17Z"/><path class="cls-4" d="M60.13,36.2a2.5,2.5,0,0,0-3.28-1.33L42,41H23l3-5h4a5,5,0,0,0,5-5H23L8,42l8,9,9,2h7.6A18.25,18.25,0,0,0,44,49h0l14.8-9.52A2.5,2.5,0,0,0,60.13,36.2Z"/><rect class="cls-5" x="5.65" y="41.11" width="8" height="16.79" transform="translate(-27.13 14.99) rotate(-35.79)"/><circle class="cls-6" cx="12" cy="53" r="2"/></g></svg>